  0
SECTION
  2
HEADER
  9
$ACADVER
  1
AC1032
  9
$ACADMAINTVER
 90
      155
  9
$DWGCODEPAGE
  3
ANSI_1252
  9
$REQUIREDVERSIONS
160
                 0
  9
$INSBASE
 10
0.0
 20
0.0
 30
0.0
  9
$EXTMIN
 10
1.000000000000000E+20
 20
1.000000000000000E+20
 30
1.000000000000000E+20
  9
$EXTMAX
 10
-1.000000000000000E+20
 20
-1.000000000000000E+20
 30
-1.000000000000000E+20
  9
$LIMMIN
 10
0.0
 20
0.0
  9
$LIMMAX
 10
12.0
 20
9.0
  9
$ORTHOMODE
 70
     0
  9
$REGENMODE
 70
     1
  9
$FILLMODE
 70
     1
  9
$QTEXTMODE
 70
     0
  9
$MIRRTEXT
 70
     0
  9
$LTSCALE
 40
1.0
  9
$ATTMODE
 70
     1
  9
$TEXTSIZE
 40
0.2
  9
$TRACEWID
 40
0.05
  9
$TEXTSTYLE
  7
Standard
  9
$CLAYER
  8
0
  9
$CELTYPE
  6
ByLayer
  9
$CECOLOR
 62
   256
  9
$CELTSCALE
 40
1.0
  9
$DISPSILH
 70
     0
  9
$DIMSCALE
 40
1.0
  9
$DIMASZ
 40
0.18
  9
$DIMEXO
 40
0.0625
  9
$DIMDLI
 40
0.38
  9
$DIMRND
 40
0.0
  9
$DIMDLE
 40
0.0
  9
$DIMEXE
 40
0.18
  9
$DIMTP
 40
0.0
  9
$DIMTM
 40
0.0
  9
$DIMTXT
 40
0.18
  9
$DIMCEN
 40
0.09
  9
$DIMTSZ
 40
0.0
  9
$DIMTOL
 70
     0
  9
$DIMLIM
 70
     0
  9
$DIMTIH
 70
     1
  9
$DIMTOH
 70
     1
  9
$DIMSE1
 70
     0
  9
$DIMSE2
 70
     0
  9
$DIMTAD
 70
     0
  9
$DIMZIN
 70
     0
  9
$DIMBLK
  1

  9
$DIMASO
 70
     1
  9
$DIMSHO
 70
     1
  9
$DIMPOST
  1

  9
$DIMAPOST
  1

  9
$DIMALT
 70
     0
  9
$DIMALTD
 70
     2
  9
$DIMALTF
 40
25.4
  9
$DIMLFAC
 40
1.0
  9
$DIMTOFL
 70
     0
  9
$DIMTVP
 40
0.0
  9
$DIMTIX
 70
     0
  9
$DIMSOXD
 70
     0
  9
$DIMSAH
 70
     0
  9
$DIMBLK1
  1

  9
$DIMBLK2
  1

  9
$DIMSTYLE
  2
Standard
  9
$DIMCLRD
 70
     0
  9
$DIMCLRE
 70
     0
  9
$DIMCLRT
 70
     0
  9
$DIMTFAC
 40
1.0
  9
$DIMGAP
 40
0.09
  9
$DIMJUST
 70
     0
  9
$DIMSD1
 70
     0
  9
$DIMSD2
 70
     0
  9
$DIMTOLJ
 70
     1
  9
$DIMTZIN
 70
     0
  9
$DIMALTZ
 70
     0
  9
$DIMALTTZ
 70
     0
  9
$DIMUPT
 70
     0
  9
$DIMDEC
 70
     4
  9
$DIMTDEC
 70
     4
  9
$DIMALTU
 70
     2
  9
$DIMALTTD
 70
     2
  9
$DIMTXSTY
  7
Standard
  9
$DIMAUNIT
 70
     0
  9
$DIMADEC
 70
     0
  9
$DIMALTRND
 40
0.0
  9
$DIMAZIN
 70
     0
  9
$DIMDSEP
 70
    46
  9
$DIMATFIT
 70
     3
  9
$DIMFRAC
 70
     0
  9
$DIMLDRBLK
  1

  9
$DIMLUNIT
 70
     2
  9
$DIMLWD
 70
    -2
  9
$DIMLWE
 70
    -2
  9
$DIMTMOVE
 70
     0
  9
$DIMFXL
 40
1.0
  9
$DIMFXLON
 70
     0
  9
$DIMJOGANG
 40
0.7853981633974483
  9
$DIMTFILL
 70
     0
  9
$DIMTFILLCLR
 70
     0
  9
$DIMARCSYM
 70
     0
  9
$DIMLTYPE
  6

  9
$DIMLTEX1
  6

  9
$DIMLTEX2
  6

  9
$DIMTXTDIRECTION
 70
     0
  9
$LUNITS
 70
     2
  9
$LUPREC
 70
     4
  9
$SKETCHINC
 40
0.1
  9
$FILLETRAD
 40
0.0
  9
$AUNITS
 70
     0
  9
$AUPREC
 70
     0
  9
$MENU
  1
.
  9
$ELEVATION
 40
0.0
  9
$PELEVATION
 40
0.0
  9
$THICKNESS
 40
0.0
  9
$LIMCHECK
 70
     0
  9
$CHAMFERA
 40
0.0
  9
$CHAMFERB
 40
0.0
  9
$CHAMFERC
 40
0.0
  9
$CHAMFERD
 40
0.0
  9
$SKPOLY
 70
     0
  9
$TDCREATE
 40
2461049.646909722
  9
$TDUCREATE
 40
2461049.771909722
  9
$TDUPDATE
 40
2461049.646909722
  9
$TDUUPDATE
 40
2461049.771909722
  9
$TDINDWG
 40
0.0000000000
  9
$TDUSRTIMER
 40
0.0000000000
  9
$USRTIMER
 70
     1
  9
$ANGBASE
 50
0.0
  9
$ANGDIR
 70
     0
  9
$PDMODE
 70
     0
  9
$PDSIZE
 40
0.0
  9
$PLINEWID
 40
0.0
  9
$SPLFRAME
 70
     0
  9
$SPLINETYPE
 70
     6
  9
$SPLINESEGS
 70
     8
  9
$HANDSEED
  5
C8
  9
$SURFTAB1
 70
     6
  9
$SURFTAB2
 70
     6
  9
$SURFTYPE
 70
     6
  9
$SURFU
 70
     6
  9
$SURFV
 70
     6
  9
$UCSBASE
  2

  9
$UCSNAME
  2

  9
$UCSORG
 10
0.0
 20
0.0
 30
0.0
  9
$UCSXDIR
 10
1.0
 20
0.0
 30
0.0
  9
$UCSYDIR
 10
0.0
 20
1.0
 30
0.0
  9
$UCSORTHOREF
  2

  9
$UCSORTHOVIEW
 70
     0
  9
$UCSORGTOP
 10
0.0
 20
0.0
 30
0.0
  9
$UCSORGBOTTOM
 10
0.0
 20
0.0
 30
0.0
  9
$UCSORGLEFT
 10
0.0
 20
0.0
 30
0.0
  9
$UCSORGRIGHT
 10
0.0
 20
0.0
 30
0.0
  9
$UCSORGFRONT
 10
0.0
 20
0.0
 30
0.0
  9
$UCSORGBACK
 10
0.0
 20
0.0
 30
0.0
  9
$PUCSBASE
  2

  9
$PUCSNAME
  2

  9
$PUCSORG
 10
0.0
 20
0.0
 30
0.0
  9
$PUCSXDIR
 10
1.0
 20
0.0
 30
0.0
  9
$PUCSYDIR
 10
0.0
 20
1.0
 30
0.0
  9
$PUCSORTHOREF
  2

  9
$PUCSORTHOVIEW
 70
     0
  9
$PUCSORGTOP
 10
0.0
 20
0.0
 30
0.0
  9
$PUCSORGBOTTOM
 10
0.0
 20
0.0
 30
0.0
  9
$PUCSORGLEFT
 10
0.0
 20
0.0
 30
0.0
  9
$PUCSORGRIGHT
 10
0.0
 20
0.0
 30
0.0
  9
$PUCSORGFRONT
 10
0.0
 20
0.0
 30
0.0
  9
$PUCSORGBACK
 10
0.0
 20
0.0
 30
0.0
  9
$USERI1
 70
     0
  9
$USERI2
 70
     0
  9
$USERI3
 70
     0
  9
$USERI4
 70
     0
  9
$USERI5
 70
     0
  9
$USERR1
 40
0.0
  9
$USERR2
 40
0.0
  9
$USERR3
 40
0.0
  9
$USERR4
 40
0.0
  9
$USERR5
 40
0.0
  9
$WORLDVIEW
 70
     1
  9
$SHADEDGE
 70
     3
  9
$SHADEDIF
 70
    70
  9
$TILEMODE
 70
     1
  9
$MAXACTVP
 70
    64
  9
$PINSBASE
 10
0.0
 20
0.0
 30
0.0
  9
$PLIMCHECK
 70
     0
  9
$PEXTMIN
 10
1.000000000000000E+20
 20
1.000000000000000E+20
 30
1.000000000000000E+20
  9
$PEXTMAX
 10
-1.000000000000000E+20
 20
-1.000000000000000E+20
 30
-1.000000000000000E+20
  9
$PLIMMIN
 10
0.0
 20
0.0
  9
$PLIMMAX
 10
12.0
 20
9.0
  9
$UNITMODE
 70
     0
  9
$VISRETAIN
 70
     1
  9
$PLINEGEN
 70
     0
  9
$PSLTSCALE
 70
     1
  9
$TREEDEPTH
 70
  3020
  9
$CMLSTYLE
  2
Standard
  9
$CMLJUST
 70
     0
  9
$CMLSCALE
 40
1.0
  9
$PROXYGRAPHICS
 70
     1
  9
$MEASUREMENT
 70
     0
  9
$CELWEIGHT
370
    -1
  9
$ENDCAPS
280
     0
  9
$JOINSTYLE
280
     0
  9
$LWDISPLAY
290
     1
  9
$INSUNITS
 70
     4
  9
$HYPERLINKBASE
  1

  9
$STYLESHEET
  1

  9
$XEDIT
290
     1
  9
$CEPSNTYPE
380
     0
  9
$PSTYLEMODE
290
     1
  9
$FINGERPRINTGUID
  2
{1C44A468-C253-B94A-A204-5DAFED263F92}
  9
$VERSIONGUID
  2
{0282E65D-AD77-2F43-B681-D976E42A00CD}
  9
$EXTNAMES
290
     1
  9
$PSVPSCALE
 40
0.0
  9
$OLESTARTUP
290
     0
  9
$SORTENTS
280
   127
  9
$INDEXCTL
280
     0
  9
$HIDETEXT
280
     1
  9
$XCLIPFRAME
280
     2
  9
$HALOGAP
280
     0
  9
$OBSCOLOR
 70
   257
  9
$OBSLTYPE
280
     0
  9
$INTERSECTIONDISPLAY
280
     0
  9
$INTERSECTIONCOLOR
 70
   257
  9
$DIMASSOC
280
     2
  9
$PROJECTNAME
  1

  9
$CAMERADISPLAY
290
     0
  9
$LENSLENGTH
 40
50.0
  9
$CAMERAHEIGHT
 40
0.0
  9
$STEPSPERSEC
 40
2.0
  9
$STEPSIZE
 40
6.0
  9
$3DDWFPREC
 40
2.0
  9
$PSOLWIDTH
 40
0.25
  9
$PSOLHEIGHT
 40
4.0
  9
$LOFTANG1
 40
1.570796326794896
  9
$LOFTANG2
 40
1.570796326794896
  9
$LOFTMAG1
 40
0.0
  9
$LOFTMAG2
 40
0.0
  9
$LOFTPARAM
 70
     7
  9
$LOFTNORMALS
280
     1
  9
$LATITUDE
 40
37.795
  9
$LONGITUDE
 40
-122.394
  9
$NORTHDIRECTION
 40
0.0
  9
$TIMEZONE
 70
 -8000
  9
$LIGHTGLYPHDISPLAY
280
     1
  9
$TILEMODELIGHTSYNCH
280
     1
  9
$CMATERIAL
347
11
  9
$SOLIDHIST
280
     0
  9
$SHOWHIST
280
     1
  9
$DWFFRAME
280
     2
  9
$DGNFRAME
280
     0
  9
$REALWORLDSCALE
290
     1
  9
$INTERFERECOLOR
 62
     1
  9
$INTERFEREOBJVS
345
33
  9
$INTERFEREVPVS
346
30
  9
$CSHADOW
280
     0
  9
$SHADOWPLANELOCATION
 40
0.0
  0
ENDSEC
  0
SECTION
  2
CLASSES
  0
CLASS
  1
ACDBDICTIONARYWDFLT
  2
AcDbDictionaryWithDefault
  3
ObjectDBX Classes
 90
        0
 91
        1
280
     0
281
     0
  0
CLASS
  1
MATERIAL
  2
AcDbMaterial
  3
ObjectDBX Classes
 90
     1153
 91
        3
280
     0
281
     0
  0
CLASS
  1
VISUALSTYLE
  2
AcDbVisualStyle
  3
ObjectDBX Classes
 90
     4095
 91
       24
280
     0
281
     0
  0
CLASS
  1
SCALE
  2
AcDbScale
  3
ObjectDBX Classes
 90
     1153
 91
       17
280
     0
281
     0
  0
CLASS
  1
TABLESTYLE
  2
AcDbTableStyle
  3
ObjectDBX Classes
 90
     4095
 91
        1
280
     0
281
     0
  0
CLASS
  1
MLEADERSTYLE
  2
AcDbMLeaderStyle
  3
ACDB_MLEADERSTYLE_CLASS
 90
     4095
 91
        1
280
     0
281
     0
  0
CLASS
  1
ACDBSECTIONVIEWSTYLE
  2
AcDbSectionViewStyle
  3
ObjectDBX Classes
 90
     1025
 91
        1
280
     0
281
     0
  0
CLASS
  1
ACDBDETAILVIEWSTYLE
  2
AcDbDetailViewStyle
  3
ObjectDBX Classes
 90
     1025
 91
        1
280
     0
281
     0
  0
CLASS
  1
DICTIONARYVAR
  2
AcDbDictionaryVar
  3
ObjectDBX Classes
 90
        0
 91
        5
280
     0
281
     0
  0
CLASS
  1
CELLSTYLEMAP
  2
AcDbCellStyleMap
  3
ObjectDBX Classes
 90
     1152
 91
        1
280
     0
281
     0
  0
ENDSEC
  0
SECTION
  2
TABLES
  0
TABLE
  2
VPORT
  5
8
330
0
100
AcDbSymbolTable
 70
     1
  0
VPORT
  5
57
330
8
100
AcDbSymbolTableRecord
100
AcDbViewportTableRecord
  2
*Active
 70
     0
 10
0.0
 20
0.0
 11
1.0
 21
1.0
 12
0.0
 22
0.0
 13
0.0
 23
0.0
 14
1.0
 24
1.0
 15
0.0
 25
0.0
 16
0.0
 26
0.0
 36
1.0
 17
249.9999999375057
 27
-249.9749999375116
 37
0.0
 40
1379.935613516416
 41
0.5845547952348374
 42
50.0
 43
0.0
 44
0.0
 50
0.0
 51
0.0
 71
     0
 72
   100
 73
     1
 74
     0
 75
     1
 76
     0
 77
     0
 78
     0
281
     0
 65
     1
110
0.0
120
0.0
130
0.0
111
1.0
121
0.0
131
0.0
112
0.0
122
1.0
132
0.0
 79
     0
146
0.0
 60
     3
 61
     5
292
     1
282
     1
141
0.0
142
0.0
 63
   250
421
  3355443
  0
ENDTAB
  0
TABLE
  2
LTYPE
  5
5
330
0
100
AcDbSymbolTable
 70
     1
  0
LTYPE
  5
5B
330
5
100
AcDbSymbolTableRecord
100
AcDbLinetypeTableRecord
  2
ByBlock
 70
     0
  3

 72
    65
 73
     0
 40
0.0
  0
LTYPE
  5
5C
330
5
100
AcDbSymbolTableRecord
100
AcDbLinetypeTableRecord
  2
ByLayer
 70
     0
  3

 72
    65
 73
     0
 40
0.0
  0
LTYPE
  5
5D
330
5
100
AcDbSymbolTableRecord
100
AcDbLinetypeTableRecord
  2
Continuous
 70
     0
  3
Solid line
 72
    65
 73
     0
 40
0.0
  0
ENDTAB
  0
TABLE
  2
LAYER
  5
2
330
0
100
AcDbSymbolTable
 70
     2
  0
LAYER
  5
54
330
2
100
AcDbSymbolTableRecord
100
AcDbLayerTableRecord
  2
0
 70
     0
 62
     7
  6
Continuous
370
    -3
390
F
347
21
348
0
  0
LAYER
  5
78
330
2
100
AcDbSymbolTableRecord
100
AcDbLayerTableRecord
  2
Layer 1
 70
     0
 62
     7
  6
Continuous
370
     0
390
F
347
21
348
0
  0
ENDTAB
  0
TABLE
  2
STYLE
  5
3
330
0
100
AcDbSymbolTable
 70
     2
  0
STYLE
  5
55
330
3
100
AcDbSymbolTableRecord
100
AcDbTextStyleTableRecord
  2
Standard
 70
     0
 40
0.0
 41
1.0
 50
0.0
 71
     0
 42
0.2
  3
txt
  4

  0
STYLE
  5
5A
330
3
100
AcDbSymbolTableRecord
100
AcDbTextStyleTableRecord
  2
Annotative
 70
     0
 40
0.0
 41
1.0
 50
0.0
 71
     0
 42
0.2
  3
txt
  4

1001
AcadAnnotative
1000
AnnotativeData
1002
{
1070
     1
1070
     1
1002
}
  0
ENDTAB
  0
TABLE
  2
VIEW
  5
6
330
0
100
AcDbSymbolTable
 70
     0
  0
ENDTAB
  0
TABLE
  2
UCS
  5
7
330
0
100
AcDbSymbolTable
 70
     0
  0
ENDTAB
  0
TABLE
  2
APPID
  5
9
330
0
100
AcDbSymbolTable
 70
     2
  0
APPID
  5
56
330
9
100
AcDbSymbolTableRecord
100
AcDbRegAppTableRecord
  2
ACAD
 70
     0
  0
APPID
  5
5E
330
9
100
AcDbSymbolTableRecord
100
AcDbRegAppTableRecord
  2
AcadAnnotative
 70
     0
  0
ENDTAB
  0
TABLE
  2
DIMSTYLE
  5
A
330
0
100
AcDbSymbolTable
 70
     2
100
AcDbDimStyleTable
 71
     0
  0
DIMSTYLE
105
58
330
A
100
AcDbSymbolTableRecord
100
AcDbDimStyleTableRecord
  2
Standard
 70
     0
340
55
  0
DIMSTYLE
105
59
330
A
100
AcDbSymbolTableRecord
100
AcDbDimStyleTableRecord
  2
Annotative
 70
     0
340
55
1001
AcadAnnotative
1000
AnnotativeData
1002
{
1070
     1
1070
     1
1002
}
  0
ENDTAB
  0
TABLE
  2
BLOCK_RECORD
  5
1
330
0
100
AcDbSymbolTable
 70
     8
  0
BLOCK_RECORD
  5
70
330
1
100
AcDbSymbolTableRecord
100
AcDbBlockTableRecord
  2
*Model_Space
340
73
 70
     0
280
     1
281
     0
  0
BLOCK_RECORD
  5
6C
330
1
100
AcDbSymbolTableRecord
100
AcDbBlockTableRecord
  2
*Paper_Space
340
6F
 70
     0
280
     1
281
     0
  0
BLOCK_RECORD
  5
74
330
1
100
AcDbSymbolTableRecord
100
AcDbBlockTableRecord
  2
*Paper_Space0
340
77
 70
     0
280
     1
281
     0
  0
BLOCK_RECORD
  5
79
330
1
100
AcDbSymbolTableRecord
100
AcDbBlockTableRecord
  2
Block_0
340
0
102
{BLKREFS
331
7A
102
}
 70
     0
280
     1
281
     0
  0
BLOCK_RECORD
  5
83
330
1
100
AcDbSymbolTableRecord
100
AcDbBlockTableRecord
  2
Block_1
340
0
102
{BLKREFS
331
84
102
}
 70
     0
280
     1
281
     0
  0
BLOCK_RECORD
  5
8D
330
1
100
AcDbSymbolTableRecord
100
AcDbBlockTableRecord
  2
Block_2
340
0
102
{BLKREFS
331
8E
102
}
 70
     0
280
     1
281
     0
  0
BLOCK_RECORD
  5
97
330
1
100
AcDbSymbolTableRecord
100
AcDbBlockTableRecord
  2
Block_3
340
0
102
{BLKREFS
331
98
102
}
 70
     0
280
     1
281
     0
  0
BLOCK_RECORD
  5
A1
330
1
100
AcDbSymbolTableRecord
100
AcDbBlockTableRecord
  2
Block_4
340
0
102
{BLKREFS
331
A2
102
}
 70
     0
280
     1
281
     0
  0
BLOCK_RECORD
  5
AB
330
1
100
AcDbSymbolTableRecord
100
AcDbBlockTableRecord
  2
Block_5
340
0
102
{BLKREFS
331
AC
102
}
 70
     0
280
     1
281
     0
  0
BLOCK_RECORD
  5
B5
330
1
100
AcDbSymbolTableRecord
100
AcDbBlockTableRecord
  2
Block_6
340
0
102
{BLKREFS
331
B6
102
}
 70
     0
280
     1
281
     0
  0
ENDTAB
  0
ENDSEC
  0
SECTION
  2
BLOCKS
  0
BLOCK
  5
71
330
70
100
AcDbEntity
  8
0
100
AcDbBlockBegin
  2
*Model_Space
 70
     0
 10
0.0
 20
0.0
 30
0.0
  3
*Model_Space
  1

  0
ENDBLK
  5
72
330
70
100
AcDbEntity
  8
0
100
AcDbBlockEnd
  0
BLOCK
  5
6D
330
6C
100
AcDbEntity
 67
     1
  8
0
100
AcDbBlockBegin
  2
*Paper_Space
 70
     0
 10
0.0
 20
0.0
 30
0.0
  3
*Paper_Space
  1

  0
ENDBLK
  5
6E
330
6C
100
AcDbEntity
 67
     1
  8
0
100
AcDbBlockEnd
  0
BLOCK
  5
75
330
74
100
AcDbEntity
 67
     1
  8
0
100
AcDbBlockBegin
  2
*Paper_Space0
 70
     0
 10
0.0
 20
0.0
 30
0.0
  3
*Paper_Space0
  1

  0
ENDBLK
  5
76
330
74
100
AcDbEntity
 67
     1
  8
0
100
AcDbBlockEnd
  0
BLOCK
  5
7B
330
79
100
AcDbEntity
  8
0
100
AcDbBlockBegin
  2
Block_0
 70
     0
 10
0.0
 20
0.0
 30
0.0
  3
Block_0
  1

  0
SPLINE
  5
7D
330
79
100
AcDbEntity
  8
Layer 1
 62
   250
420
  2565413
370
     9
100
AcDbSpline
210
0.0
220
0.0
230
1.0
 70
     9
 71
     3
 72
    86
 73
    82
 74
     0
 42
0.0000000001
 43
0.0000000001
 40
0.0
 40
0.0
 40
0.0
 40
0.0
 40
1.0
 40
1.0
 40
1.0
 40
2.0
 40
2.0
 40
2.0
 40
3.0
 40
3.0
 40
3.0
 40
4.0
 40
4.0
 40
4.0
 40
5.0
 40
5.0
 40
5.0
 40
6.0
 40
6.0
 40
6.0
 40
7.0
 40
7.0
 40
7.0
 40
8.0
 40
8.0
 40
8.0
 40
9.0
 40
9.0
 40
9.0
 40
10.0
 40
10.0
 40
10.0
 40
11.0
 40
11.0
 40
11.0
 40
12.0
 40
12.0
 40
12.0
 40
13.0
 40
13.0
 40
13.0
 40
14.0
 40
14.0
 40
14.0
 40
15.0
 40
15.0
 40
15.0
 40
16.0
 40
16.0
 40
16.0
 40
17.0
 40
17.0
 40
17.0
 40
18.0
 40
18.0
 40
18.0
 40
19.0
 40
19.0
 40
19.0
 40
20.0
 40
20.0
 40
20.0
 40
21.0
 40
21.0
 40
21.0
 40
22.0
 40
22.0
 40
22.0
 40
23.0
 40
23.0
 40
23.0
 40
24.0
 40
24.0
 40
24.0
 40
25.0
 40
25.0
 40
25.0
 40
26.0
 40
26.0
 40
26.0
 40
27.0
 40
27.0
 40
27.0
 40
27.0
 10
456.1159401710233
 20
421.8281825103891
 30
0.0
 10
456.1683625471083
 20
422.0704980004329
 30
0.0
 10
456.0364530257675
 20
422.3185542765808
 30
0.0
 10
455.8008510225899
 20
422.4044337355502
 30
0.0
 10
443.360638323272
 20
426.9392096887215
 30
0.0
 10
415.6379525671546
 20
426.8989496600927
 30
0.0
 10
395.5124673817735
 20
425.7060759377441
 30
0.0
 10
372.50564196111
 20
424.4075333222522
 30
0.0
 10
361.8421300294049
 20
422.7401096187876
 30
0.0
 10
346.5745927575164
 20
420.7838397801288
 30
0.0
 10
313.1760503626914
 20
416.5043964109329
 30
0.0
 10
286.9590761723153
 20
413.7175134004655
 30
0.0
 10
252.2553238549872
 20
413.6100906672248
 30
0.0
 10
251.8945872244269
 20
413.6089237848466
 30
0.0
 10
251.5596278392392
 20
413.4189059026359
 30
0.0
 10
251.3792603408451
 20
413.1107102351706
 30
0.0
 10
251.3792603408451
 20
413.1107102351706
 30
0.0
 10
250.8777336051538
 20
412.2545886498794
 30
0.0
 10
250.8777336051538
 20
412.2545886498794
 30
0.0
 10
250.8777336051538
 20
412.2545886498794
 30
0.0
 10
250.8777326259839
 20
412.2545869773173
 30
0.0
 10
250.8777326259839
 20
412.2545869773173
 30
0.0
 10
250.4875195243579
 20
411.5878859200201
 30
0.0
 10
249.5120524706254
 20
411.5878809213302
 30
0.0
 10
249.1218323471887
 20
412.2545779716308
 30
0.0
 10
249.1218323471887
 20
412.2545779716308
 30
0.0
 10
249.1218260971719
 20
412.2545886498794
 30
0.0
 10
249.1218260971719
 20
412.2545886498794
 30
0.0
 10
249.1218260971719
 20
412.2545886498794
 30
0.0
 10
248.620216306466
 20
413.1108675448175
 30
0.0
 10
248.620216306466
 20
413.1108675448175
 30
0.0
 10
248.4398633121678
 20
413.4190436829236
 30
0.0
 10
248.1049395389209
 20
413.6090576420742
 30
0.0
 10
247.744227317315
 20
413.6102484577029
 30
0.0
 10
213.0538088587581
 20
413.7199770374165
 30
0.0
 10
186.8381614774467
 20
416.5284880440573
 30
0.0
 10
153.4477766336617
 20
420.8078047255586
 30
0.0
 10
138.1781996631085
 20
422.7647559782995
 30
0.0
 10
127.5144318407078
 20
424.4324026052449
 30
0.0
 10
104.5052293041631
 20
425.7313198748704
 30
0.0
 10
84.37805624296448
 20
426.9244641883589
 30
0.0
 10
56.65297462134117
 20
426.9647764387086
 30
0.0
 10
44.21175047489036
 20
422.4287576972496
 30
0.0
 10
43.97617037623972
 20
422.3428699024434
 30
0.0
 10
43.84427608249606
 20
422.0948321786821
 30
0.0
 10
43.89668663048563
 20
421.8525322323935
 30
0.0
 10
47.17183968214826
 20
406.7103357020507
 30
0.0
 10
48.3494612536846
 20
403.0182622487767
 30
0.0
 10
69.48678973128038
 20
399.5773747513484
 30
0.0
 10
69.71836014121149
 20
399.5396781141762
 30
0.0
 10
69.8935508819159
 20
399.3488751280946
 30
0.0
 10
69.90834478463924
 20
399.1178003700491
 30
0.0
 10
70.27735040134126
 20
393.3540696626294
 30
0.0
 10
67.71725304744006
 20
349.4887699356374
 30
0.0
 10
67.6831977169288
 20
338.2429741329382
 30
0.0
 10
67.6823384490337
 20
337.9592365266415
 30
0.0
 10
67.91730495881584
 20
337.7365022154269
 30
0.0
 10
68.20469214923
 20
337.7482021901231
 30
0.0
 10
79.78858442886107
 20
338.2195528332729
 30
0.0
 10
129.3016835529594
 20
342.4907751038069
 30
0.0
 10
166.4355572368134
 20
340.8461871451281
 30
0.0
 10
206.4920646835644
 20
339.0721613493142
 30
0.0
 10
211.2978160090456
 20
338.9444858256364
 30
0.0
 10
250.0158549531485
 20
338.9444858256364
 30
0.0
 10
288.7301731941334
 20
338.9444858256364
 30
0.0
 10
293.5354087846473
 20
339.0699537525712
 30
0.0
 10
333.5874233643156
 20
340.8435516470863
 30
0.0
 10
370.7185573599962
 20
342.4878060439454
 30
0.0
 10
420.2269669108272
 20
338.2177457355049
 30
0.0
 10
431.809955902139
 20
337.7465063857263
 30
0.0
 10
432.0973427752262
 20
337.7348082575313
 30
0.0
 10
432.3323090897422
 20
337.9575436684769
 30
0.0
 10
432.3314486978683
 20
338.2412808802667
 30
0.0
 10
432.2973571658605
 20
349.4842449258333
 30
0.0
 10
429.7375484144193
 20
393.3371305585314
 30
0.0
 10
430.1064723795023
 20
399.0997379870133
 30
0.0
 10
430.1212660920295
 20
399.3308165263785
 30
0.0
 10
430.2964663174253
 20
399.5216139697257
 30
0.0
 10
430.5280415184342
 20
399.5593047297024
 30
0.0
 10
451.6634870710594
 20
402.9992730246821
 30
0.0
 10
452.8411308650436
 20
406.6900964582301
 30
0.0
 10
456.1159401710233
 20
421.8281825103891
 30
0.0
  0
SPLINE
  5
7E
330
79
100
AcDbEntity
  8
Layer 1
 62
   250
420
  2565413
370
     9
100
AcDbSpline
210
0.0
220
0.0
230
1.0
 70
     8
 71
     3
 72
     8
 73
     4
 74
     0
 42
0.0000000001
 43
0.0000000001
 40
0.0
 40
0.0
 40
0.0
 40
0.0
 40
1.0
 40
1.0
 40
1.0
 40
1.0
 10
69.78290577020607
 20
394.9562354687078
 30
0.0
 10
74.76322655073203
 20
394.3519977063454
 30
0.0
 10
83.14163210904613
 20
393.5326007828055
 30
0.0
 10
88.21532814961146
 20
392.9174269096104
 30
0.0
  0
SPLINE
  5
7F
330
79
100
AcDbEntity
  8
Layer 1
 62
   250
420
  2565413
370
     9
100
AcDbSpline
210
0.0
220
0.0
230
1.0
 70
     8
 71
     3
 72
     8
 73
     4
 74
     0
 42
0.0000000001
 43
0.0000000001
 40
0.0
 40
0.0
 40
0.0
 40
0.0
 40
1.0
 40
1.0
 40
1.0
 40
1.0
 10
99.62799969566232
 20
391.7311058287651
 30
0.0
 10
122.3293906970438
 20
389.01965589794
 30
0.0
 10
162.33512369243
 20
385.552097375294
 30
0.0
 10
192.8006358134583
 20
383.710667977828
 30
0.0
  0
SPLINE
  5
80
330
79
100
AcDbEntity
  8
Layer 1
 62
   250
420
  2565413
370
     9
100
AcDbSpline
210
0.0
220
0.0
230
1.0
 70
     8
 71
     3
 72
    11
 73
     7
 74
     0
 42
0.0000000001
 43
0.0000000001
 40
0.0
 40
0.0
 40
0.0
 40
0.0
 40
1.0
 40
1.0
 40
1.0
 40
2.0
 40
2.0
 40
2.0
 40
2.0
 10
202.3317519126997
 20
383.1975174353643
 30
0.0
 10
223.7505912366285
 20
382.0509544090594
 30
0.0
 10
222.4943812493347
 20
381.7011399735394
 30
0.0
 10
250.0140483763213
 20
381.7011399735394
 30
0.0
 10
277.5298821652154
 20
381.7011399735394
 30
0.0
 10
276.2737372457781
 20
382.0285882985192
 30
0.0
 10
297.689591069903
 20
383.1746221581706
 30
0.0
  0
SPLINE
  5
81
330
79
100
AcDbEntity
  8
Layer 1
 62
   250
420
  2565413
370
     9
100
AcDbSpline
210
0.0
220
0.0
230
1.0
 70
     8
 71
     3
 72
     8
 73
     4
 74
     0
 42
0.0000000001
 43
0.0000000001
 40
0.0
 40
0.0
 40
0.0
 40
0.0
 40
1.0
 40
1.0
 40
1.0
 40
1.0
 10
307.2194374179872
 20
383.6875610339731
 30
0.0
 10
337.680664126924
 20
385.5281790425708
 30
0.0
 10
377.6805559479082
 20
388.9942206208111
 30
0.0
 10
400.3787728898299
 20
391.7044711072227
 30
0.0
  0
SPLINE
  5
82
330
79
100
AcDbEntity
  8
Layer 1
 62
   250
420
  2565413
370
     9
100
AcDbSpline
210
0.0
220
0.0
230
1.0
 70
     8
 71
     3
 72
     8
 73
     4
 74
     0
 42
0.0000000001
 43
0.0000000001
 40
0.0
 40
0.0
 40
0.0
 40
0.0
 40
1.0
 40
1.0
 40
1.0
 40
1.0
 10
411.7900477080722
 20
392.8902630214148
 30
0.0
 10
416.8630453879371
 20
393.5051546723946
 30
0.0
 10
425.2402446771309
 20
394.3241988181657
 30
0.0
 10
430.2198670945989
 20
394.9281543583131
 30
0.0
  0
ENDBLK
  5
7C
330
79
100
AcDbEntity
  8
0
100
AcDbBlockEnd
  0
BLOCK
  5
85
330
83
100
AcDbEntity
  8
0
100
AcDbBlockBegin
  2
Block_1
 70
     0
 10
0.0
 20
0.0
 30
0.0
  3
Block_1
  1

  0
SPLINE
  5
87
330
83
100
AcDbEntity
  8
Layer 1
 62
   250
420
  2565413
370
     9
100
AcDbSpline
210
0.0
220
0.0
230
1.0
 70
     9
 71
     3
 72
   128
 73
   124
 74
     0
 42
0.0000000001
 43
0.0000000001
 40
0.0
 40
0.0
 40
0.0
 40
0.0
 40
1.0
 40
1.0
 40
1.0
 40
2.0
 40
2.0
 40
2.0
 40
3.0
 40
3.0
 40
3.0
 40
4.0
 40
4.0
 40
4.0
 40
5.0
 40
5.0
 40
5.0
 40
6.0
 40
6.0
 40
6.0
 40
7.0
 40
7.0
 40
7.0
 40
8.0
 40
8.0
 40
8.0
 40
9.0
 40
9.0
 40
9.0
 40
10.0
 40
10.0
 40
10.0
 40
11.0
 40
11.0
 40
11.0
 40
12.0
 40
12.0
 40
12.0
 40
13.0
 40
13.0
 40
13.0
 40
14.0
 40
14.0
 40
14.0
 40
15.0
 40
15.0
 40
15.0
 40
16.0
 40
16.0
 40
16.0
 40
17.0
 40
17.0
 40
17.0
 40
18.0
 40
18.0
 40
18.0
 40
19.0
 40
19.0
 40
19.0
 40
20.0
 40
20.0
 40
20.0
 40
21.0
 40
21.0
 40
21.0
 40
22.0
 40
22.0
 40
22.0
 40
23.0
 40
23.0
 40
23.0
 40
24.0
 40
24.0
 40
24.0
 40
25.0
 40
25.0
 40
25.0
 40
26.0
 40
26.0
 40
26.0
 40
27.0
 40
27.0
 40
27.0
 40
28.0
 40
28.0
 40
28.0
 40
29.0
 40
29.0
 40
29.0
 40
30.0
 40
30.0
 40
30.0
 40
31.0
 40
31.0
 40
31.0
 40
32.0
 40
32.0
 40
32.0
 40
33.0
 40
33.0
 40
33.0
 40
34.0
 40
34.0
 40
34.0
 40
35.0
 40
35.0
 40
35.0
 40
36.0
 40
36.0
 40
36.0
 40
37.0
 40
37.0
 40
37.0
 40
38.0
 40
38.0
 40
38.0
 40
39.0
 40
39.0
 40
39.0
 40
40.0
 40
40.0
 40
40.0
 40
41.0
 40
41.0
 40
41.0
 40
41.0
 10
34.24988450786524
 20
283.6194004128548
 30
0.0
 10
34.02341381747814
 20
283.5365667487658
 30
0.0
 10
33.8967357564778
 20
283.2975820551766
 30
0.0
 10
33.94713164811796
 20
283.0641869510486
 30
0.0
 10
37.2181711760345
 20
267.9081576126117
 30
0.0
 10
38.38662521364713
 20
264.2115674203666
 30
0.0
 10
59.49677877845798
 20
260.7706162233589
 30
0.0
 10
59.71938025216178
 20
260.7343415716738
 30
0.0
 10
59.88822951340118
 20
260.5511951436712
 30
0.0
 10
59.90278012467657
 20
260.3286929709154
 30
0.0
 10
60.27692234665096
 20
254.6278354777437
 30
0.0
 10
57.71488002627099
 20
210.6446037777305
 30
0.0
 10
57.68363127589747
 20
199.4182529225759
 30
0.0
 10
57.68285807707094
 20
199.1448655100402
 30
0.0
 10
57.9087733765791
 20
198.9298942299647
 30
0.0
 10
58.18517593277762
 20
198.9410357772547
 30
0.0
 10
68.50472527100271
 20
199.3551426388018
 30
0.0
 10
111.8206836480996
 20
202.7844867957661
 30
0.0
 10
145.7923290332787
 20
202.417247756908
 30
0.0
 10
151.306134940739
 20
202.3492695966027
 30
0.0
 10
156.6804334506826
 20
202.2179974949966
 30
0.0
 10
161.8309638010957
 20
202.0046459820032
 30
0.0
 10
202.227309864047
 20
200.3119001232505
 30
0.0
 10
211.3385709130619
 20
200.1379632761313
 30
0.0
 10
250.0103463411647
 20
200.1379632761313
 30
0.0
 10
288.6704585719944
 20
200.1379632761313
 30
0.0
 10
297.7763687601181
 20
200.3085657250065
 30
0.0
 10
338.1540148779673
 20
201.9998866476055
 30
0.0
 10
343.3564747773728
 20
202.215288570598
 30
0.0
 10
348.7871961646161
 20
202.3469196323183
 30
0.0
 10
354.3592247100469
 20
202.4141642085646
 30
0.0
 10
388.29526594631
 20
202.7719216802605
 30
0.0
 10
431.5207104015276
 20
199.3513559750136
 30
0.0
 10
441.8265267848415
 20
198.937864145211
 30
0.0
 10
442.1029292170201
 20
198.9267241636165
 30
0.0
 10
442.3288444148049
 20
199.1416967034608
 30
0.0
 10
442.3280700778009
 20
199.4150839262321
 30
0.0
 10
442.2967807252676
 20
210.6392847647451
 30
0.0
 10
439.7349187453159
 20
254.6130966388989
 30
0.0
 10
440.1090128514466
 20
260.3130958679198
 30
0.0
 10
440.1235637615234
 20
260.5356009946464
 30
0.0
 10
440.2924208325115
 20
260.7187424905518
 30
0.0
 10
440.5150261579056
 20
260.7550120980794
 30
0.0
 10
461.6240736273317
 20
264.1952586990799
 30
0.0
 10
462.7925646675562
 20
267.8909033583293
 30
0.0
 10
466.0633928033643
 20
283.0438196503356
 30
0.0
 10
466.1137986984611
 20
283.2772279080548
 30
0.0
 10
465.9871078234279
 20
283.5162283089059
 30
0.0
 10
465.7606186163154
 20
283.5990549702607
 30
0.0
 10
455.6001288402189
 20
287.3209633413673
 30
0.0
 10
435.0897474662036
 20
287.9047612195024
 30
0.0
 10
417.1826987495839
 20
287.388258230373
 30
0.0
 10
412.0587050730375
 20
287.2366479981277
 30
0.0
 10
407.1533530592712
 20
287.0200568118121
 30
0.0
 10
402.6139699312597
 20
286.759841397695
 30
0.0
 10
385.0370575398807
 20
285.7881979663515
 30
0.0
 10
374.1753538547492
 20
284.6527896400598
 30
0.0
 10
362.1662535592351
 20
283.1206861282988
 30
0.0
 10
358.7211667105253
 20
282.6797325483306
 30
0.0
 10
355.175760361609
 20
282.2264132240002
 30
0.0
 10
351.3564234121782
 20
281.7623040410964
 30
0.0
 10
317.8822710614036
 20
277.6514943489743
 30
0.0
 10
287.5150788599314
 20
274.9223762560049
 30
0.0
 10
252.542242529702
 20
274.804368138299
 30
0.0
 10
252.1659420302148
 20
274.8030395105453
 30
0.0
 10
251.8115082262748
 20
274.6443941852963
 30
0.0
 10
251.5862970997174
 20
274.3873269775265
 30
0.0
 10
251.5650075927696
 20
274.3872594790039
 30
0.0
 10
251.41118144038
 20
274.1608980379123
 30
0.0
 10
251.3899561692237
 20
274.1608401800556
 30
0.0
 10
251.3402845332226
 20
274.160704780401
 30
0.0
 10
251.0087557258476
 20
273.6513561505587
 30
0.0
 10
250.9776176481138
 20
273.6139908693638
 30
0.0
 10
250.9776175602363
 20
273.6139907639122
 30
0.0
 10
250.9776166563846
 20
273.6139892646587
 30
0.0
 10
250.9776165685071
 20
273.613989159207
 30
0.0
 10
250.9509398457474
 20
273.5715020381891
 30
0.0
 10
250.9234368410438
 20
273.5302451338588
 30
0.0
 10
250.8937668160352
 20
273.4915342701624
 30
0.0
 10
250.751985743903
 20
273.3065506796049
 30
0.0
 10
250.4589972368677
 20
273.0567376031679
 30
0.0
 10
250.2457657753507
 20
273.0317538445571
 30
0.0
 10
250.2457653802875
 20
273.0317537982684
 30
0.0
 10
250.2457648268547
 20
273.0317534776967
 30
0.0
 10
250.2457644317912
 20
273.0317534314087
 30
0.0
 10
249.9957829832451
 20
272.9506643564739
 30
0.0
 10
249.7131101617197
 20
272.9798261765436
 30
0.0
 10
249.4775885684626
 20
273.1192393050942
 30
0.0
 10
249.3700372761246
 20
273.1823275252115
 30
0.0
 10
249.2721416483824
 20
273.2684364686142
 30
0.0
 10
249.1915662472173
 20
273.3775661750312
 30
0.0
 10
249.1915654948242
 20
273.3775665614386
 30
0.0
 10
249.1915595340863
 20
273.3775758463925
 30
0.0
 10
249.191558781698
 20
273.377576232812
 30
0.0
 10
249.1646133916471
 20
273.3914151287897
 30
0.0
 10
248.9495382087152
 20
273.7396339485998
 30
0.0
 10
248.9325310003746
 20
273.7690884463199
 30
0.0
 10
248.9325310003746
 20
273.7690884463199
 30
0.0
 10
248.9325299585226
 20
273.7690902506813
 30
0.0
 10
248.9325299585226
 20
273.7690902506813
 30
0.0
 10
248.9325299585226
 20
273.7690902506813
 30
0.0
 10
248.6475985193729
 20
274.2569477401846
 30
0.0
 10
248.6475985193729
 20
274.2569477401846
 30
0.0
 10
248.6117946158167
 20
274.3181272552239
 30
0.0
 10
248.5401701967029
 20
274.4194358298271
 30
0.0
 10
248.4925550390593
 20
274.4699580531874
 30
0.0
 10
248.3006536429491
 20
274.6735756757519
 30
0.0
 10
248.0354027819003
 20
274.8024943520481
 30
0.0
 10
247.7470470072666
 20
274.8034097851804
 30
0.0
 10
212.8274078720093
 20
274.9109974888547
 30
0.0
 10
182.3811136482296
 20
277.6551269486237
 30
0.0
 10
148.8211414360734
 20
281.7668818885023
 30
0.0
 10
144.7386264233909
 20
282.2616618197788
 30
0.0
 10
140.9667095099778
 20
282.7441967184189
 30
0.0
 10
137.2947499023968
 20
283.2125804650885
 30
0.0
 10
125.5098868569841
 20
284.711170437599
 30
0.0
 10
114.7193311317424
 20
285.8234598946445
 30
0.0
 10
97.48839335294038
 20
286.7764801095786
 30
0.0
 10
92.84294107667433
 20
287.0429123009728
 30
0.0
 10
87.81517006627888
 20
287.2635157485298
 30
0.0
 10
82.56090673188859
 20
287.4157246781679
 30
0.0
 10
64.72647195127088
 20
287.9182741286522
 30
0.0
 10
44.36090297012138
 20
287.32385052283
 30
0.0
 10
34.24988450786524
 20
283.6194004128548
 30
0.0
  0
SPLINE
  5
88
330
83
100
AcDbEntity
  8
Layer 1
 62
   250
420
  2565413
370
     9
100
AcDbSpline
210
0.0
220
0.0
230
1.0
 70
     8
 71
     3
 72
     8
 73
     4
 74
     0
 42
0.0000000001
 43
0.0000000001
 40
0.0
 40
0.0
 40
0.0
 40
0.0
 40
1.0
 40
1.0
 40
1.0
 40
1.0
 10
59.77910672971366
 20
256.1497135874151
 30
0.0
 10
64.85167036863035
 20
255.5454758250527
 30
0.0
 10
73.385256308192
 20
254.7260789015128
 30
0.0
 10
78.55292465415931
 20
254.1109050283177
 30
0.0
  0
SPLINE
  5
89
330
83
100
AcDbEntity
  8
Layer 1
 62
   250
420
  2565413
370
     9
100
AcDbSpline
210
0.0
220
0.0
230
1.0
 70
     8
 71
     3
 72
     8
 73
     4
 74
     0
 42
0.0000000001
 43
0.0000000001
 40
0.0
 40
0.0
 40
0.0
 40
0.0
 40
1.0
 40
1.0
 40
1.0
 40
1.0
 10
89.89569441222705
 20
252.9245839474724
 30
0.0
 10
113.060012096615
 20
250.2131340166473
 30
0.0
 10
156.04930550028
 20
246.9324360040621
 30
0.0
 10
187.0790836684625
 20
245.0910124862258
 30
0.0
  0
SPLINE
  5
8A
330
83
100
AcDbEntity
  8
Layer 1
 62
   250
420
  2565413
370
     9
100
AcDbSpline
210
0.0
220
0.0
230
1.0
 70
     8
 71
     3
 72
    11
 73
     7
 74
     0
 42
0.0000000001
 43
0.0000000001
 40
0.0
 40
0.0
 40
0.0
 40
0.0
 40
1.0
 40
1.0
 40
1.0
 40
2.0
 40
2.0
 40
2.0
 40
2.0
 10
196.6975453313821
 20
244.5778560641325
 30
0.0
 10
218.5531575491599
 20
243.4312989174575
 30
0.0
 10
221.979467585179
 20
242.8946180922471
 30
0.0
 10
250.0088393817295
 20
242.8946180922471
 30
0.0
 10
278.0356826745073
 20
242.8946180922471
 30
0.0
 10
281.4626173708319
 20
243.4117903069295
 30
0.0
 10
303.3162591807589
 20
244.5579299999148
 30
0.0
  0
SPLINE
  5
8B
330
83
100
AcDbEntity
  8
Layer 1
 62
   250
420
  2565413
370
     9
100
AcDbSpline
210
0.0
220
0.0
230
1.0
 70
     8
 71
     3
 72
     8
 73
     4
 74
     0
 42
0.0000000001
 43
0.0000000001
 40
0.0
 40
0.0
 40
0.0
 40
0.0
 40
1.0
 40
1.0
 40
1.0
 40
1.0
 10
312.9338803063592
 20
245.0709159127541
 30
0.0
 10
343.960816514441
 20
246.911704430612
 30
0.0
 10
386.9464948777567
 20
250.1911853599039
 30
0.0
 10
410.1087203050887
 20
252.9016886703908
 30
0.0
  0
SPLINE
  5
8C
330
83
100
AcDbEntity
  8
Layer 1
 62
   250
420
  2565413
370
     9
100
AcDbSpline
210
0.0
220
0.0
230
1.0
 70
     8
 71
     3
 72
     8
 73
     4
 74
     0
 42
0.0000000001
 43
0.0000000001
 40
0.0
 40
0.0
 40
0.0
 40
0.0
 40
1.0
 40
1.0
 40
1.0
 40
1.0
 10
421.4505613547996
 20
254.0875864179163
 30
0.0
 10
426.6177712294824
 20
254.7025427448224
 30
0.0
 10
435.1505460117628
 20
255.5216633257789
 30
0.0
 10
440.2226511769929
 20
256.1256776622229
 30
0.0
  0
ENDBLK
  5
86
330
83
100
AcDbEntity
  8
0
100
AcDbBlockEnd
  0
BLOCK
  5
8F
330
8D
100
AcDbEntity
  8
0
100
AcDbBlockBegin
  2
Block_2
 70
     0
 10
0.0
 20
0.0
 30
0.0
  3
Block_2
  1

  0
SPLINE
  5
91
330
8D
100
AcDbEntity
  8
Layer 1
 62
   250
420
  2565413
370
     9
100
AcDbSpline
210
0.0
220
0.0
230
1.0
 70
     9
 71
     3
 72
   128
 73
   124
 74
     0
 42
0.0000000001
 43
0.0000000001
 40
0.0
 40
0.0
 40
0.0
 40
0.0
 40
1.0
 40
1.0
 40
1.0
 40
2.0
 40
2.0
 40
2.0
 40
3.0
 40
3.0
 40
3.0
 40
4.0
 40
4.0
 40
4.0
 40
5.0
 40
5.0
 40
5.0
 40
6.0
 40
6.0
 40
6.0
 40
7.0
 40
7.0
 40
7.0
 40
8.0
 40
8.0
 40
8.0
 40
9.0
 40
9.0
 40
9.0
 40
10.0
 40
10.0
 40
10.0
 40
11.0
 40
11.0
 40
11.0
 40
12.0
 40
12.0
 40
12.0
 40
13.0
 40
13.0
 40
13.0
 40
14.0
 40
14.0
 40
14.0
 40
15.0
 40
15.0
 40
15.0
 40
16.0
 40
16.0
 40
16.0
 40
17.0
 40
17.0
 40
17.0
 40
18.0
 40
18.0
 40
18.0
 40
19.0
 40
19.0
 40
19.0
 40
20.0
 40
20.0
 40
20.0
 40
21.0
 40
21.0
 40
21.0
 40
22.0
 40
22.0
 40
22.0
 40
23.0
 40
23.0
 40
23.0
 40
24.0
 40
24.0
 40
24.0
 40
25.0
 40
25.0
 40
25.0
 40
26.0
 40
26.0
 40
26.0
 40
27.0
 40
27.0
 40
27.0
 40
28.0
 40
28.0
 40
28.0
 40
29.0
 40
29.0
 40
29.0
 40
30.0
 40
30.0
 40
30.0
 40
31.0
 40
31.0
 40
31.0
 40
32.0
 40
32.0
 40
32.0
 40
33.0
 40
33.0
 40
33.0
 40
34.0
 40
34.0
 40
34.0
 40
35.0
 40
35.0
 40
35.0
 40
36.0
 40
36.0
 40
36.0
 40
37.0
 40
37.0
 40
37.0
 40
38.0
 40
38.0
 40
38.0
 40
39.0
 40
39.0
 40
39.0
 40
40.0
 40
40.0
 40
40.0
 40
41.0
 40
41.0
 40
41.0
 40
41.0
 10
24.28801898616995
 20
128.0814899986696
 30
0.0
 10
24.07065770363923
 20
128.0017104651606
 30
0.0
 10
23.9491958751499
 20
127.7717788013397
 30
0.0
 10
23.9975771105305
 20
127.5472885389742
 30
0.0
 10
27.26450311488383
 20
112.3774263930608
 30
0.0
 10
28.42378961898281
 20
108.676319462047
 30
0.0
 10
49.50676827222345
 20
105.2353045654626
 30
0.0
 10
49.72040081010164
 20
105.2004518992016
 30
0.0
 10
49.88290859215936
 20
105.0249620289358
 30
0.0
 10
49.89721591199736
 20
104.8110324410865
 30
0.0
 10
50.27649473901441
 20
99.17304815935192
 30
0.0
 10
47.71250745224261
 20
55.0718844915898
 30
0.0
 10
47.68406528188203
 20
43.86497858310958
 30
0.0
 10
47.68337815211989
 20
43.60194136387281
 30
0.0
 10
47.90024224175836
 20
43.39473311458861
 30
0.0
 10
48.16566016423247
 20
43.40531623449876
 30
0.0
 10
58.74662034521636
 20
43.82426250833815
 30
0.0
 10
106.7247491114351
 20
47.40887797050649
 30
0.0
 10
140.3515111778668
 20
46.89560178184205
 30
0.0
 10
146.1735301112641
 20
46.79320034098722
 30
0.0
 10
151.8163385069237
 20
46.64464045091887
 30
0.0
 10
157.2263705712196
 20
46.43455169052695
 30
0.0
 10
197.9625552351792
 20
44.82308576520153
 30
0.0
 10
211.379325815256
 20
44.602887596709
 30
0.0
 10
250.004837729427
 20
44.602887596709
 30
0.0
 10
288.6107439525255
 20
44.602887596709
 30
0.0
 10
302.017328546004
 20
44.81862456550653
 30
0.0
 10
342.7206061874758
 20
46.4276685198678
 30
0.0
 10
348.183651604434
 20
46.63963448556651
 30
0.0
 10
353.8839738165271
 20
46.78882256708598
 30
0.0
 10
359.7662551617795
 20
46.89110233684323
 30
0.0
 10
393.36537714249
 20
47.39681911706417
 30
0.0
 10
441.2728448311983
 20
43.81913149391645
 30
0.0
 10
451.8430972197684
 20
43.4006687748729
 30
0.0
 10
452.1085152115293
 20
43.39008693985404
 30
0.0
 10
452.3253792929877
 20
43.59729660894422
 30
0.0
 10
452.3246910108493
 20
43.86033384316081
 30
0.0
 10
452.2962038376659
 20
55.06577147545768
 30
0.0
 10
449.732288629294
 20
99.16050958566211
 30
0.0
 10
450.1115528762435
 20
104.7979006180205
 30
0.0
 10
450.1258609838794
 20
105.0118323324918
 30
0.0
 10
450.288374900743
 20
105.1873178812971
 30
0.0
 10
450.5020103509241
 20
105.2221663364396
 30
0.0
 10
471.5846597383315
 20
108.6626912434486
 30
0.0
 10
472.7439980252053
 20
112.3631571281833
 30
0.0
 10
476.0108449910188
 20
127.5309036593738
 30
0.0
 10
476.0592344052185
 20
127.7554046851671
 30
0.0
 10
475.9377621762598
 20
127.9853492111262
 30
0.0
 10
475.7203857648043
 20
128.0651230750028
 30
0.0
 10
465.1456877734978
 20
131.9561707180463
 30
0.0
 10
443.251489445853
 20
132.379124794662
 30
0.0
 10
424.9419447012228
 20
131.7638425167933
 30
0.0
 10
419.5323215742475
 20
131.5760834095836
 30
0.0
 10
414.4360595842023
 20
131.3471674605911
 30
0.0
 10
409.7154721632833
 20
131.085053733974
 30
0.0
 10
392.1079262450195
 20
130.132107364216
 30
0.0
 10
380.7513933125452
 20
129.0661883814437
 30
0.0
 10
367.4383889299146
 20
127.3859332467347
 30
0.0
 10
363.8797604866372
 20
126.934723316284
 30
0.0
 10
360.153259698262
 20
126.4761233988356
 30
0.0
 10
356.1382538530753
 20
126.0122151817584
 30
0.0
 10
322.5884915497315
 20
122.0700391591712
 30
0.0
 10
288.071081522692
 20
119.3986859811175
 30
0.0
 10
252.8291611915905
 20
119.2700924794202
 30
0.0
 10
252.4372968238728
 20
119.268602106298
 30
0.0
 10
252.0633886020499
 20
119.141329336608
 30
0.0
 10
251.7933338493345
 20
118.9353905862483
 30
0.0
 10
251.7507548363898
 20
118.9352555892062
 30
0.0
 10
251.6021849044001
 20
118.7540912156316
 30
0.0
 10
251.5597343630367
 20
118.7539754999212
 30
0.0
 10
251.4603910932546
 20
118.7537047006177
 30
0.0
 10
251.1397778406839
 20
118.3195705122328
 30
0.0
 10
251.0775016866088
 20
118.2448399515137
 30
0.0
 10
251.0775015108539
 20
118.2448397406103
 30
0.0
 10
251.0775006823197
 20
118.2448384146656
 30
0.0
 10
251.0775005065654
 20
118.2448382037619
 30
0.0
 10
251.0488643184521
 20
118.2020947877119
 30
0.0
 10
251.020940807539
 20
118.1591589740392
 30
0.0
 10
250.990699986875
 20
118.1185958844121
 30
0.0
 10
250.8792557631005
 20
117.9691117785533
 30
0.0
 10
250.5404186353267
 20
117.5932700436715
 30
0.0
 10
250.3698334657318
 20
117.5732830367384
 30
0.0
 10
250.3698331496809
 20
117.5732829997079
 30
0.0
 10
250.3698325168918
 20
117.57328241411
 30
0.0
 10
250.369832200841
 20
117.5732823770795
 30
0.0
 10
250.1313523223415
 20
117.4417411304424
 30
0.0
 10
249.8381885618598
 20
117.4325113053555
 30
0.0
 10
249.5820715914555
 20
117.5432652931464
 30
0.0
 10
249.46453501554
 20
117.5940922433224
 30
0.0
 10
249.3544157886634
 20
117.6699809454207
 30
0.0
 10
249.2613001441287
 20
117.7720012516658
 30
0.0
 10
249.2612986393422
 20
117.7720020244806
 30
0.0
 10
249.2612929678829
 20
117.7720099161396
 30
0.0
 10
249.2612914631064
 20
117.7720106889782
 30
0.0
 10
249.2074006842091
 20
117.7996884803152
 30
0.0
 10
249.0068182040164
 20
118.1042395605567
 30
0.0
 10
248.972803788095
 20
118.1631485546804
 30
0.0
 10
248.972803788095
 20
118.1631485546804
 30
0.0
 10
248.9728017046522
 20
118.163152162956
 30
0.0
 10
248.9728017046522
 20
118.163152162956
 30
0.0
 10
248.9728017046522
 20
118.163152162956
 30
0.0
 10
248.6749807310562
 20
118.6744748077531
 30
0.0
 10
248.6749807310562
 20
118.6744748077531
 30
0.0
 10
248.6463376081475
 20
118.7234184198939
 30
0.0
 10
248.5554462698209
 20
118.8599766918862
 30
0.0
 10
248.5183630565284
 20
118.9013220932233
 30
0.0
 10
248.3220946239694
 20
119.1201487911667
 30
0.0
 10
248.0517968780556
 20
119.267094249456
 30
0.0
 10
247.7498666970924
 20
119.2680179827545
 30
0.0
 10
212.6010068953817
 20
119.3734648104856
 30
0.0
 10
177.9240660182588
 20
122.0532127262609
 30
0.0
 10
144.1945064453115
 20
125.9974059320075
 30
0.0
 10
139.8947526176293
 20
126.4915914241752
 30
0.0
 10
135.9210652380236
 20
126.9798248316463
 30
0.0
 10
132.1271180506544
 20
127.4595822137795
 30
0.0
 10
119.0314038984874
 20
129.1083770666177
 30
0.0
 10
107.7486830319362
 20
130.1571616313396
 30
0.0
 10
90.47155771539484
 20
131.0930872210001
 30
0.0
 10
85.63601730052502
 20
131.3618364018592
 30
0.0
 10
80.40814102313555
 20
131.595417485605
 30
0.0
 10
74.85138797529604
 20
131.7858329005554
 30
0.0
 10
56.60045501437765
 20
132.3899265263296
 30
0.0
 10
34.82282922006691
 20
131.9584675304529
 30
0.0
 10
24.28801898616995
 20
128.0814899986696
 30
0.0
  0
SPLINE
  5
92
330
8D
100
AcDbEntity
  8
Layer 1
 62
   250
420
  2565413
370
     9
100
AcDbSpline
210
0.0
220
0.0
230
1.0
 70
     8
 71
     3
 72
     8
 73
     4
 74
     0
 42
0.0000000001
 43
0.0000000001
 40
0.0
 40
0.0
 40
0.0
 40
0.0
 40
1.0
 40
1.0
 40
1.0
 40
1.0
 10
49.77530813642547
 20
100.6146385762052
 30
0.0
 10
54.94011462960997
 20
100.0104008138429
 30
0.0
 10
63.62888094348178
 20
99.19100389030299
 30
0.0
 10
68.89052159065051
 20
98.57583001710819
 30
0.0
  0
SPLINE
  5
93
330
8D
100
AcDbEntity
  8
Layer 1
 62
   250
420
  2565413
370
     9
100
AcDbSpline
210
0.0
220
0.0
230
1.0
 70
     8
 71
     3
 72
     8
 73
     4
 74
     0
 42
0.0000000001
 43
0.0000000001
 40
0.0
 40
0.0
 40
0.0
 40
0.0
 40
1.0
 40
1.0
 40
1.0
 40
1.0
 10
80.16338956385927
 20
97.38950893626297
 30
0.0
 10
103.7906339105602
 20
94.6780590054375
 30
0.0
 10
149.763487589128
 20
91.58422149456013
 30
0.0
 10
181.3575317792393
 20
89.74280385635323
 30
0.0
  0
SPLINE
  5
94
330
8D
100
AcDbEntity
  8
Layer 1
 62
   250
420
  2565413
370
     9
100
AcDbSpline
210
0.0
220
0.0
230
1.0
 70
     8
 71
     3
 72
    11
 73
     7
 74
     0
 42
0.0000000001
 43
0.0000000001
 40
0.0
 40
0.0
 40
0.0
 40
0.0
 40
1.0
 40
1.0
 40
1.0
 40
2.0
 40
2.0
 40
2.0
 40
2.0
 10
191.0633390019327
 20
89.22964155463047
 30
0.0
 10
213.3557240940351
 20
88.08309028758491
 30
0.0
 10
221.4645539440417
 20
87.35954308103696
 30
0.0
 10
250.00363038737
 20
87.35954308103696
 30
0.0
 10
278.5414831611883
 20
87.35954308103696
 30
0.0
 10
286.6514972639242
 20
88.06643917694097
 30
0.0
 10
308.9429270400831
 20
89.21268470325529
 30
0.0
  0
SPLINE
  5
95
330
8D
100
AcDbEntity
  8
Layer 1
 62
   250
420
  2565413
370
     9
100
AcDbSpline
210
0.0
220
0.0
230
1.0
 70
     8
 71
     3
 72
     8
 73
     4
 74
     0
 42
0.0000000001
 43
0.0000000001
 40
0.0
 40
0.0
 40
0.0
 40
0.0
 40
1.0
 40
1.0
 40
1.0
 40
1.0
 10
318.6483229392759
 20
89.7257176531299
 30
0.0
 10
350.2409686212129
 20
91.56667668024063
 30
0.0
 10
396.2124333933866
 20
94.65959696892333
 30
0.0
 10
419.838667285384
 20
97.37035310347417
 30
0.0
  0
SPLINE
  5
96
330
8D
100
AcDbEntity
  8
Layer 1
 62
   250
420
  2565413
370
     9
100
AcDbSpline
210
0.0
220
0.0
230
1.0
 70
     8
 71
     3
 72
     8
 73
     4
 74
     0
 42
0.0000000001
 43
0.0000000001
 40
0.0
 40
0.0
 40
0.0
 40
0.0
 40
1.0
 40
1.0
 40
1.0
 40
1.0
 10
431.1110745696686
 20
98.5563566843291
 30
0.0
 10
436.3724966349574
 20
99.17137768715829
 30
0.0
 10
445.0608469033696
 20
99.99057470329695
 30
0.0
 10
450.225434812228
 20
100.5946478360346
 30
0.0
  0
ENDBLK
  5
90
330
8D
100
AcDbEntity
  8
0
100
AcDbBlockEnd
  0
BLOCK
  5
99
330
97
100
AcDbEntity
  8
0
100
AcDbBlockBegin
  2
Block_3
 70
     0
 10
0.0
 20
0.0
 30
0.0
  3
Block_3
  1

  0
SPLINE
  5
9B
330
97
100
AcDbEntity
  8
Layer 1
 62
   250
420
  2565413
370
     9
100
AcDbSpline
210
0.0
220
0.0
230
1.0
 70
     9
 71
     3
 72
   128
 73
   124
 74
     0
 42
0.0000000001
 43
0.0000000001
 40
0.0
 40
0.0
 40
0.0
 40
0.0
 40
1.0
 40
1.0
 40
1.0
 40
2.0
 40
2.0
 40
2.0
 40
3.0
 40
3.0
 40
3.0
 40
4.0
 40
4.0
 40
4.0
 40
5.0
 40
5.0
 40
5.0
 40
6.0
 40
6.0
 40
6.0
 40
7.0
 40
7.0
 40
7.0
 40
8.0
 40
8.0
 40
8.0
 40
9.0
 40
9.0
 40
9.0
 40
10.0
 40
10.0
 40
10.0
 40
11.0
 40
11.0
 40
11.0
 40
12.0
 40
12.0
 40
12.0
 40
13.0
 40
13.0
 40
13.0
 40
14.0
 40
14.0
 40
14.0
 40
15.0
 40
15.0
 40
15.0
 40
16.0
 40
16.0
 40
16.0
 40
17.0
 40
17.0
 40
17.0
 40
18.0
 40
18.0
 40
18.0
 40
19.0
 40
19.0
 40
19.0
 40
20.0
 40
20.0
 40
20.0
 40
21.0
 40
21.0
 40
21.0
 40
22.0
 40
22.0
 40
22.0
 40
23.0
 40
23.0
 40
23.0
 40
24.0
 40
24.0
 40
24.0
 40
25.0
 40
25.0
 40
25.0
 40
26.0
 40
26.0
 40
26.0
 40
27.0
 40
27.0
 40
27.0
 40
28.0
 40
28.0
 40
28.0
 40
29.0
 40
29.0
 40
29.0
 40
30.0
 40
30.0
 40
30.0
 40
31.0
 40
31.0
 40
31.0
 40
32.0
 40
32.0
 40
32.0
 40
33.0
 40
33.0
 40
33.0
 40
34.0
 40
34.0
 40
34.0
 40
35.0
 40
35.0
 40
35.0
 40
36.0
 40
36.0
 40
36.0
 40
37.0
 40
37.0
 40
37.0
 40
38.0
 40
38.0
 40
38.0
 40
39.0
 40
39.0
 40
39.0
 40
40.0
 40
40.0
 40
40.0
 40
41.0
 40
41.0
 40
41.0
 40
41.0
 10
14.32615346447498
 20
-31.8419314079668
 30
0.0
 10
14.11790158980032
 20
-31.918656810895
 30
0.0
 10
14.00165599382136
 20
-32.13953544494889
 30
0.0
 10
14.04802257294239
 20
-32.35512086555162
 30
0.0
 10
17.31083505373381
 20
-47.53881581894057
 30
0.0
 10
18.46095402431913
 20
-51.24443948872372
 30
0.0
 10
39.51675776598956
 20
-54.6855180848845
 30
0.0
 10
39.72142136804118
 20
-54.71894876572197
 30
0.0
 10
39.87758767091722
 20
-54.88678207825103
 30
0.0
 10
39.89165169931816
 20
-55.09213908119346
 30
0.0
 10
40.27606713137786
 20
-60.66725015149072
 30
0.0
 10
37.71013487821456
 20
-104.8863457870027
 30
0.0
 10
37.68449928786627
 20
-116.0738067488079
 30
0.0
 10
37.68389822716885
 20
-116.3264937747457
 30
0.0
 10
37.89171110693763
 20
-116.525938993238
 30
0.0
 10
38.14614439568764
 20
-116.515914300709
 30
0.0
 10
48.98851541943033
 20
-116.092128614578
 30
0.0
 10
101.6288145747708
 20
-112.3522418472036
 30
0.0
 10
134.9106933224552
 20
-113.0115551856757
 30
0.0
 10
141.0409252817898
 20
-113.1483799070794
 30
0.0
 10
146.9522435631648
 20
-113.3142275856093
 30
0.0
 10
152.6217773413433
 20
-113.5210535934011
 30
0.0
 10
193.6978006063115
 20
-115.0512395852986
 30
0.0
 10
211.4200807174502
 20
-115.3176990751644
 30
0.0
 10
249.9993291176897
 20
-115.3176990751644
 30
0.0
 10
288.551029333056
 20
-115.3176990751644
 30
0.0
 10
306.2582883318893
 20
-115.0568275864439
 30
0.0
 10
347.287197496985
 20
-113.5300606003204
 30
0.0
 10
353.0108284314953
 20
-113.3215305919161
 30
0.0
 10
358.9807514684388
 20
-113.1547854905982
 30
0.0
 10
365.1732856135134
 20
-113.0174705273293
 30
0.0
 10
398.4354883386692
 20
-112.3637944385827
 30
0.0
 10
451.0249792608703
 20
-116.0986039796305
 30
0.0
 10
461.8596676546952
 20
-116.5220375879157
 30
0.0
 10
462.114101206039
 20
-116.532061276359
 30
0.0
 10
462.3219141711705
 20
-116.3326144780229
 30
0.0
 10
462.3213119438982
 20
-116.0799272323622
 30
0.0
 10
462.2956269500644
 20
-104.8932528062803
 30
0.0
 10
459.7296585132736
 20
-60.67758846002585
 30
0.0
 10
460.1140929010397
 20
-55.10280562433026
 30
0.0
 10
460.1281582062354
 20
-54.89744732211379
 30
0.0
 10
460.284328968975
 20
-54.72961772040804
 30
0.0
 10
460.4889945439424
 20
-54.69619041765142
 30
0.0
 10
481.5452458493307
 20
-51.25538720463418
 30
0.0
 10
482.6954313828537
 20
-47.55010009441326
 30
0.0
 10
485.958297178674
 20
-32.3675233240388
 30
0.0
 10
486.0046701119759
 20
-32.15192953017161
 30
0.0
 10
485.8884165290917
 20
-31.93104087910459
 30
0.0
 10
485.6801529132934
 20
-31.85431981270631
 30
0.0
 10
474.691246706776
 20
-27.79413289772583
 30
0.0
 10
451.4132314255037
 20
-27.53202262262951
 30
0.0
 10
432.7011906528625
 20
-28.24608418923778
 30
0.0
 10
427.0059380754575
 20
-28.46999217141156
 30
0.0
 10
421.7187661091328
 20
-28.71123288308104
 30
0.0
 10
416.8169743953068
 20
-28.9752449221974
 30
0.0
 10
399.1787949501576
 20
-29.90949423036965
 30
0.0
 10
387.3274327703412
 20
-30.90592386962381
 30
0.0
 10
372.7105243005929
 20
-32.73433062728072
 30
0.0
 10
369.0383542627491
 20
-33.19579690821342
 30
0.0
 10
365.1307590349137
 20
-33.65967741878077
 30
0.0
 10
360.9200842939724
 20
-34.12338467003027
 30
0.0
 10
327.2947120380595
 20
-37.89692702308236
 30
0.0
 10
288.6270841854526
 20
-40.51051528621992
 30
0.0
 10
253.116079853479
 20
-40.64969417190914
 30
0.0
 10
252.7086516175301
 20
-40.65134629040009
 30
0.0
 10
252.3152689778256
 20
-40.7472465045311
 30
0.0
 10
252.000370598951
 20
-40.90205679748108
 30
0.0
 10
251.9365020800106
 20
-40.90225929304192
 30
0.0
 10
251.7931883684202
 20
-41.03822659910043
 30
0.0
 10
251.7295125568497
 20
-41.03840017266438
 30
0.0
 10
251.5804976532868
 20
-41.03880637161671
 30
0.0
 10
251.2707999555201
 20
-41.39772611854389
 30
0.0
 10
251.1773857251032
 20
-41.50982195878731
 30
0.0
 10
251.1773854614708
 20
-41.50982227514206
 30
0.0
 10
251.1773847082547
 20
-41.50982342777855
 30
0.0
 10
251.1773844446236
 20
-41.50982374413426
 30
0.0
 10
251.1467887911562
 20
-41.55282345521601
 30
0.0
 10
251.1184597434013
 20
-41.59741811232406
 30
0.0
 10
251.0876331577156
 20
-41.63985349378855
 30
0.0
 10
251.005444609234
 20
-41.75299292617312
 30
0.0
 10
250.6218400337855
 20
-42.25570850827532
 30
0.0
 10
250.4939011561128
 20
-42.27069876353129
 30
0.0
 10
250.493900919075
 20
-42.27069879130435
 30
0.0
 10
250.4939002069289
 20
-42.27069964192808
 30
0.0
 10
250.4938999698911
 20
-42.27069966970081
 30
0.0
 10
250.2669216614373
 20
-42.45269308804026
 30
0.0
 10
249.9628567470348
 20
-42.50099125103226
 30
0.0
 10
249.6865546144486
 20
-42.41821971125275
 30
0.0
 10
249.5588462452287
 20
-42.37996224916169
 30
0.0
 10
249.4479986950256
 20
-42.29963840573806
 30
0.0
 10
249.3310340410399
 20
-42.21907466415045
 30
0.0
 10
249.3310319513306
 20
-42.21907322478581
 30
0.0
 10
249.3310264016799
 20
-42.21906700656426
 30
0.0
 10
249.3310241445154
 20
-42.21906584730607
 30
0.0
 10
249.2501879767713
 20
-42.17754916061038
 30
0.0
 10
249.0640981993172
 20
-41.91666581993712
 30
0.0
 10
249.013076575816
 20
-41.8283023294102
 30
0.0
 10
249.013076575816
 20
-41.8283023294102
 30
0.0
 10
249.0130734507821
 20
-41.82829691721975
 30
0.0
 10
249.0130734507821
 20
-41.82829691721975
 30
0.0
 10
249.0130734507821
 20
-41.82829691721975
 30
0.0
 10
248.702362942739
 20
-41.29350911712958
 30
0.0
 10
248.702362942739
 20
-41.29350911712958
 30
0.0
 10
248.6808806004773
 20
-41.2568014078872
 30
0.0
 10
248.57128317235
 20
-41.08444803942831
 30
0.0
 10
248.5441710739975
 20
-41.05282485919189
 30
0.0
 10
248.3432101170137
 20
-40.81842675099212
 30
0.0
 10
248.0681909742112
 20
-40.65381684558761
 30
0.0
 10
247.7526863869176
 20
-40.65288481212213
 30
0.0
 10
212.3746059187538
 20
-40.54957886033428
 30
0.0
 10
173.4670183882871
 20
-37.93421248855303
 30
0.0
 10
139.5678714545499
 20
-34.15758101693877
 30
0.0
 10
135.0508788118677
 20
-33.66398996387905
 30
0.0
 10
130.8754209660691
 20
-33.17005804757769
 30
0.0
 10
126.9594861989123
 20
-32.67892702998052
 30
0.0
 10
112.552920939991
 20
-30.8799272968147
 30
0.0
 10
100.77803493213
 20
-29.89464762441681
 30
0.0
 10
83.45472207784929
 20
-28.97581666002953
 30
0.0
 10
78.42909352437572
 20
-28.70475048970553
 30
0.0
 10
73.0011119799919
 20
-28.45819176977069
 30
0.0
 10
67.14186921870413
 20
-28.22956986950812
 30
0.0
 10
48.47443807748443
 20
-27.52393206844412
 30
0.0
 10
25.28475547001277
 20
-27.79242645437545
 30
0.0
 10
14.32615346447498
 20
-31.8419314079668
 30
0.0
  0
SPLINE
  5
9C
330
97
100
AcDbEntity
  8
Layer 1
 62
   250
420
  2565413
370
     9
100
AcDbSpline
210
0.0
220
0.0
230
1.0
 70
     8
 71
     3
 72
     8
 73
     4
 74
     0
 42
0.0000000001
 43
0.0000000001
 40
0.0
 40
0.0
 40
0.0
 40
0.0
 40
1.0
 40
1.0
 40
1.0
 40
1.0
 10
39.7715095431376
 20
-59.30594742745567
 30
0.0
 10
45.02855889058929
 20
-59.91018518981806
 30
0.0
 10
53.87250557877155
 20
-60.72958211335794
 30
0.0
 10
59.22811852714169
 20
-61.34475598655276
 30
0.0
  0
SPLINE
  5
9D
330
97
100
AcDbEntity
  8
Layer 1
 62
   250
420
  2565413
370
     9
100
AcDbSpline
210
0.0
220
0.0
230
1.0
 70
     8
 71
     3
 72
     8
 73
     4
 74
     0
 42
0.0000000001
 43
0.0000000001
 40
0.0
 40
0.0
 40
0.0
 40
0.0
 40
1.0
 40
1.0
 40
1.0
 40
1.0
 10
70.43108471549179
 20
-62.5310770673983
 30
0.0
 10
94.52125572450475
 20
-65.24252699822345
 30
0.0
 10
143.4776696779761
 20
-68.14950400739331
 30
0.0
 10
175.6359798900167
 20
-69.99091576597085
 30
0.0
  0
SPLINE
  5
9E
330
97
100
AcDbEntity
  8
Layer 1
 62
   250
420
  2565413
370
     9
100
AcDbSpline
210
0.0
220
0.0
230
1.0
 70
     8
 71
     3
 72
    11
 73
     7
 74
     0
 42
0.0000000001
 43
0.0000000001
 40
0.0
 40
0.0
 40
0.0
 40
0.0
 40
1.0
 40
1.0
 40
1.0
 40
2.0
 40
2.0
 40
2.0
 40
2.0
 10
185.4291326724839
 20
-70.50408394732297
 30
0.0
 10
208.1582906389103
 20
-71.65062933473913
 30
0.0
 10
220.9496403029046
 20
-72.56104292262367
 30
0.0
 10
249.9984213930111
 20
-72.56104292262367
 30
0.0
 10
279.0472836478693
 20
-72.56104292262367
 30
0.0
 10
291.8403771570173
 20
-71.66442294549835
 30
0.0
 10
314.5695948994078
 20
-70.518071585855
 30
0.0
  0
SPLINE
  5
9F
330
97
100
AcDbEntity
  8
Layer 1
 62
   250
420
  2565413
370
     9
100
AcDbSpline
210
0.0
220
0.0
230
1.0
 70
     8
 71
     3
 72
     8
 73
     4
 74
     0
 42
0.0000000001
 43
0.0000000001
 40
0.0
 40
0.0
 40
0.0
 40
0.0
 40
1.0
 40
1.0
 40
1.0
 40
1.0
 10
324.3627655721926
 20
-70.00499159894508
 30
0.0
 10
356.5211207279847
 20
-68.16386206258255
 30
0.0
 10
405.4783719090159
 20
-65.25750241450807
 30
0.0
 10
429.5686142656799
 20
-62.54649345589356
 30
0.0
  0
SPLINE
  5
A0
330
97
100
AcDbEntity
  8
Layer 1
 62
   250
420
  2565413
370
     9
100
AcDbSpline
210
0.0
220
0.0
230
1.0
 70
     8
 71
     3
 72
     8
 73
     4
 74
     0
 42
0.0000000001
 43
0.0000000001
 40
0.0
 40
0.0
 40
0.0
 40
0.0
 40
1.0
 40
1.0
 40
1.0
 40
1.0
 10
440.7715877845377
 20
-61.36038404170961
 30
0.0
 10
446.1272220404323
 20
-60.74529836295699
 30
0.0
 10
454.9711477949763
 20
-59.92602491163617
 30
0.0
 10
460.228218447463
 20
-59.32189298260442
 30
0.0
  0
ENDBLK
  5
9A
330
97
100
AcDbEntity
  8
0
100
AcDbBlockEnd
  0
BLOCK
  5
A3
330
A1
100
AcDbEntity
  8
0
100
AcDbBlockBegin
  2
Block_4
 70
     0
 10
0.0
 20
0.0
 30
0.0
  3
Block_4
  1

  0
SPLINE
  5
A5
330
A1
100
AcDbEntity
  8
Layer 1
 62
   250
420
  2565413
370
     9
100
AcDbSpline
210
0.0
220
0.0
230
1.0
 70
     9
 71
     3
 72
   128
 73
   124
 74
     0
 42
0.0000000001
 43
0.0000000001
 40
0.0
 40
0.0
 40
0.0
 40
0.0
 40
1.0
 40
1.0
 40
1.0
 40
2.0
 40
2.0
 40
2.0
 40
3.0
 40
3.0
 40
3.0
 40
4.0
 40
4.0
 40
4.0
 40
5.0
 40
5.0
 40
5.0
 40
6.0
 40
6.0
 40
6.0
 40
7.0
 40
7.0
 40
7.0
 40
8.0
 40
8.0
 40
8.0
 40
9.0
 40
9.0
 40
9.0
 40
10.0
 40
10.0
 40
10.0
 40
11.0
 40
11.0
 40
11.0
 40
12.0
 40
12.0
 40
12.0
 40
13.0
 40
13.0
 40
13.0
 40
14.0
 40
14.0
 40
14.0
 40
15.0
 40
15.0
 40
15.0
 40
16.0
 40
16.0
 40
16.0
 40
17.0
 40
17.0
 40
17.0
 40
18.0
 40
18.0
 40
18.0
 40
19.0
 40
19.0
 40
19.0
 40
20.0
 40
20.0
 40
20.0
 40
21.0
 40
21.0
 40
21.0
 40
22.0
 40
22.0
 40
22.0
 40
23.0
 40
23.0
 40
23.0
 40
24.0
 40
24.0
 40
24.0
 40
25.0
 40
25.0
 40
25.0
 40
26.0
 40
26.0
 40
26.0
 40
27.0
 40
27.0
 40
27.0
 40
28.0
 40
28.0
 40
28.0
 40
29.0
 40
29.0
 40
29.0
 40
30.0
 40
30.0
 40
30.0
 40
31.0
 40
31.0
 40
31.0
 40
32.0
 40
32.0
 40
32.0
 40
33.0
 40
33.0
 40
33.0
 40
34.0
 40
34.0
 40
34.0
 40
35.0
 40
35.0
 40
35.0
 40
36.0
 40
36.0
 40
36.0
 40
37.0
 40
37.0
 40
37.0
 40
38.0
 40
38.0
 40
38.0
 40
39.0
 40
39.0
 40
39.0
 40
40.0
 40
40.0
 40
40.0
 40
41.0
 40
41.0
 40
41.0
 40
41.0
 10
4.364287942780011
 20
-185.6261582884109
 30
0.0
 10
4.165145475961096
 20
-185.6998295607583
 30
0.0
 10
4.054116112493149
 20
-185.9116551650446
 30
0.0
 10
4.098468035354289
 20
-186.1183357438848
 30
0.0
 10
7.357166992583784
 20
-201.31586350475
 30
0.0
 10
8.498118429654818
 20
-205.0260039133021
 30
0.0
 10
29.52674725975504
 20
-208.4671462090393
 30
0.0
 10
29.72244192598073
 20
-208.4991549044533
 30
0.0
 10
29.8722667496754
 20
-208.6593316592456
 30
0.0
 10
29.88608748663896
 20
-208.8561160772815
 30
0.0
 10
30.27563952374131
 20
-214.3683539361414
 30
0.0
 10
27.7077623041865
 20
-258.705381539403
 30
0.0
 10
27.68493329385052
 20
-269.8733975545331
 30
0.0
 10
27.68441830221747
 20
-270.1157343871719
 30
0.0
 10
27.88317997211755
 20
-270.3074165748729
 30
0.0
 10
28.1266286271428
 20
-270.2979503097238
 30
0.0
 10
39.23041049364366
 20
-269.8693252113005
 30
0.0
 10
96.53288003810619
 20
-265.9741671387215
 30
0.0
 10
129.4698754670437
 20
-266.7795176270011
 30
0.0
 10
135.9083204523153
 20
-266.9507656289539
 30
0.0
 10
142.088148619406
 20
-267.1339010959453
 30
0.0
 10
148.0171841114672
 20
-267.3374643511356
 30
0.0
 10
189.4330459774435
 20
-268.7863704096064
 30
0.0
 10
211.4608356196446
 20
-269.0990912208455
 30
0.0
 10
249.993820505952
 20
-269.0990912208455
 30
0.0
 10
288.491314713587
 20
-269.0990912208455
 30
0.0
 10
310.4992481177745
 20
-268.7930852122028
 30
0.0
 10
351.8537888064936
 20
-267.348595194317
 30
0.0
 10
357.8380052585566
 20
-267.1435011432058
 30
0.0
 10
364.0775291203498
 20
-266.95919902209
 30
0.0
 10
370.5803160652461
 20
-266.7868488653089
 30
0.0
 10
403.5055995348492
 20
-265.9852134680379
 30
0.0
 10
460.7771136905416
 20
-269.8771449269866
 30
0.0
 10
471.8762380896214
 20
-270.3055494245127
 30
0.0
 10
472.1196872005489
 20
-270.3150149663797
 30
0.0
 10
472.3184490493533
 20
-270.1233310387984
 30
0.0
 10
472.3179328769465
 20
-269.880993781693
 30
0.0
 10
472.2950500624627
 20
-258.7130825618266
 30
0.0
 10
469.7270283972524
 20
-214.3764919795212
 30
0.0
 10
470.116632925836
 20
-208.8643173404888
 30
0.0
 10
470.1304554285914
 20
-208.6675324505272
 30
0.0
 10
470.2802830372069
 20
-208.5073587959209
 30
0.0
 10
470.4759787369608
 20
-208.4753526455498
 30
0.0
 10
491.5058319603299
 20
-205.0342711265243
 30
0.0
 10
492.6468647405027
 20
-201.3241627908179
 30
0.0
 10
495.9057493663284
 20
-186.1267557812588
 30
0.0
 10
495.9501058187332
 20
-185.920069219318
 30
0.0
 10
495.839070881923
 20
-185.7082364431431
 30
0.0
 10
495.6399200617824
 20
-185.6345681742228
 30
0.0
 10
484.2368056400555
 20
-181.4052419873054
 30
0.0
 10
459.574973405153
 20
-181.3039755137284
 30
0.0
 10
440.4604366045021
 20
-182.1168163690763
 30
0.0
 10
434.4795545766675
 20
-182.3768732262144
 30
0.0
 10
429.0014726340633
 20
-182.6304387005605
 30
0.0
 10
423.918476627331
 20
-182.8963490521772
 30
0.0
 10
406.2496636552963
 20
-183.8119012987636
 30
0.0
 10
393.9034722281365
 20
-184.7388415944987
 30
0.0
 10
377.9826596712725
 20
-186.7153999751039
 30
0.0
 10
374.1969480388616
 20
-187.1871226065186
 30
0.0
 10
370.1082583715661
 20
-187.6562837102042
 30
0.0
 10
365.7019147348689
 20
-188.1197899956267
 30
0.0
 10
332.0009325263874
 20
-191.7246986791442
 30
0.0
 10
289.1830868482132
 20
-194.2805220273657
 30
0.0
 10
253.4029985153675
 20
-194.4302862970468
 30
0.0
 10
252.9800064111874
 20
-194.4321001609062
 30
0.0
 10
252.578030167983
 20
-194.5473666768702
 30
0.0
 10
252.2074073485681
 20
-194.6003096550178
 30
0.0
 10
252.1231046812391
 20
-194.612352179224
 30
0.0
 10
251.9841918324403
 20
-194.6913498876396
 30
0.0
 10
251.8992907506627
 20
-194.691581319058
 30
0.0
 10
251.7006042133188
 20
-194.6921229176591
 30
0.0
 10
251.4018220703564
 20
-194.9758282231286
 30
0.0
 10
251.2772697635976
 20
-195.125289342896
 30
0.0
 10
251.2772694120884
 20
-195.1252897647027
 30
0.0
 10
251.2772687341898
 20
-195.1252907440305
 30
0.0
 10
251.2772683826818
 20
-195.1252911658382
 30
0.0
 10
251.2447132638603
 20
-195.168547171952
 30
0.0
 10
251.2159918908656
 20
-195.2147824964826
 30
0.0
 10
251.1845663285561
 20
-195.2591083457976
 30
0.0
 10
251.1306472519137
 20
-195.3351613641308
 30
0.0
 10
250.7032614322443
 20
-195.9654925340305
 30
0.0
 10
250.6179688464939
 20
-195.9754860376087
 30
0.0
 10
250.6179686884684
 20
-195.9754860561243
 30
0.0
 10
250.617967896966
 20
-195.9754871717739
 30
0.0
 10
250.6179677389412
 20
-195.9754871902888
 30
0.0
 10
250.4024910005338
 20
-196.2079327803306
 30
0.0
 10
250.0874763149739
 20
-196.295514694284
 30
0.0
 10
249.7910376374417
 20
-196.2405101894596
 30
0.0
 10
249.6531349008792
 20
-196.2149221933124
 30
0.0
 10
249.5257765265012
 20
-196.1487524719157
 30
0.0
 10
249.4007679379514
 20
-196.0709560537747
 30
0.0
 10
249.4007650655028
 20
-196.070954266168
 30
0.0
 10
249.4007598354769
 20
-196.0709494030759
 30
0.0
 10
249.4007568259238
 20
-196.0709478573981
 30
0.0
 10
249.2929752693335
 20
-196.0155922753433
 30
0.0
 10
249.1213781946181
 20
-195.798376674239
 30
0.0
 10
249.0533493635364
 20
-195.6805586873085
 30
0.0
 10
249.0533493635364
 20
-195.6805586873085
 30
0.0
 10
249.053345196912
 20
-195.6805514712038
 30
0.0
 10
249.053345196912
 20
-195.6805514712038
 30
0.0
 10
249.053345196912
 20
-195.6805514712038
 30
0.0
 10
248.7297451544219
 20
-195.1222985158199
 30
0.0
 10
248.7297451544219
 20
-195.1222985158199
 30
0.0
 10
248.7154235928078
 20
-195.097826709476
 30
0.0
 10
248.5876226050248
 20
-194.8892215894727
 30
0.0
 10
248.5699790914666
 20
-194.8677772854148
 30
0.0
 10
248.3640517956619
 20
-194.617488841989
 30
0.0
 10
248.0845850703668
 20
-194.4355334144389
 30
0.0
 10
247.7555060767434
 20
-194.4345930808068
 30
0.0
 10
212.1482049421262
 20
-194.3334280049622
 30
0.0
 10
169.0099707583159
 20
-191.7824431771749
 30
0.0
 10
134.9412364637883
 20
-188.1733734396924
 30
0.0
 10
130.2070050061056
 20
-187.6803768257414
 30
0.0
 10
125.8297766941149
 20
-187.1807464006094
 30
0.0
 10
121.7918543471699
 20
-186.6782417475483
 30
0.0
 10
106.0744379814947
 20
-184.7290371340548
 30
0.0
 10
93.8073868323238
 20
-183.8072623539809
 30
0.0
 10
76.43788644030376
 20
-182.9055260148669
 30
0.0
 10
71.22216974822674
 20
-182.6321428550776
 30
0.0
 10
65.59408293684858
 20
-182.3726064989544
 30
0.0
 10
59.43235046211221
 20
-182.1057781133793
 30
0.0
 10
40.34842114059151
 20
-181.2985961370256
 30
0.0
 10
15.7466817199583
 20
-181.4041259130111
 30
0.0
 10
4.364287942780011
 20
-185.6261582884109
 30
0.0
  0
SPLINE
  5
A6
330
A1
100
AcDbEntity
  8
Layer 1
 62
   250
420
  2565413
370
     9
100
AcDbSpline
210
0.0
220
0.0
230
1.0
 70
     8
 71
     3
 72
     8
 73
     4
 74
     0
 42
0.0000000001
 43
0.0000000001
 40
0.0
 40
0.0
 40
0.0
 40
0.0
 40
1.0
 40
1.0
 40
1.0
 40
1.0
 10
29.76771094985006
 20
-213.0873389049243
 30
0.0
 10
35.11700315156861
 20
-213.6915766672867
 30
0.0
 10
44.11613021406165
 20
-214.5109735908266
 30
0.0
 10
49.56571546363289
 20
-215.1261474640211
 30
0.0
  0
SPLINE
  5
A7
330
A1
100
AcDbEntity
  8
Layer 1
 62
   250
420
  2565413
370
     9
100
AcDbSpline
210
0.0
220
0.0
230
1.0
 70
     8
 71
     3
 72
     8
 73
     4
 74
     0
 42
0.0000000001
 43
0.0000000001
 40
0.0
 40
0.0
 40
0.0
 40
0.0
 40
1.0
 40
1.0
 40
1.0
 40
1.0
 10
60.69877986712431
 20
-216.3124685448666
 30
0.0
 10
85.25187753844994
 20
-219.0239184756918
 30
0.0
 10
137.1918517668242
 20
-221.7440349831544
 30
0.0
 10
169.9144280007938
 20
-223.5854408621023
 30
0.0
  0
SPLINE
  5
A8
330
A1
100
AcDbEntity
  8
Layer 1
 62
   250
420
  2565413
370
     9
100
AcDbSpline
210
0.0
220
0.0
230
1.0
 70
     8
 71
     3
 72
    11
 73
     7
 74
     0
 42
0.0000000001
 43
0.0000000001
 40
0.0
 40
0.0
 40
0.0
 40
0.0
 40
1.0
 40
1.0
 40
1.0
 40
2.0
 40
2.0
 40
2.0
 40
2.0
 10
179.7949263430345
 20
-224.0986149230841
 30
0.0
 10
202.9608571837856
 20
-225.2451544308706
 30
0.0
 10
220.4347266617673
 20
-226.342434400092
 30
0.0
 10
249.9932123986515
 20
-226.342434400092
 30
0.0
 10
279.5530841345503
 20
-226.342434400092
 30
0.0
 10
297.0292570501096
 20
-225.2560905417454
 30
0.0
 10
320.1962627587325
 20
-224.109633348773
 30
0.0
  0
SPLINE
  5
A9
330
A1
100
AcDbEntity
  8
Layer 1
 62
   250
420
  2565413
370
     9
100
AcDbSpline
210
0.0
220
0.0
230
1.0
 70
     8
 71
     3
 72
     8
 73
     4
 74
     0
 42
0.0000000001
 43
0.0000000001
 40
0.0
 40
0.0
 40
0.0
 40
0.0
 40
1.0
 40
1.0
 40
1.0
 40
1.0
 10
330.0772082051093
 20
-223.5965063248278
 30
0.0
 10
362.8012728347571
 20
-221.7552062792128
 30
0.0
 10
414.7443104246452
 20
-219.0354072717472
 30
0.0
 10
439.2985612459757
 20
-216.324145489069
 30
0.0
  0
SPLINE
  5
AA
330
A1
100
AcDbEntity
  8
Layer 1
 62
   250
420
  2565413
370
     9
100
AcDbSpline
210
0.0
220
0.0
230
1.0
 70
     8
 71
     3
 72
     8
 73
     4
 74
     0
 42
0.0000000001
 43
0.0000000001
 40
0.0
 40
0.0
 40
0.0
 40
0.0
 40
1.0
 40
1.0
 40
1.0
 40
1.0
 10
450.4321009994066
 20
-215.1379302415557
 30
0.0
 10
455.8819474459072
 20
-214.52277988688
 30
0.0
 10
464.881448686583
 20
-213.703430000377
 30
0.0
 10
470.2310020826981
 20
-213.0992392750515
 30
0.0
  0
ENDBLK
  5
A4
330
A1
100
AcDbEntity
  8
0
100
AcDbBlockEnd
  0
BLOCK
  5
AD
330
AB
100
AcDbEntity
  8
0
100
AcDbBlockBegin
  2
Block_5
 70
     0
 10
0.0
 20
0.0
 30
0.0
  3
Block_5
  1

  0
SPLINE
  5
AF
330
AB
100
AcDbEntity
  8
Layer 1
 62
   250
420
  2565413
370
     9
100
AcDbSpline
210
0.0
220
0.0
230
1.0
 70
     9
 71
     3
 72
   128
 73
   124
 74
     0
 42
0.0000000001
 43
0.0000000001
 40
0.0
 40
0.0
 40
0.0
 40
0.0
 40
1.0
 40
1.0
 40
1.0
 40
2.0
 40
2.0
 40
2.0
 40
3.0
 40
3.0
 40
3.0
 40
4.0
 40
4.0
 40
4.0
 40
5.0
 40
5.0
 40
5.0
 40
6.0
 40
6.0
 40
6.0
 40
7.0
 40
7.0
 40
7.0
 40
8.0
 40
8.0
 40
8.0
 40
9.0
 40
9.0
 40
9.0
 40
10.0
 40
10.0
 40
10.0
 40
11.0
 40
11.0
 40
11.0
 40
12.0
 40
12.0
 40
12.0
 40
13.0
 40
13.0
 40
13.0
 40
14.0
 40
14.0
 40
14.0
 40
15.0
 40
15.0
 40
15.0
 40
16.0
 40
16.0
 40
16.0
 40
17.0
 40
17.0
 40
17.0
 40
18.0
 40
18.0
 40
18.0
 40
19.0
 40
19.0
 40
19.0
 40
20.0
 40
20.0
 40
20.0
 40
21.0
 40
21.0
 40
21.0
 40
22.0
 40
22.0
 40
22.0
 40
23.0
 40
23.0
 40
23.0
 40
24.0
 40
24.0
 40
24.0
 40
25.0
 40
25.0
 40
25.0
 40
26.0
 40
26.0
 40
26.0
 40
27.0
 40
27.0
 40
27.0
 40
28.0
 40
28.0
 40
28.0
 40
29.0
 40
29.0
 40
29.0
 40
30.0
 40
30.0
 40
30.0
 40
31.0
 40
31.0
 40
31.0
 40
32.0
 40
32.0
 40
32.0
 40
33.0
 40
33.0
 40
33.0
 40
34.0
 40
34.0
 40
34.0
 40
35.0
 40
35.0
 40
35.0
 40
36.0
 40
36.0
 40
36.0
 40
37.0
 40
37.0
 40
37.0
 40
38.0
 40
38.0
 40
38.0
 40
39.0
 40
39.0
 40
39.0
 40
40.0
 40
40.0
 40
40.0
 40
41.0
 40
41.0
 40
41.0
 40
41.0
 10
-5.597577578914958
 20
-347.3071512422659
 30
0.0
 10
-5.787610637877812
 20
-347.3777683840333
 30
0.0
 10
-5.893423768835065
 20
-347.5805409585519
 30
0.0
 10
-5.851086502233171
 20
-347.7783166956291
 30
0.0
 10
-2.596501068566882
 20
-362.9896772639704
 30
0.0
 10
-1.464717165009178
 20
-366.7043344112912
 30
0.0
 10
19.53673675352115
 20
-370.1455404066048
 30
0.0
 10
19.72346248392027
 20
-370.1761271165953
 30
0.0
 10
19.86694582843326
 20
-370.3286473136505
 30
0.0
 10
19.88052327395976
 20
-370.5168591467805
 30
0.0
 10
20.27521191610476
 20
-375.9662237942027
 30
0.0
 10
17.70538973015812
 20
-420.4211833652135
 30
0.0
 10
17.68536729983476
 20
-431.5697544336686
 30
0.0
 10
17.68493837726611
 20
-431.8017410730084
 30
0.0
 10
17.87464883729649
 20
-431.9856602299181
 30
0.0
 10
18.10711285859764
 20
-431.9767523921508
 30
0.0
 10
29.47230556785763
 20
-431.5432878814347
 30
0.0
 10
91.43694550144159
 20
-427.4928585036509
 30
0.0
 10
124.0290576116318
 20
-428.4442461417369
 30
0.0
 10
130.775715622841
 20
-428.6499174242392
 30
0.0
 10
137.2240536756464
 20
-428.8503406796921
 30
0.0
 10
143.4125908815909
 20
-429.0506411822822
 30
0.0
 10
185.1682913485758
 20
-430.4182673073253
 30
0.0
 10
211.5015905218387
 20
-430.7772494399375
 30
0.0
 10
249.9883118942146
 20
-430.7772494399375
 30
0.0
 10
288.4316000941175
 20
-430.7772494399375
 30
0.0
 10
314.7402079036599
 20
-430.4261089113719
 30
0.0
 10
356.4203801160028
 20
-429.063895861724
 30
0.0
 10
362.6651820856172
 20
-428.8622377679064
 30
0.0
 10
369.1743067722615
 20
-428.6603786269922
 30
0.0
 10
375.9873465169794
 20
-428.4529932767001
 30
0.0
 10
408.5757107310291
 20
-427.5033985709041
 30
0.0
 10
470.5292481202129
 20
-431.5524519477522
 30
0.0
 10
481.8928085245484
 20
-431.9858273345198
 30
0.0
 10
482.125273195058
 20
-431.994734729812
 30
0.0
 10
482.3149839275362
 20
-431.8108136729842
 30
0.0
 10
482.3145538099949
 20
-431.5788264044353
 30
0.0
 10
482.294473174861
 20
-420.4296783907838
 30
0.0
 10
479.7243982812318
 20
-375.9721615724282
 30
0.0
 10
480.1191729506323
 20
-370.5225951300572
 30
0.0
 10
480.1327526509474
 20
-370.3343836523515
 30
0.0
 10
480.276237105439
 20
-370.1818659448453
 30
0.0
 10
480.4629629299792
 20
-370.1512809468598
 30
0.0
 10
501.4664180713291
 20
-366.7099211218258
 30
0.0
 10
502.5982980981517
 20
-362.9949915606334
 30
0.0
 10
505.8532015539835
 20
-347.7827543118904
 30
0.0
 10
505.8955415254906
 20
-347.5849749818755
 30
0.0
 10
505.789725234755
 20
-347.3821980805927
 30
0.0
 10
505.5996872102714
 20
-347.3115826091506
 30
0.0
 10
493.7823645733337
 20
-342.9131171502959
 30
0.0
 10
467.7367153848036
 20
-342.9726944782386
 30
0.0
 10
448.2196825561412
 20
-343.8843146223264
 30
0.0
 10
441.9531710778776
 20
-344.1805203544286
 30
0.0
 10
436.2841791589944
 20
-344.4464105914517
 30
0.0
 10
431.0199788593553
 20
-344.714219255568
 30
0.0
 10
413.320532360435
 20
-345.6110744405677
 30
0.0
 10
400.4795116859318
 20
-346.4685253927847
 30
0.0
 10
383.2547950419514
 20
-348.5932353963381
 30
0.0
 10
379.3555418149735
 20
-349.0752143782347
 30
0.0
 10
375.0857577082178
 20
-349.5496560750393
 30
0.0
 10
370.483745175766
 20
-350.0129613946344
 30
0.0
 10
336.7071530147153
 20
-353.4492364086165
 30
0.0
 10
289.7390895109738
 20
-355.9472948419225
 30
0.0
 10
253.689917177256
 20
-356.1076444955955
 30
0.0
 10
253.2513612048453
 20
-356.109620104823
 30
0.0
 10
252.8215357757885
 20
-356.1683516227216
 30
0.0
 10
252.4144440981852
 20
-356.1953285859656
 30
0.0
 10
252.3082289925631
 20
-356.2023671995208
 30
0.0
 10
252.1751952964604
 20
-356.2412392495904
 30
0.0
 10
252.0690689444757
 20
-356.2415285388626
 30
0.0
 10
251.8207107733516
 20
-356.2422055371123
 30
0.0
 10
251.5328441851928
 20
-356.4506964011244
 30
0.0
 10
251.3771538020927
 20
-356.637522800416
 30
0.0
 10
251.377153362706
 20
-356.6375233276744
 30
0.0
 10
251.3771527601255
 20
-356.6375241336934
 30
0.0
 10
251.3771523207401
 20
-356.6375246609531
 30
0.0
 10
251.342637736565
 20
-356.6810369620986
 30
0.0
 10
251.3135357319281
 20
-356.728896469265
 30
0.0
 10
251.2814994993965
 20
-356.775129271217
 30
0.0
 10
251.2549503532393
 20
-356.8134434336289
 30
0.0
 10
250.784682830703
 20
-357.5720426331961
 30
0.0
 10
250.7420365368749
 20
-357.5770393850972
 30
0.0
 10
250.7420364578619
 20
-357.5770393943543
 30
0.0
 10
250.7420355870031
 20
-357.5770407750308
 30
0.0
 10
250.7420355079907
 20
-357.5770407842886
 30
0.0
 10
250.5380603396295
 20
-357.859938546032
 30
0.0
 10
250.2120758403769
 20
-357.9874474306152
 30
0.0
 10
249.8955206604346
 20
-357.9595667410766
 30
0.0
 10
249.7474139707546
 20
-357.9469500067446
 30
0.0
 10
249.6043051683538
 20
-357.8951010898093
 30
0.0
 10
249.4705018348626
 20
-357.8196035168096
 30
0.0
 10
249.4704981516429
 20
-357.8196014385794
 30
0.0
 10
249.4704932692735
 20
-357.8195978729985
 30
0.0
 10
249.4704895073328
 20
-357.8195959409018
 30
0.0
 10
249.3357625618955
 20
-357.750401463488
 30
0.0
 10
249.1786581899192
 20
-357.5768536019519
 30
0.0
 10
249.0936221512571
 20
-357.4295811186178
 30
0.0
 10
249.0936221512571
 20
-357.4295811186178
 30
0.0
 10
249.0936169430416
 20
-357.4295720985983
 30
0.0
 10
249.0936169430416
 20
-357.4295720985983
 30
0.0
 10
249.0936169430416
 20
-357.4295720985983
 30
0.0
 10
248.7571273661048
 20
-356.847853987921
 30
0.0
 10
248.7571273661048
 20
-356.847853987921
 30
0.0
 10
248.7499665851376
 20
-356.8356180844755
 30
0.0
 10
248.6044099141011
 20
-356.5903785777282
 30
0.0
 10
248.5957871089354
 20
-356.5794957850488
 30
0.0
 10
248.3846624346628
 20
-356.3130365510245
 30
0.0
 10
248.1009791665225
 20
-356.1140160567009
 30
0.0
 10
247.7583257665686
 20
-356.1130674229023
 30
0.0
 10
211.9218039654982
 20
-356.0140432230012
 30
0.0
 10
164.5529231283448
 20
-353.5274399392072
 30
0.0
 10
130.3146014730263
 20
-350.085931935857
 30
0.0
 10
125.363131200344
 20
-349.5935297610147
 30
0.0
 10
120.7841324221604
 20
-349.0882008270519
 30
0.0
 10
116.6242224954275
 20
-348.5743225385271
 30
0.0
 10
99.59595502299801
 20
-346.4749130447059
 30
0.0
 10
86.83673873251759
 20
-345.6166431569557
 30
0.0
 10
69.42105080275789
 20
-344.7320014431156
 30
0.0
 10
64.01524597207743
 20
-344.4563012938614
 30
0.0
 10
58.18705389370494
 20
-344.1837873015484
 30
0.0
 10
51.72283170551965
 20
-343.8787524306617
 30
0.0
 10
32.2224042036983
 20
-342.9700262790181
 30
0.0
 10
6.20860796990383
 20
-342.9125914450585
 30
0.0
 10
-5.597577578914958
 20
-347.3071512422659
 30
0.0
  0
SPLINE
  5
B0
330
AB
100
AcDbEntity
  8
Layer 1
 62
   250
420
  2565413
370
     9
100
AcDbSpline
210
0.0
220
0.0
230
1.0
 70
     8
 71
     3
 72
     8
 73
     4
 74
     0
 42
0.0000000001
 43
0.0000000001
 40
0.0
 40
0.0
 40
0.0
 40
0.0
 40
1.0
 40
1.0
 40
1.0
 40
1.0
 10
19.76391235656187
 20
-374.7654964558043
 30
0.0
 10
25.20544741254793
 20
-375.3697342181667
 30
0.0
 10
34.35975484935144
 20
-376.1891311417065
 30
0.0
 10
39.90331240012409
 20
-376.8043050149011
 30
0.0
  0
SPLINE
  5
B1
330
AB
100
AcDbEntity
  8
Layer 1
 62
   250
420
  2565413
370
     9
100
AcDbSpline
210
0.0
220
0.0
230
1.0
 70
     8
 71
     3
 72
     8
 73
     4
 74
     0
 42
0.0000000001
 43
0.0000000001
 40
0.0
 40
0.0
 40
0.0
 40
0.0
 40
1.0
 40
1.0
 40
1.0
 40
1.0
 10
50.96647501875684
 20
-377.9906260957466
 30
0.0
 10
75.9824993523945
 20
-380.7020760265717
 30
0.0
 10
130.9060338556722
 20
-383.2353320323269
 30
0.0
 10
164.1928761115712
 20
-385.0767320316447
 30
0.0
  0
SPLINE
  5
B2
330
AB
100
AcDbEntity
  8
Layer 1
 62
   250
420
  2565413
370
     9
100
AcDbSpline
210
0.0
220
0.0
230
1.0
 70
     8
 71
     3
 72
    11
 73
     7
 74
     0
 42
0.0000000001
 43
0.0000000001
 40
0.0
 40
0.0
 40
0.0
 40
0.0
 40
1.0
 40
1.0
 40
1.0
 40
2.0
 40
2.0
 40
2.0
 40
2.0
 10
174.1607200135853
 20
-385.5899119722559
 30
0.0
 10
197.7634237286601
 20
-386.7364456004131
 30
0.0
 10
219.9198130206303
 20
-388.020591950972
 30
0.0
 10
249.9880034042923
 20
-388.020591950972
 30
0.0
 10
280.0588846212313
 20
-388.020591950972
 30
0.0
 10
302.2181369432026
 20
-386.7445242114034
 30
0.0
 10
325.8229306180565
 20
-385.5979611851023
 30
0.0
  0
SPLINE
  5
B3
330
AB
100
AcDbEntity
  8
Layer 1
 62
   250
420
  2565413
370
     9
100
AcDbSpline
210
0.0
220
0.0
230
1.0
 70
     8
 71
     3
 72
     8
 73
     4
 74
     0
 42
0.0000000001
 43
0.0000000001
 40
0.0
 40
0.0
 40
0.0
 40
0.0
 40
1.0
 40
1.0
 40
1.0
 40
1.0
 10
335.7916508380267
 20
-385.0847871241215
 30
0.0
 10
369.081424941529
 20
-383.2433165692544
 30
0.0
 10
424.0102489402738
 20
-380.7100782023973
 30
0.0
 10
449.0285082262716
 20
-377.9985635956551
 30
0.0
  0
SPLINE
  5
B4
330
AB
100
AcDbEntity
  8
Layer 1
 62
   250
420
  2565413
370
     9
100
AcDbSpline
210
0.0
220
0.0
230
1.0
 70
     8
 71
     3
 72
     8
 73
     4
 74
     0
 42
0.0000000001
 43
0.0000000001
 40
0.0
 40
0.0
 40
0.0
 40
0.0
 40
1.0
 40
1.0
 40
1.0
 40
1.0
 10
460.0926142142758
 20
-376.8122425148128
 30
0.0
 10
465.6366728513821
 20
-376.1970274842136
 30
0.0
 10
474.7917495781898
 20
-375.3776011625285
 30
0.0
 10
480.2337857179332
 20
-374.7733516409093
 30
0.0
  0
ENDBLK
  5
AE
330
AB
100
AcDbEntity
  8
0
100
AcDbBlockEnd
  0
BLOCK
  5
B7
330
B5
100
AcDbEntity
  8
0
100
AcDbBlockBegin
  2
Block_6
 70
     0
 10
0.0
 20
0.0
 30
0.0
  3
Block_6
  1

  0
SPLINE
  5
B9
330
B5
100
AcDbEntity
  8
Layer 1
 62
   250
420
  2565413
370
     9
100
AcDbSpline
210
0.0
220
0.0
230
1.0
 70
     9
 71
     3
 72
    89
 73
    85
 74
     0
 42
0.0000000001
 43
0.0000000001
 40
0.0
 40
0.0
 40
0.0
 40
0.0
 40
1.0
 40
1.0
 40
1.0
 40
2.0
 40
2.0
 40
2.0
 40
3.0
 40
3.0
 40
3.0
 40
4.0
 40
4.0
 40
4.0
 40
5.0
 40
5.0
 40
5.0
 40
6.0
 40
6.0
 40
6.0
 40
7.0
 40
7.0
 40
7.0
 40
8.0
 40
8.0
 40
8.0
 40
9.0
 40
9.0
 40
9.0
 40
10.0
 40
10.0
 40
10.0
 40
11.0
 40
11.0
 40
11.0
 40
12.0
 40
12.0
 40
12.0
 40
13.0
 40
13.0
 40
13.0
 40
14.0
 40
14.0
 40
14.0
 40
15.0
 40
15.0
 40
15.0
 40
16.0
 40
16.0
 40
16.0
 40
17.0
 40
17.0
 40
17.0
 40
18.0
 40
18.0
 40
18.0
 40
19.0
 40
19.0
 40
19.0
 40
20.0
 40
20.0
 40
20.0
 40
21.0
 40
21.0
 40
21.0
 40
22.0
 40
22.0
 40
22.0
 40
23.0
 40
23.0
 40
23.0
 40
24.0
 40
24.0
 40
24.0
 40
25.0
 40
25.0
 40
25.0
 40
26.0
 40
26.0
 40
26.0
 40
27.0
 40
27.0
 40
27.0
 40
28.0
 40
28.0
 40
28.0
 40
28.0
 10
515.8006541863239
 20
-516.4969298873014
 30
0.0
 10
515.8409776768434
 20
-516.3080577896115
 30
0.0
 10
515.7403800324154
 20
-516.1143367636253
 30
0.0
 10
515.5594548039969
 20
-516.0467740897985
 30
0.0
 10
503.3279239333322
 20
-511.479169351446
 30
0.0
 10
475.8984577293115
 20
-511.6995904880974
 30
0.0
 10
455.9789288546461
 20
-512.7099899253403
 30
0.0
 10
428.0932063410025
 20
-514.1244815360435
 30
0.0
 10
412.7462102917787
 20
-514.5583267168704
 30
0.0
 10
388.5269306483129
 20
-517.5292478722691
 30
0.0
 10
355.7453938026544
 20
-521.5504429239311
 30
0.0
 10
293.7275958275872
 20
-524.7365588339854
 30
0.0
 10
252.2388471458786
 20
-524.8496527987063
 30
0.0
 10
251.8826327310049
 20
-524.8506238017311
 30
0.0
 10
251.5565309628748
 20
-525.0408298252621
 30
0.0
 10
251.3784326745704
 20
-525.3493272351598
 30
0.0
 10
251.3784326745704
 20
-525.3493272351598
 30
0.0
 10
250.8661042328022
 20
-526.2367697749318
 30
0.0
 10
250.8661042328022
 20
-526.2367697749318
 30
0.0
 10
250.8661042328022
 20
-526.2367697749318
 30
0.0
 10
250.866103282587
 20
-526.2367714206337
 30
0.0
 10
250.866103282587
 20
-526.2367714206337
 30
0.0
 10
250.6736296847861
 20
-526.570121356335
 30
0.0
 10
250.3368172656173
 20
-526.7367979188329
 30
0.0
 10
250.0000036880983
 20
-526.7368003402938
 30
0.0
 10
249.6631888257355
 20
-526.7368027617638
 30
0.0
 10
249.3263728050148
 20
-526.5701297705687
 30
0.0
 10
249.1338949407781
 20
-526.2367805988659
 30
0.0
 10
249.1338949407781
 20
-526.2367805988659
 30
0.0
 10
249.1338886909717
 20
-526.2367697749318
 30
0.0
 10
249.1338886909717
 20
-526.2367697749318
 30
0.0
 10
249.1338886909717
 20
-526.2367697749318
 30
0.0
 10
248.6215951275583
 20
-525.3493913319537
 30
0.0
 10
248.6215951275583
 20
-525.3493913319537
 30
0.0
 10
248.443489608481
 20
-525.0408826769715
 30
0.0
 10
248.1173732634109
 20
-524.8506757447484
 30
0.0
 10
247.7611454565202
 20
-524.8497188107825
 30
0.0
 10
206.2776564042406
 20
-524.7382818063385
 30
0.0
 10
144.2429243834653
 20
-521.5504153231952
 30
0.0
 10
111.456590412674
 20
-517.5285803850189
 30
0.0
 10
87.24045441883692
 20
-514.5580468028622
 30
0.0
 10
71.89541776767068
 20
-514.1242231538821
 30
0.0
 10
44.0133126042853
 20
-512.7099037979531
 30
0.0
 10
24.09638690354374
 20
-511.6996334664809
 30
0.0
 10
-3.329466206535906
 20
-511.4792340152901
 30
0.0
 10
-15.55944354594008
 20
-516.0463212420189
 30
0.0
 10
-15.74036719663939
 20
-516.1138842530688
 30
0.0
 10
-15.84096409485301
 20
-516.3076037974149
 30
0.0
 10
-15.80064148460085
 20
-516.4964746923317
 30
0.0
 10
-12.55016957468064
 20
-531.7216680687672
 30
0.0
 10
-11.42755320504664
 20
-535.4408419550594
 30
0.0
 10
9.546725800698741
 20
-538.8821116499526
 30
0.0
 10
9.724482594870558
 20
-538.9112763744558
 30
0.0
 10
9.861624459918543
 20
-539.0561400134315
 30
0.0
 10
9.874958613997076
 20
-539.2357792612719
 30
0.0
 10
10.27478386141445
 20
-544.622270694446
 30
0.0
 10
7.703016708989038
 20
-589.1951622384781
 30
0.0
 10
7.685800858803748
 20
-600.3242883593893
 30
0.0
 10
7.685458005303655
 20
-600.5459248049675
 30
0.0
 10
7.866117255059767
 20
-600.7220809307381
 30
0.0
 10
8.087596642145271
 20
-600.7137315203763
 30
0.0
 10
19.71420020585004
 20
-600.2754275971524
 30
0.0
 10
86.34101073697094
 20
-596.0697269072219
 30
0.0
 10
118.5882395129965
 20
-597.1671517016435
 30
0.0
 10
171.7003076759877
 20
-598.9746856435202
 30
0.0
 10
205.6541783136581
 20
-599.5135847048004
 30
0.0
 10
249.9828032822309
 20
-599.5135847048004
 30
0.0
 10
294.3171557220479
 20
-599.5135847048004
 30
0.0
 10
328.275418856462
 20
-598.9850639936695
 30
0.0
 10
381.394377210426
 20
-597.177314733325
 30
0.0
 10
413.6458221538604
 20
-596.0797607123892
 30
0.0
 10
480.2813829858386
 20
-600.2859360141623
 30
0.0
 10
491.9093794072509
 20
-600.724282290393
 30
0.0
 10
492.1308596368519
 20
-600.7326315390845
 30
0.0
 10
492.3115192525989
 20
-600.556473353358
 30
0.0
 10
492.3111751899276
 20
-600.3348360738271
 30
0.0
 10
492.2938967342682
 20
-589.2044512672298
 30
0.0
 10
489.7217686121278
 20
-544.6260082074184
 30
0.0
 10
490.1217134225772
 20
-539.2390499645091
 30
0.0
 10
490.1350503204412
 20
-539.0594118994413
 30
0.0
 10
490.2721916205245
 20
-538.9145501393771
 30
0.0
 10
490.4499475694507
 20
-538.8853862938406
 30
0.0
 10
511.4270046276013
 20
-535.4437481627857
 30
0.0
 10
512.5497319006645
 20
-531.7239973758926
 30
0.0
 10
515.8006541863239
 20
-516.4969298873014
 30
0.0
  0
SPLINE
  5
BA
330
B5
100
AcDbEntity
  8
Layer 1
 62
   250
420
  2565413
370
     9
100
AcDbSpline
210
0.0
220
0.0
230
1.0
 70
     8
 71
     3
 72
     8
 73
     4
 74
     0
 42
0.0000000001
 43
0.0000000001
 40
0.0
 40
0.0
 40
0.0
 40
0.0
 40
1.0
 40
1.0
 40
1.0
 40
1.0
 10
9.760113316069446
 20
-543.5018310524545
 30
0.0
 10
15.29389123044656
 20
-544.1060688148168
 30
0.0
 10
24.6033790484973
 20
-544.9254657383566
 30
0.0
 10
30.24090890467193
 20
-545.5406396115512
 30
0.0
  0
SPLINE
  5
BB
330
B5
100
AcDbEntity
  8
Layer 1
 62
   250
420
  2565413
370
     9
100
AcDbSpline
210
0.0
220
0.0
230
1.0
 70
     8
 71
     3
 72
     8
 73
     4
 74
     0
 42
0.0000000001
 43
0.0000000001
 40
0.0
 40
0.0
 40
0.0
 40
0.0
 40
1.0
 40
1.0
 40
1.0
 40
1.0
 10
41.23416973532159
 20
-546.7269606923967
 30
0.0
 10
66.71312075196606
 20
-549.4384106232218
 30
0.0
 10
124.6202156635222
 20
-551.7848061189158
 30
0.0
 10
158.4713239665751
 20
-553.6262002386047
 30
0.0
  0
SPLINE
  5
BC
330
B5
100
AcDbEntity
  8
Layer 1
 62
   250
420
  2565413
370
     9
100
AcDbSpline
210
0.0
220
0.0
230
1.0
 70
     8
 71
     3
 72
    11
 73
     7
 74
     0
 42
0.0000000001
 43
0.0000000001
 40
0.0
 40
0.0
 40
0.0
 40
0.0
 40
1.0
 40
1.0
 40
1.0
 40
2.0
 40
2.0
 40
2.0
 40
2.0
 10
168.5265134322678
 20
-554.1393860588455
 30
0.0
 10
192.5659900411918
 20
-555.2859138073729
 30
0.0
 10
219.4048993564746
 20
-556.7569265476221
 30
0.0
 10
249.9827944097005
 20
-556.7569265476221
 30
0.0
 10
280.5646851305232
 20
-556.7569265476221
 30
0.0
 10
307.4070170682564
 20
-555.2911349183508
 30
0.0
 10
331.4495987289126
 20
-554.1444660587159
 30
0.0
  0
SPLINE
  5
BD
330
B5
100
AcDbEntity
  8
Layer 1
 62
   250
420
  2565413
370
     9
100
AcDbSpline
210
0.0
220
0.0
230
1.0
 70
     8
 71
     3
 72
     8
 73
     4
 74
     0
 42
0.0000000001
 43
0.0000000001
 40
0.0
 40
0.0
 40
0.0
 40
0.0
 40
1.0
 40
1.0
 40
1.0
 40
1.0
 10
341.5060937263987
 20
-553.6312449606981
 30
0.0
 10
375.361577329046
 20
-551.7896038965712
 30
0.0
 10
433.276187870123
 20
-549.4429261786621
 30
0.0
 10
458.7584556415298
 20
-546.7311587478451
 30
0.0
  0
SPLINE
  5
BE
330
B5
100
AcDbEntity
  8
Layer 1
 62
   250
420
  2565413
370
     9
100
AcDbSpline
210
0.0
220
0.0
230
1.0
 70
     8
 71
     3
 72
     8
 73
     4
 74
     0
 42
0.0000000001
 43
0.0000000001
 40
0.0
 40
0.0
 40
0.0
 40
0.0
 40
1.0
 40
1.0
 40
1.0
 40
1.0
 10
469.7531278610037
 20
-545.544731833669
 30
0.0
 10
475.3913986929275
 20
-544.9294521271439
 30
0.0
 10
484.7020509128216
 20
-544.1099493702734
 30
0.0
 10
490.2365698003272
 20
-543.5056410523571
 30
0.0
  0
ENDBLK
  5
B8
330
B5
100
AcDbEntity
  8
0
100
AcDbBlockEnd
  0
ENDSEC
  0
SECTION
  2
ENTITIES
  0
INSERT
  5
7A
330
70
100
AcDbEntity
  8
Layer 1
100
AcDbBlockReference
  2
Block_0
 10
0.0
 20
0.0
 30
0.0
  0
INSERT
  5
84
330
70
100
AcDbEntity
  8
Layer 1
100
AcDbBlockReference
  2
Block_1
 10
0.0
 20
0.0
 30
0.0
  0
INSERT
  5
8E
330
70
100
AcDbEntity
  8
Layer 1
100
AcDbBlockReference
  2
Block_2
 10
0.0
 20
0.0
 30
0.0
  0
INSERT
  5
98
330
70
100
AcDbEntity
  8
Layer 1
100
AcDbBlockReference
  2
Block_3
 10
0.0
 20
0.0
 30
0.0
  0
INSERT
  5
A2
330
70
100
AcDbEntity
  8
Layer 1
100
AcDbBlockReference
  2
Block_4
 10
0.0
 20
0.0
 30
0.0
  0
INSERT
  5
AC
330
70
100
AcDbEntity
  8
Layer 1
100
AcDbBlockReference
  2
Block_5
 10
0.0
 20
0.0
 30
0.0
  0
INSERT
  5
B6
330
70
100
AcDbEntity
  8
Layer 1
100
AcDbBlockReference
  2
Block_6
 10
0.0
 20
0.0
 30
0.0
  0
ENDSEC
  0
SECTION
  2
OBJECTS
  0
DICTIONARY
  5
C
330
0
100
AcDbDictionary
281
     1
  3
ACAD_COLOR
350
63
  3
ACAD_DETAILVIEWSTYLE
350
6A
  3
ACAD_GROUP
350
D
  3
ACAD_LAYOUT
350
62
  3
ACAD_MATERIAL
350
10
  3
ACAD_MLEADERSTYLE
350
66
  3
ACAD_MLINESTYLE
350
5F
  3
ACAD_PLOTSETTINGS
350
61
  3
ACAD_PLOTSTYLENAME
350
E
  3
ACAD_SCALELIST
350
42
  3
ACAD_SECTIONVIEWSTYLE
350
68
  3
ACAD_TABLESTYLE
350
64
  3
ACAD_VISUALSTYLE
350
29
  3
ACDB_RECOMPOSE_DATA
350
C7
  3
AcDbVariableDictionary
350
BF
  0
DICTIONARY
  5
63
102
{ACAD_REACTORS
330
C
102
}
330
C
100
AcDbDictionary
281
     1
  0
DICTIONARY
  5
6A
102
{ACAD_REACTORS
330
C
102
}
330
C
100
AcDbDictionary
281
     1
  3
Imperial24
350
6B
  0
DICTIONARY
  5
D
102
{ACAD_REACTORS
330
C
102
}
330
C
100
AcDbDictionary
281
     1
  0
DICTIONARY
  5
62
102
{ACAD_REACTORS
330
C
102
}
330
C
100
AcDbDictionary
281
     1
  3
Layout1
350
6F
  3
Layout2
350
77
  3
Model
350
73
  0
DICTIONARY
  5
10
102
{ACAD_REACTORS
330
C
102
}
330
C
100
AcDbDictionary
281
     1
  3
ByBlock
350
19
  3
ByLayer
350
11
  3
Global
350
21
  0
DICTIONARY
  5
66
102
{ACAD_REACTORS
330
C
102
}
330
C
100
AcDbDictionary
281
     1
  3
Standard
350
67
  0
DICTIONARY
  5
5F
102
{ACAD_REACTORS
330
C
102
}
330
C
100
AcDbDictionary
281
     1
  3
Standard
350
60
  0
DICTIONARY
  5
61
102
{ACAD_REACTORS
330
C
102
}
330
C
100
AcDbDictionary
281
     1
  0
ACDBDICTIONARYWDFLT
  5
E
102
{ACAD_REACTORS
330
C
102
}
330
C
100
AcDbDictionary
281
     1
  3
Normal
350
F
100
AcDbDictionaryWithDefault
340
F
  0
DICTIONARY
  5
42
102
{ACAD_REACTORS
330
C
102
}
330
C
100
AcDbDictionary
281
     1
  3
A0
350
43
  3
A1
350
44
  3
A2
350
45
  3
A3
350
46
  3
A4
350
47
  3
A5
350
48
  3
A6
350
49
  3
A7
350
4A
  3
A8
350
4B
  3
A9
350
4C
  3
B0
350
4D
  3
B1
350
4E
  3
B2
350
4F
  3
B3
350
50
  3
B4
350
51
  3
B5
350
52
  3
B6
350
53
  0
DICTIONARY
  5
68
102
{ACAD_REACTORS
330
C
102
}
330
C
100
AcDbDictionary
281
     1
  3
Imperial24
350
69
  0
DICTIONARY
  5
64
102
{ACAD_REACTORS
330
C
102
}
330
C
100
AcDbDictionary
281
     1
  3
Standard
350
65
  0
DICTIONARY
  5
29
102
{ACAD_REACTORS
330
C
102
}
330
C
100
AcDbDictionary
281
     1
  3
2dWireframe
350
2F
  3
Basic
350
2E
  3
Brighten
350
35
  3
ColorChange
350
39
  3
Conceptual
350
32
  3
Dim
350
34
  3
EdgeColorOff
350
41
  3
Facepattern
350
38
  3
Flat
350
2A
  3
FlatWithEdges
350
2B
  3
Gouraud
350
2C
  3
GouraudWithEdges
350
2D
  3
Hidden
350
31
  3
JitterOff
350
3F
  3
Linepattern
350
37
  3
OverhangOff
350
40
  3
Realistic
350
33
  3
Shaded
350
3E
  3
Shaded with edges
350
3D
  3
Shades of Gray
350
3A
  3
Sketchy
350
3B
  3
Thicken
350
36
  3
Wireframe
350
30
  3
X-Ray
350
3C
  0
XRECORD
  5
C7
102
{ACAD_REACTORS
330
C
102
}
330
C
100
AcDbXrecord
280
     1
 90
        1
330
65
  0
DICTIONARY
  5
BF
102
{ACAD_REACTORS
330
C
102
}
330
C
100
AcDbDictionary
281
     1
  3
CANNOSCALE
350
C4
  3
CMLEADERSTYLE
350
C1
  3
CTABLESTYLE
350
C0
  3
CVIEWDETAILSTYLE
350
C2
  3
CVIEWSECTIONSTYLE
350
C3
  0
ACDBDETAILVIEWSTYLE
  5
6B
102
{ACAD_REACTORS
330
6A
102
}
330
6A
100
AcDbModelDocViewStyle
 70
     0
  3
Imperial24
290
     1
300
Imperial24
 90
        0
100
AcDbDetailViewStyle
 70
     0
 71
     0
 90
        3
 71
     1
340
55
 62
   256
 40
0.24
340
0
 62
   256
 40
0.24
300

 40
0.36
280
     3
 71
     2
340
5D
 90
       25
 62
   256
 71
     3
340
55
 62
   256
 40
0.24
 90
        1
 40
0.75
 90
        1
300
%<\AcVar ViewType \f "%tc1">% %<\AcVar ViewDetailId>%\PSCALE %<\AcVar ViewScale \f "%sn">%
 71
     4
340
5D
 90
       25
 62
   256
340
5D
 90
       25
 62
   256
280
     0
  0
LAYOUT
  5
6F
102
{ACAD_REACTORS
330
62
102
}
330
62
100
AcDbPlotSettings
  1

  2

  4

  6

 40
0.0
 41
0.0
 42
0.0
 43
0.0
 44
0.0
 45
0.0
 46
0.0
 47
0.0
 48
0.0
 49
0.0
140
0.0
141
0.0
142
1.0
143
1.0
 70
   688
 72
     0
 73
     0
 74
     5
  7

 75
    16
147
1.0
 76
     0
 77
     2
 78
   300
148
0.0
149
0.0
100
AcDbLayout
  1
Layout1
 70
     1
 71
     1
 10
0.0
 20
0.0
 11
12.0
 21
9.0
 12
0.0
 22
0.0
 32
0.0
 14
0.0
 24
0.0
 34
0.0
 15
0.0
 25
0.0
 35
0.0
146
0.0
 13
0.0
 23
0.0
 33
0.0
 16
1.0
 26
0.0
 36
0.0
 17
0.0
 27
1.0
 37
0.0
 76
     0
330
6C
  0
LAYOUT
  5
77
102
{ACAD_REACTORS
330
62
102
}
330
62
100
AcDbPlotSettings
  1

  2

  4

  6

 40
0.0
 41
0.0
 42
0.0
 43
0.0
 44
0.0
 45
0.0
 46
0.0
 47
0.0
 48
0.0
 49
0.0
140
0.0
141
0.0
142
1.0
143
1.0
 70
   688
 72
     0
 73
     0
 74
     5
  7

 75
    16
147
1.0
 76
     0
 77
     2
 78
   300
148
0.0
149
0.0
100
AcDbLayout
  1
Layout2
 70
     1
 71
     2
 10
0.0
 20
0.0
 11
12.0
 21
9.0
 12
0.0
 22
0.0
 32
0.0
 14
0.0
 24
0.0
 34
0.0
 15
0.0
 25
0.0
 35
0.0
146
0.0
 13
0.0
 23
0.0
 33
0.0
 16
1.0
 26
0.0
 36
0.0
 17
0.0
 27
1.0
 37
0.0
 76
     0
330
74
  0
LAYOUT
  5
73
102
{ACAD_REACTORS
330
62
102
}
330
62
100
AcDbPlotSettings
  1

  2

  4

  6

 40
0.0
 41
0.0
 42
0.0
 43
0.0
 44
0.0
 45
0.0
 46
0.0
 47
0.0
 48
0.0
 49
0.0
140
0.0
141
0.0
142
1.0
143
1.0
 70
  1712
 72
     0
 73
     0
 74
     0
  7

 75
     0
147
1.0
 76
     0
 77
     2
 78
   300
148
0.0
149
0.0
100
AcDbLayout
  1
Model
 70
     1
 71
     0
 10
0.0
 20
0.0
 11
12.0
 21
9.0
 12
0.0
 22
0.0
 32
0.0
 14
0.0
 24
0.0
 34
0.0
 15
0.0
 25
0.0
 35
0.0
146
0.0
 13
0.0
 23
0.0
 33
0.0
 16
1.0
 26
0.0
 36
0.0
 17
0.0
 27
1.0
 37
0.0
 76
     0
330
70
  0
MATERIAL
  5
19
102
{ACAD_XDICTIONARY
360
1A
102
}
102
{ACAD_REACTORS
330
10
102
}
330
10
100
AcDbMaterial
  1
ByBlock
 72
     0
 43
0.0208333333333333
 43
0.0
 43
0.0
 43
0.0
 43
0.0
 43
0.0208333333333333
 43
0.0
 43
0.0
 43
0.0
 43
0.0
 43
1.0
 43
0.0
 43
0.0
 43
0.0
 43
0.0
 43
1.0
 77
     0
 47
0.0208333333333333
 47
0.0
 47
0.0
 47
0.0
 47
0.0
 47
0.0208333333333333
 47
0.0
 47
0.0
 47
0.0
 47
0.0
 47
1.0
 47
0.0
 47
0.0
 47
0.0
 47
0.0
 47
1.0
171
     0
 49
0.0208333333333333
 49
0.0
 49
0.0
 49
0.0
 49
0.0
 49
0.0208333333333333
 49
0.0
 49
0.0
 49
0.0
 49
0.0
 49
1.0
 49
0.0
 49
0.0
 49
0.0
 49
0.0
 49
1.0
175
     0
142
0.0208333333333333
142
0.0
142
0.0
142
0.0
142
0.0
142
0.0208333333333333
142
0.0
142
0.0
142
0.0
142
0.0
142
1.0
142
0.0
142
0.0
142
0.0
142
0.0
142
1.0
179
     0
144
0.0208333333333333
144
0.0
144
0.0
144
0.0
144
0.0
144
0.0208333333333333
144
0.0
144
0.0
144
0.0
144
0.0
144
1.0
144
0.0
144
0.0
144
0.0
144
0.0
144
1.0
147
0.0208333333333333
147
0.0
147
0.0
147
0.0
147
0.0
147
0.0208333333333333
147
0.0
147
0.0
147
0.0
147
0.0
147
1.0
147
0.0
147
0.0
147
0.0
147
0.0
147
1.0
  0
MATERIAL
  5
11
102
{ACAD_XDICTIONARY
360
12
102
}
102
{ACAD_REACTORS
330
10
102
}
330
10
100
AcDbMaterial
  1
ByLayer
 72
     0
 43
0.0208333333333333
 43
0.0
 43
0.0
 43
0.0
 43
0.0
 43
0.0208333333333333
 43
0.0
 43
0.0
 43
0.0
 43
0.0
 43
1.0
 43
0.0
 43
0.0
 43
0.0
 43
0.0
 43
1.0
 77
     0
 47
0.0208333333333333
 47
0.0
 47
0.0
 47
0.0
 47
0.0
 47
0.0208333333333333
 47
0.0
 47
0.0
 47
0.0
 47
0.0
 47
1.0
 47
0.0
 47
0.0
 47
0.0
 47
0.0
 47
1.0
171
     0
 49
0.0208333333333333
 49
0.0
 49
0.0
 49
0.0
 49
0.0
 49
0.0208333333333333
 49
0.0
 49
0.0
 49
0.0
 49
0.0
 49
1.0
 49
0.0
 49
0.0
 49
0.0
 49
0.0
 49
1.0
175
     0
142
0.0208333333333333
142
0.0
142
0.0
142
0.0
142
0.0
142
0.0208333333333333
142
0.0
142
0.0
142
0.0
142
0.0
142
1.0
142
0.0
142
0.0
142
0.0
142
0.0
142
1.0
179
     0
144
0.0208333333333333
144
0.0
144
0.0
144
0.0
144
0.0
144
0.0208333333333333
144
0.0
144
0.0
144
0.0
144
0.0
144
1.0
144
0.0
144
0.0
144
0.0
144
0.0
144
1.0
147
0.0208333333333333
147
0.0
147
0.0
147
0.0
147
0.0
147
0.0208333333333333
147
0.0
147
0.0
147
0.0
147
0.0
147
1.0
147
0.0
147
0.0
147
0.0
147
0.0
147
1.0
  0
MATERIAL
  5
21
102
{ACAD_XDICTIONARY
360
22
102
}
102
{ACAD_REACTORS
330
10
102
}
330
10
100
AcDbMaterial
  1
Global
 72
     0
 43
0.0208333333333333
 43
0.0
 43
0.0
 43
0.0
 43
0.0
 43
0.0208333333333333
 43
0.0
 43
0.0
 43
0.0
 43
0.0
 43
1.0
 43
0.0
 43
0.0
 43
0.0
 43
0.0
 43
1.0
 77
     0
 47
0.0208333333333333
 47
0.0
 47
0.0
 47
0.0
 47
0.0
 47
0.0208333333333333
 47
0.0
 47
0.0
 47
0.0
 47
0.0
 47
1.0
 47
0.0
 47
0.0
 47
0.0
 47
0.0
 47
1.0
171
     0
 49
0.0208333333333333
 49
0.0
 49
0.0
 49
0.0
 49
0.0
 49
0.0208333333333333
 49
0.0
 49
0.0
 49
0.0
 49
0.0
 49
1.0
 49
0.0
 49
0.0
 49
0.0
 49
0.0
 49
1.0
175
     0
142
0.0208333333333333
142
0.0
142
0.0
142
0.0
142
0.0
142
0.0208333333333333
142
0.0
142
0.0
142
0.0
142
0.0
142
1.0
142
0.0
142
0.0
142
0.0
142
0.0
142
1.0
179
     0
144
0.0208333333333333
144
0.0
144
0.0
144
0.0
144
0.0
144
0.0208333333333333
144
0.0
144
0.0
144
0.0
144
0.0
144
1.0
144
0.0
144
0.0
144
0.0
144
0.0
144
1.0
147
0.0208333333333333
147
0.0
147
0.0
147
0.0
147
0.0
147
0.0208333333333333
147
0.0
147
0.0
147
0.0
147
0.0
147
1.0
147
0.0
147
0.0
147
0.0
147
0.0
147
1.0
  0
MLEADERSTYLE
  5
67
102
{ACAD_REACTORS
330
66
102
}
330
66
100
AcDbMLeaderStyle
179
     2
170
     2
171
     1
172
     0
 90
        2
 40
0.0
 41
0.0
173
     1
 91
-1056964608
340
5B
 92
       -2
290
     1
 42
0.09
291
     1
 43
0.36
  3
Standard
 44
0.18
300

342
55
174
     1
178
     6
175
     1
176
     0
 93
-1056964608
 45
0.18
292
     0
297
     0
 46
0.18
 94
-1056964608
 47
1.0
 49
1.0
140
1.0
293
     1
141
0.0
294
     1
177
     0
142
1.0
295
     1
296
     0
143
0.125
271
     0
272
     9
273
     9
298
     1
  0
MLINESTYLE
  5
60
102
{ACAD_REACTORS
330
5F
102
}
330
5F
100
AcDbMlineStyle
  2
STANDARD
 70
     0
  3

 62
   256
 51
90.0
 52
90.0
 71
     2
 49
0.5
 62
   256
  6
BYLAYER
 49
-0.5
 62
   256
  6
BYLAYER
  0
ACDBPLACEHOLDER
  5
F
102
{ACAD_REACTORS
330
E
102
}
330
E
  0
SCALE
  5
43
102
{ACAD_REACTORS
330
42
102
}
330
42
100
AcDbScale
 70
     0
300
1:1
140
1.0
141
1.0
290
     1
  0
SCALE
  5
44
102
{ACAD_REACTORS
330
42
102
}
330
42
100
AcDbScale
 70
     0
300
1/128" = 1'-0"
140
0.0078125
141
12.0
290
     0
  0
SCALE
  5
45
102
{ACAD_REACTORS
330
42
102
}
330
42
100
AcDbScale
 70
     0
300
1/64" = 1'-0"
140
0.015625
141
12.0
290
     0
  0
SCALE
  5
46
102
{ACAD_REACTORS
330
42
102
}
330
42
100
AcDbScale
 70
     0
300
1/32" = 1'-0"
140
0.03125
141
12.0
290
     0
  0
SCALE
  5
47
102
{ACAD_REACTORS
330
42
102
}
330
42
100
AcDbScale
 70
     0
300
1/16" = 1'-0"
140
0.0625
141
12.0
290
     0
  0
SCALE
  5
48
102
{ACAD_REACTORS
330
42
102
}
330
42
100
AcDbScale
 70
     0
300
3/32" = 1'-0"
140
0.09375
141
12.0
290
     0
  0
SCALE
  5
49
102
{ACAD_REACTORS
330
42
102
}
330
42
100
AcDbScale
 70
     0
300
1/8" = 1'-0"
140
0.125
141
12.0
290
     0
  0
SCALE
  5
4A
102
{ACAD_REACTORS
330
42
102
}
330
42
100
AcDbScale
 70
     0
300
3/16" = 1'-0"
140
0.1875
141
12.0
290
     0
  0
SCALE
  5
4B
102
{ACAD_REACTORS
330
42
102
}
330
42
100
AcDbScale
 70
     0
300
1/4" = 1'-0"
140
0.25
141
12.0
290
     0
  0
SCALE
  5
4C
102
{ACAD_REACTORS
330
42
102
}
330
42
100
AcDbScale
 70
     0
300
3/8" = 1'-0"
140
0.375
141
12.0
290
     0
  0
SCALE
  5
4D
102
{ACAD_REACTORS
330
42
102
}
330
42
100
AcDbScale
 70
     0
300
1/2" = 1'-0"
140
0.5
141
12.0
290
     0
  0
SCALE
  5
4E
102
{ACAD_REACTORS
330
42
102
}
330
42
100
AcDbScale
 70
     0
300
3/4" = 1'-0"
140
0.75
141
12.0
290
     0
  0
SCALE
  5
4F
102
{ACAD_REACTORS
330
42
102
}
330
42
100
AcDbScale
 70
     0
300
1" = 1'-0"
140
1.0
141
12.0
290
     0
  0
SCALE
  5
50
102
{ACAD_REACTORS
330
42
102
}
330
42
100
AcDbScale
 70
     0
300
1-1/2" = 1'-0"
140
1.5
141
12.0
290
     0
  0
SCALE
  5
51
102
{ACAD_REACTORS
330
42
102
}
330
42
100
AcDbScale
 70
     0
300
3" = 1'-0"
140
3.0
141
12.0
290
     0
  0
SCALE
  5
52
102
{ACAD_REACTORS
330
42
102
}
330
42
100
AcDbScale
 70
     0
300
6" = 1'-0"
140
6.0
141
12.0
290
     0
  0
SCALE
  5
53
102
{ACAD_REACTORS
330
42
102
}
330
42
100
AcDbScale
 70
     0
300
1'-0" = 1'-0"
140
12.0
141
12.0
290
     0
  0
ACDBSECTIONVIEWSTYLE
  5
69
102
{ACAD_REACTORS
330
68
102
}
330
68
100
AcDbModelDocViewStyle
 70
     0
  3
Imperial24
290
     1
300
Imperial24
 90
        0
100
AcDbSectionViewStyle
 70
     0
 71
     0
 90
       78
 71
     1
340
55
 62
   256
 40
0.24
340
0
340
0
 62
   256
 40
0.24
300
I, O, Q, S, X, Z
 40
0.48
 90
        3
 40
0.18
 90
        1
 71
     2
340
5D
 90
       25
 62
   256
340
5D
 90
       50
 62
   256
 40
0.24
 40
0.0
 40
0.24
 71
     3
340
55
 62
   256
 40
0.24
 90
        1
 40
0.75
 90
        1
300
%<\AcVar ViewType \f "%tc1">% %<\AcVar ViewSectionStartId>%-%<\AcVar ViewSectionEndId>%\PSCALE %<\AcVar ViewScale \f "%sn">%
 71
     4
 62
   256
 62
   257
300
ANSI31
 40
1.0
 90
        0
290
     0
290
     0
 90
        6
 40
0.0
 40
1.570796326794896
 40
0.2617993877991494
 40
1.308996938995747
 40
-0.2617993877991494
 40
1.832595714594046
  0
TABLESTYLE
  5
65
102
{ACAD_XDICTIONARY
360
C5
102
}
102
{ACAD_REACTORS
330
64
102
}
330
64
100
AcDbTableStyle
280
     0
  3
Standard
 70
     0
 71
     0
 40
0.06
 41
0.06
280
     0
281
     0
  7
Standard
140
0.18
170
     2
 62
     0
 63
     7
283
     0
 90
      512
 91
        0
  1

274
    -2
284
     1
 64
     0
275
    -2
285
     1
 65
     0
276
    -2
286
     1
 66
     0
277
    -2
287
     1
 67
     0
278
    -2
288
     1
 68
     0
279
    -2
289
     1
 69
     0
  7
Standard
140
0.25
170
     5
 62
     0
 63
     7
283
     0
 90
      512
 91
        0
  1

274
    -2
284
     1
 64
     0
275
    -2
285
     1
 65
     0
276
    -2
286
     1
 66
     0
277
    -2
287
     1
 67
     0
278
    -2
288
     1
 68
     0
279
    -2
289
     1
 69
     0
  7
Standard
140
0.18
170
     5
 62
     0
 63
     7
283
     0
 90
      512
 91
        0
  1

274
    -2
284
     1
 64
     0
275
    -2
285
     1
 65
     0
276
    -2
286
     1
 66
     0
277
    -2
287
     1
 67
     0
278
    -2
288
     1
 68
     0
279
    -2
289
     1
 69
     0
  0
VISUALSTYLE
  5
2F
102
{ACAD_REACTORS
330
29
102
}
330
29
100
AcDbVisualStyle
  2
2dWireframe
 70
     4
177
     3
291
     0
 70
    58
 90
        0
176
     1
 90
        2
176
     1
 90
        0
176
     1
 90
        0
176
     1
 40
0.6
176
     1
 40
30.0
176
     1
 62
     7
420
 16777215
176
     1
 90
        1
176
     1
 90
        4
176
     1
 62
     7
176
     1
 62
   257
176
     1
 90
        1
176
     1
 90
        1
176
     1
 40
1.0
176
     1
 90
        0
176
     1
 62
   257
176
     1
 40
1.0
176
     1
 90
        1
176
     1
 90
        6
176
     1
 90
        2
176
     1
 62
     7
176
     1
 90
        5
176
     1
 90
        0
176
     1
 90
        0
176
     1
290
     0
176
     1
 90
        1
176
     1
 40
0.0
176
     1
 90
        0
176
     1
290
     1
176
     1
290
     1
176
     1
290
     0
176
     1
290
     0
176
     1
290
     0
176
     1
290
     0
176
     1
290
     0
176
     1
290
     0
176
     1
290
     0
176
     1
 90
       50
176
     1
 40
0.0
176
     1
 40
1.0
176
     1
 90
        0
176
     1
 62
    18
420
        0
176
     1
 90
       50
176
     1
 90
        3
176
     1
 62
     5
420
      255
176
     1
290
     0
176
     1
 90
       50
176
     1
 90
       50
176
     1
 90
       50
176
     1
290
     0
176
     1
 90
       50
176
     1
 62
   256
176
     0
 40
1.0
176
     0
 90
        2
176
     1
  1
strokes_ogs.tif
176
     1
290
     0
176
     1
 40
1.0
176
     1
 40
1.0
176
     1
  0
VISUALSTYLE
  5
2E
102
{ACAD_REACTORS
330
29
102
}
330
29
100
AcDbVisualStyle
  2
Basic
 70
     7
177
     3
291
     1
 70
    58
 90
        1
176
     1
 90
        0
176
     1
 90
        1
176
     1
 90
        0
176
     1
 40
0.6
176
     1
 40
30.0
176
     1
 62
     7
420
 16777215
176
     1
 90
        0
176
     1
 90
        4
176
     1
 62
     7
176
     1
 62
   257
176
     1
 90
        1
176
     1
 90
        1
176
     1
 40
1.0
176
     1
 90
        8
176
     1
 62
     7
176
     1
 40
1.0
176
     1
 90
        1
176
     1
 90
        6
176
     1
 90
        2
176
     1
 62
     7
176
     1
 90
        5
176
     1
 90
        0
176
     1
 90
        0
176
     1
290
     0
176
     1
 90
        1
176
     1
 40
0.0
176
     1
 90
        0
176
     1
290
     0
176
     1
290
     1
176
     1
290
     1
176
     1
290
     0
176
     1
290
     0
176
     1
290
     0
176
     1
290
     0
176
     1
290
     0
176
     1
290
     0
176
     1
 90
       50
176
     1
 40
0.0
176
     1
 40
1.0
176
     1
 90
        0
176
     1
 62
    18
420
        0
176
     1
 90
       50
176
     1
 90
        3
176
     1
 62
     5
420
      255
176
     1
290
     0
176
     1
 90
       50
176
     1
 90
       50
176
     1
 90
       50
176
     1
290
     0
176
     1
 90
       50
176
     1
 62
   256
176
     0
 40
1.0
176
     0
 90
        2
176
     1
  1
strokes_ogs.tif
176
     1
290
     0
176
     1
 40
1.0
176
     1
 40
1.0
176
     1
  0
VISUALSTYLE
  5
35
102
{ACAD_REACTORS
330
29
102
}
330
29
100
AcDbVisualStyle
  2
Brighten
 70
    12
177
     3
291
     1
 70
    58
 90
        2
176
     1
 90
        2
176
     1
 90
        0
176
     1
 90
        0
176
     1
 40
0.6
176
     1
 40
30.0
176
     1
 62
     7
420
 16777215
176
     1
 90
        1
176
     1
 90
        4
176
     1
 62
     7
176
     1
 62
   257
176
     1
 90
        1
176
     1
 90
        1
176
     1
 40
1.0
176
     1
 90
        8
176
     1
 62
     7
176
     1
 40
1.0
176
     1
 90
        1
176
     1
 90
        6
176
     1
 90
        2
176
     1
 62
     7
176
     1
 90
        5
176
     1
 90
        0
176
     1
 90
        0
176
     1
290
     0
176
     1
 90
        1
176
     1
 40
50.0
176
     1
 90
        0
176
     1
290
     0
176
     1
290
     1
176
     1
290
     1
176
     1
290
     0
176
     1
290
     0
176
     1
290
     0
176
     1
290
     0
176
     1
290
     0
176
     1
290
     0
176
     1
 90
       50
176
     1
 40
0.0
176
     1
 40
1.0
176
     1
 90
        0
176
     1
 62
    18
420
        0
176
     1
 90
       50
176
     1
 90
        3
176
     1
 62
     5
420
      255
176
     1
290
     0
176
     1
 90
       50
176
     1
 90
       50
176
     1
 90
       50
176
     1
290
     0
176
     1
 90
       50
176
     1
 62
   256
176
     0
 40
1.0
176
     0
 90
        2
176
     1
  1
strokes_ogs.tif
176
     1
290
     0
176
     1
 40
1.0
176
     1
 40
1.0
176
     1
  0
VISUALSTYLE
  5
39
102
{ACAD_REACTORS
330
29
102
}
330
29
100
AcDbVisualStyle
  2
ColorChange
 70
    16
177
     3
291
     1
 70
    58
 90
        2
176
     1
 90
        2
176
     1
 90
        3
176
     1
 90
        0
176
     1
 40
0.6
176
     1
 40
30.0
176
     1
 62
     8
420
  8421504
176
     1
 90
        1
176
     1
 90
        4
176
     1
 62
     7
176
     1
 62
   257
176
     1
 90
        1
176
     1
 90
        1
176
     1
 40
1.0
176
     1
 90
        8
176
     1
 62
     8
420
  8421504
176
     1
 40
1.0
176
     1
 90
        1
176
     1
 90
        6
176
     1
 90
        2
176
     1
 62
     7
176
     1
 90
        5
176
     1
 90
        0
176
     1
 90
        0
176
     1
290
     0
176
     1
 90
        1
176
     1
 40
0.0
176
     1
 90
        0
176
     1
290
     0
176
     1
290
     1
176
     1
290
     1
176
     1
290
     0
176
     1
290
     0
176
     1
290
     0
176
     1
290
     0
176
     1
290
     0
176
     1
290
     0
176
     1
 90
       50
176
     1
 40
0.0
176
     1
 40
1.0
176
     1
 90
        0
176
     1
 62
    18
420
        0
176
     1
 90
       50
176
     1
 90
        3
176
     1
 62
     5
420
      255
176
     1
290
     0
176
     1
 90
       50
176
     1
 90
       50
176
     1
 90
       50
176
     1
290
     0
176
     1
 90
       50
176
     1
 62
   256
176
     0
 40
1.0
176
     0
 90
        2
176
     1
  1
strokes_ogs.tif
176
     1
290
     0
176
     1
 40
1.0
176
     1
 40
1.0
176
     1
  0
VISUALSTYLE
  5
32
102
{ACAD_REACTORS
330
29
102
}
330
29
100
AcDbVisualStyle
  2
Conceptual
 70
     9
177
     3
291
     0
 70
    58
 90
        3
176
     1
 90
        2
176
     1
 90
        0
176
     1
 90
        0
176
     1
 40
0.6
176
     1
 40
30.0
176
     1
 62
     7
420
 16777215
176
     1
 90
        2
176
     1
 90
        2
176
     1
 62
     7
176
     1
 62
   257
176
     1
 90
        1
176
     1
 90
        1
176
     1
 40
179.0
176
     1
 90
        8
176
     1
 62
     7
176
     1
 40
1.0
176
     1
 90
        1
176
     1
 90
        6
176
     1
 90
        2
176
     1
 62
     7
176
     1
 90
        3
176
     1
 90
        0
176
     1
 90
        0
176
     1
290
     0
176
     1
 90
        1
176
     1
 40
0.0
176
     1
 90
        0
176
     1
290
     0
176
     1
290
     1
176
     1
290
     1
176
     1
290
     0
176
     1
290
     0
176
     1
290
     0
176
     1
290
     0
176
     1
290
     0
176
     1
290
     0
176
     1
 90
       50
176
     1
 40
0.0
176
     1
 40
1.0
176
     1
 90
        0
176
     1
 62
    18
420
        0
176
     1
 90
       50
176
     1
 90
        3
176
     1
 62
     5
420
      255
176
     1
290
     0
176
     1
 90
       50
176
     1
 90
       50
176
     1
 90
       50
176
     1
290
     0
176
     1
 90
       50
176
     1
 62
   256
176
     0
 40
1.0
176
     0
 90
        2
176
     1
  1
strokes_ogs.tif
176
     1
290
     0
176
     1
 40
1.0
176
     1
 40
1.0
176
     1
  0
VISUALSTYLE
  5
34
102
{ACAD_REACTORS
330
29
102
}
330
29
100
AcDbVisualStyle
  2
Dim
 70
    11
177
     3
291
     1
 70
    58
 90
        2
176
     1
 90
        2
176
     1
 90
        0
176
     1
 90
        0
176
     1
 40
0.6
176
     1
 40
30.0
176
     1
 62
     7
420
 16777215
176
     1
 90
        1
176
     1
 90
        4
176
     1
 62
     7
176
     1
 62
   257
176
     1
 90
        1
176
     1
 90
        1
176
     1
 40
1.0
176
     1
 90
        8
176
     1
 62
     7
176
     1
 40
1.0
176
     1
 90
        1
176
     1
 90
        6
176
     1
 90
        2
176
     1
 62
     7
176
     1
 90
        5
176
     1
 90
        0
176
     1
 90
        0
176
     1
290
     0
176
     1
 90
        1
176
     1
 40
-50.0
176
     1
 90
        0
176
     1
290
     0
176
     1
290
     1
176
     1
290
     1
176
     1
290
     0
176
     1
290
     0
176
     1
290
     0
176
     1
290
     0
176
     1
290
     0
176
     1
290
     0
176
     1
 90
       50
176
     1
 40
0.0
176
     1
 40
1.0
176
     1
 90
        0
176
     1
 62
    18
420
        0
176
     1
 90
       50
176
     1
 90
        3
176
     1
 62
     5
420
      255
176
     1
290
     0
176
     1
 90
       50
176
     1
 90
       50
176
     1
 90
       50
176
     1
290
     0
176
     1
 90
       50
176
     1
 62
   256
176
     0
 40
1.0
176
     0
 90
        2
176
     1
  1
strokes_ogs.tif
176
     1
290
     0
176
     1
 40
1.0
176
     1
 40
1.0
176
     1
  0
VISUALSTYLE
  5
41
102
{ACAD_REACTORS
330
29
102
}
330
29
100
AcDbVisualStyle
  2
EdgeColorOff
 70
    22
177
     3
291
     1
 70
    58
 90
        2
176
     0
 90
        2
176
     0
 90
        0
176
     0
 90
        0
176
     0
 40
0.6
176
     0
 40
30.0
176
     0
 62
     7
420
 16777215
176
     0
 90
        1
176
     0
 90
        4
176
     0
 62
     7
176
     0
 62
   257
176
     0
 90
        1
176
     0
 90
        1
176
     0
 40
1.0
176
     0
 90
        8
176
     2
 62
     7
176
     0
 40
1.0
176
     0
 90
        1
176
     0
 90
        6
176
     0
 90
        2
176
     0
 62
     7
176
     0
 90
        5
176
     0
 90
        0
176
     0
 90
        0
176
     0
290
     0
176
     0
 90
        1
176
     0
 40
0.0
176
     0
 90
        0
176
     0
290
     0
176
     0
290
     1
176
     0
290
     1
176
     0
290
     0
176
     0
290
     0
176
     0
290
     0
176
     0
290
     0
176
     0
290
     0
176
     0
290
     0
176
     0
 90
       50
176
     0
 40
0.0
176
     0
 40
1.0
176
     0
 90
        0
176
     0
 62
    18
420
        0
176
     0
 90
       50
176
     0
 90
        3
176
     0
 62
     5
420
      255
176
     0
290
     0
176
     0
 90
       50
176
     0
 90
       50
176
     0
 90
       50
176
     0
290
     0
176
     0
 90
       50
176
     0
 62
   256
176
     0
 40
1.0
176
     0
 90
        2
176
     0
  1
strokes_ogs.tif
176
     0
290
     0
176
     0
 40
1.0
176
     0
 40
1.0
176
     0
  0
VISUALSTYLE
  5
38
102
{ACAD_REACTORS
330
29
102
}
330
29
100
AcDbVisualStyle
  2
Facepattern
 70
    15
177
     3
291
     1
 70
    58
 90
        2
176
     1
 90
        2
176
     1
 90
        0
176
     1
 90
        0
176
     1
 40
0.6
176
     1
 40
30.0
176
     1
 62
     7
420
 16777215
176
     1
 90
        1
176
     1
 90
        4
176
     1
 62
     7
176
     1
 62
   257
176
     1
 90
        1
176
     1
 90
        1
176
     1
 40
1.0
176
     1
 90
        8
176
     1
 62
     7
176
     1
 40
1.0
176
     1
 90
        1
176
     1
 90
        6
176
     1
 90
        2
176
     1
 62
     7
176
     1
 90
        5
176
     1
 90
        0
176
     1
 90
        0
176
     1
290
     0
176
     1
 90
        1
176
     1
 40
0.0
176
     1
 90
        0
176
     1
290
     0
176
     1
290
     1
176
     1
290
     1
176
     1
290
     0
176
     1
290
     0
176
     1
290
     0
176
     1
290
     0
176
     1
290
     0
176
     1
290
     0
176
     1
 90
       50
176
     1
 40
0.0
176
     1
 40
1.0
176
     1
 90
        0
176
     1
 62
    18
420
        0
176
     1
 90
       50
176
     1
 90
        3
176
     1
 62
     5
420
      255
176
     1
290
     0
176
     1
 90
       50
176
     1
 90
       50
176
     1
 90
       50
176
     1
290
     0
176
     1
 90
       50
176
     1
 62
   256
176
     0
 40
1.0
176
     0
 90
        2
176
     1
  1
strokes_ogs.tif
176
     1
290
     0
176
     1
 40
1.0
176
     1
 40
1.0
176
     1
  0
VISUALSTYLE
  5
2A
102
{ACAD_REACTORS
330
29
102
}
330
29
100
AcDbVisualStyle
  2
Flat
 70
     0
177
     3
291
     1
 70
    58
 90
        2
176
     1
 90
        1
176
     1
 90
        1
176
     1
 90
        2
176
     1
 40
0.6
176
     1
 40
30.0
176
     1
 62
     7
420
 16777215
176
     1
 90
        0
176
     1
 90
        0
176
     1
 62
     7
176
     1
 62
   257
176
     1
 90
        1
176
     1
 90
        1
176
     1
 40
1.0
176
     1
 90
        8
176
     1
 62
     7
176
     1
 40
1.0
176
     1
 90
        1
176
     1
 90
        6
176
     1
 90
        2
176
     1
 62
     7
176
     1
 90
        5
176
     1
 90
        0
176
     1
 90
        0
176
     1
290
     0
176
     1
 90
       13
176
     1
 40
0.0
176
     1
 90
        0
176
     1
290
     0
176
     1
290
     1
176
     1
290
     1
176
     1
290
     0
176
     1
290
     0
176
     1
290
     0
176
     1
290
     0
176
     1
290
     0
176
     1
290
     0
176
     1
 90
       50
176
     1
 40
0.0
176
     1
 40
1.0
176
     1
 90
        0
176
     1
 62
    18
420
        0
176
     1
 90
       50
176
     1
 90
        3
176
     1
 62
     5
420
      255
176
     1
290
     0
176
     1
 90
       50
176
     1
 90
       50
176
     1
 90
       50
176
     1
290
     0
176
     1
 90
       50
176
     1
 62
   256
176
     0
 40
1.0
176
     0
 90
        2
176
     1
  1
strokes_ogs.tif
176
     1
290
     0
176
     1
 40
1.0
176
     1
 40
1.0
176
     1
  0
VISUALSTYLE
  5
2B
102
{ACAD_REACTORS
330
29
102
}
330
29
100
AcDbVisualStyle
  2
FlatWithEdges
 70
     1
177
     3
291
     1
 70
    58
 90
        2
176
     1
 90
        1
176
     1
 90
        1
176
     1
 90
        2
176
     1
 40
0.6
176
     1
 40
30.0
176
     1
 62
     7
420
 16777215
176
     1
 90
        1
176
     1
 90
        0
176
     1
 62
     7
176
     1
 62
   257
176
     1
 90
        1
176
     1
 90
        1
176
     1
 40
1.0
176
     1
 90
        0
176
     1
 62
   257
176
     1
 40
1.0
176
     1
 90
        1
176
     1
 90
        6
176
     1
 90
        2
176
     1
 62
     7
176
     1
 90
        5
176
     1
 90
        0
176
     1
 90
        0
176
     1
290
     0
176
     1
 90
       13
176
     1
 40
0.0
176
     1
 90
        0
176
     1
290
     0
176
     1
290
     1
176
     1
290
     1
176
     1
290
     0
176
     1
290
     0
176
     1
290
     0
176
     1
290
     0
176
     1
290
     0
176
     1
290
     0
176
     1
 90
       50
176
     1
 40
0.0
176
     1
 40
1.0
176
     1
 90
        0
176
     1
 62
    18
420
        0
176
     1
 90
       50
176
     1
 90
        3
176
     1
 62
     5
420
      255
176
     1
290
     0
176
     1
 90
       50
176
     1
 90
       50
176
     1
 90
       50
176
     1
290
     0
176
     1
 90
       50
176
     1
 62
   256
176
     0
 40
1.0
176
     0
 90
        2
176
     1
  1
strokes_ogs.tif
176
     1
290
     0
176
     1
 40
1.0
176
     1
 40
1.0
176
     1
  0
VISUALSTYLE
  5
2C
102
{ACAD_REACTORS
330
29
102
}
330
29
100
AcDbVisualStyle
  2
Gouraud
 70
     2
177
     3
291
     1
 70
    58
 90
        2
176
     1
 90
        2
176
     1
 90
        1
176
     1
 90
        2
176
     1
 40
0.6
176
     1
 40
30.0
176
     1
 62
     7
420
 16777215
176
     1
 90
        0
176
     1
 90
        0
176
     1
 62
     7
176
     1
 62
   257
176
     1
 90
        1
176
     1
 90
        1
176
     1
 40
1.0
176
     1
 90
        0
176
     1
 62
     7
176
     1
 40
1.0
176
     1
 90
        1
176
     1
 90
        6
176
     1
 90
        2
176
     1
 62
     7
176
     1
 90
        5
176
     1
 90
        0
176
     1
 90
        0
176
     1
290
     0
176
     1
 90
       13
176
     1
 40
0.0
176
     1
 90
        0
176
     1
290
     0
176
     1
290
     1
176
     1
290
     1
176
     1
290
     0
176
     1
290
     0
176
     1
290
     0
176
     1
290
     0
176
     1
290
     0
176
     1
290
     0
176
     1
 90
       50
176
     1
 40
0.0
176
     1
 40
1.0
176
     1
 90
        0
176
     1
 62
    18
420
        0
176
     1
 90
       50
176
     1
 90
        3
176
     1
 62
     5
420
      255
176
     1
290
     0
176
     1
 90
       50
176
     1
 90
       50
176
     1
 90
       50
176
     1
290
     0
176
     1
 90
       50
176
     1
 62
   256
176
     0
 40
1.0
176
     0
 90
        2
176
     1
  1
strokes_ogs.tif
176
     1
290
     0
176
     1
 40
1.0
176
     1
 40
1.0
176
     1
  0
VISUALSTYLE
  5
2D
102
{ACAD_REACTORS
330
29
102
}
330
29
100
AcDbVisualStyle
  2
GouraudWithEdges
 70
     3
177
     3
291
     1
 70
    58
 90
        2
176
     1
 90
        2
176
     1
 90
        1
176
     1
 90
        2
176
     1
 40
0.6
176
     1
 40
30.0
176
     1
 62
     7
420
 16777215
176
     1
 90
        1
176
     1
 90
        0
176
     1
 62
     7
176
     1
 62
   257
176
     1
 90
        1
176
     1
 90
        1
176
     1
 40
1.0
176
     1
 90
        0
176
     1
 62
   257
176
     1
 40
1.0
176
     1
 90
        1
176
     1
 90
        6
176
     1
 90
        2
176
     1
 62
     7
176
     1
 90
        5
176
     1
 90
        0
176
     1
 90
        0
176
     1
290
     0
176
     1
 90
       13
176
     1
 40
0.0
176
     1
 90
        0
176
     1
290
     0
176
     1
290
     1
176
     1
290
     1
176
     1
290
     0
176
     1
290
     0
176
     1
290
     0
176
     1
290
     0
176
     1
290
     0
176
     1
290
     0
176
     1
 90
       50
176
     1
 40
0.0
176
     1
 40
1.0
176
     1
 90
        0
176
     1
 62
    18
420
        0
176
     1
 90
       50
176
     1
 90
        3
176
     1
 62
     5
420
      255
176
     1
290
     0
176
     1
 90
       50
176
     1
 90
       50
176
     1
 90
       50
176
     1
290
     0
176
     1
 90
       50
176
     1
 62
   256
176
     0
 40
1.0
176
     0
 90
        2
176
     1
  1
strokes_ogs.tif
176
     1
290
     0
176
     1
 40
1.0
176
     1
 40
1.0
176
     1
  0
VISUALSTYLE
  5
31
102
{ACAD_REACTORS
330
29
102
}
330
29
100
AcDbVisualStyle
  2
Hidden
 70
     6
177
     3
291
     0
 70
    58
 90
        1
176
     1
 90
        2
176
     1
 90
        2
176
     1
 90
        0
176
     1
 40
0.6
176
     1
 40
30.0
176
     1
 62
     7
420
 16777215
176
     1
 90
        2
176
     1
 90
        2
176
     1
 62
     7
176
     1
 62
   257
176
     1
 90
        2
176
     1
 90
        1
176
     1
 40
40.0
176
     1
 90
        0
176
     1
 62
   257
176
     1
 40
1.0
176
     1
 90
        1
176
     1
 90
        6
176
     1
 90
        2
176
     1
 62
     7
176
     1
 90
        3
176
     1
 90
        0
176
     1
 90
        0
176
     1
290
     0
176
     1
 90
        1
176
     1
 40
0.0
176
     1
 90
        0
176
     1
290
     0
176
     1
290
     1
176
     1
290
     1
176
     1
290
     0
176
     1
290
     0
176
     1
290
     0
176
     1
290
     0
176
     1
290
     0
176
     1
290
     0
176
     1
 90
       50
176
     1
 40
0.0
176
     1
 40
1.0
176
     1
 90
        0
176
     1
 62
    18
420
        0
176
     1
 90
       50
176
     1
 90
        3
176
     1
 62
     5
420
      255
176
     1
290
     0
176
     1
 90
       50
176
     1
 90
       50
176
     1
 90
       50
176
     1
290
     0
176
     1
 90
       50
176
     1
 62
   256
176
     0
 40
1.0
176
     0
 90
        2
176
     1
  1
strokes_ogs.tif
176
     1
290
     0
176
     1
 40
1.0
176
     1
 40
1.0
176
     1
  0
VISUALSTYLE
  5
3F
102
{ACAD_REACTORS
330
29
102
}
330
29
100
AcDbVisualStyle
  2
JitterOff
 70
    20
177
     3
291
     1
 70
    58
 90
        2
176
     0
 90
        2
176
     0
 90
        0
176
     0
 90
        0
176
     0
 40
0.6
176
     0
 40
30.0
176
     0
 62
     7
420
 16777215
176
     0
 90
        1
176
     0
 90
        4
176
     0
 62
     7
176
     0
 62
   257
176
     0
 90
        1
176
     0
 90
        1
176
     0
 40
1.0
176
     0
 90
       10
176
     2
 62
     7
176
     0
 40
1.0
176
     0
 90
        1
176
     0
 90
        6
176
     0
 90
        2
176
     0
 62
     7
176
     0
 90
        5
176
     0
 90
        0
176
     0
 90
        0
176
     0
290
     0
176
     0
 90
        1
176
     0
 40
0.0
176
     0
 90
        0
176
     0
290
     0
176
     0
290
     1
176
     0
290
     1
176
     0
290
     0
176
     0
290
     0
176
     0
290
     0
176
     0
290
     0
176
     0
290
     0
176
     0
290
     0
176
     0
 90
       50
176
     0
 40
0.0
176
     0
 40
1.0
176
     0
 90
        0
176
     0
 62
    18
420
        0
176
     0
 90
       50
176
     0
 90
        3
176
     0
 62
     5
420
      255
176
     0
290
     0
176
     0
 90
       50
176
     0
 90
       50
176
     0
 90
       50
176
     0
290
     0
176
     0
 90
       50
176
     0
 62
   256
176
     0
 40
1.0
176
     0
 90
        2
176
     0
  1
strokes_ogs.tif
176
     0
290
     0
176
     0
 40
1.0
176
     0
 40
1.0
176
     0
  0
VISUALSTYLE
  5
37
102
{ACAD_REACTORS
330
29
102
}
330
29
100
AcDbVisualStyle
  2
Linepattern
 70
    14
177
     3
291
     1
 70
    58
 90
        2
176
     1
 90
        2
176
     1
 90
        0
176
     1
 90
        0
176
     1
 40
0.6
176
     1
 40
30.0
176
     1
 62
     7
420
 16777215
176
     1
 90
        1
176
     1
 90
        4
176
     1
 62
     7
176
     1
 62
   257
176
     1
 90
        7
176
     1
 90
        7
176
     1
 40
1.0
176
     1
 90
        8
176
     1
 62
     7
176
     1
 40
1.0
176
     1
 90
        1
176
     1
 90
        6
176
     1
 90
        2
176
     1
 62
     7
176
     1
 90
        5
176
     1
 90
        0
176
     1
 90
        0
176
     1
290
     0
176
     1
 90
        1
176
     1
 40
0.0
176
     1
 90
        0
176
     1
290
     0
176
     1
290
     1
176
     1
290
     1
176
     1
290
     0
176
     1
290
     0
176
     1
290
     0
176
     1
290
     0
176
     1
290
     0
176
     1
290
     0
176
     1
 90
       50
176
     1
 40
0.0
176
     1
 40
1.0
176
     1
 90
        0
176
     1
 62
    18
420
        0
176
     1
 90
       50
176
     1
 90
        3
176
     1
 62
     5
420
      255
176
     1
290
     0
176
     1
 90
       50
176
     1
 90
       50
176
     1
 90
       50
176
     1
290
     0
176
     1
 90
       50
176
     1
 62
   256
176
     0
 40
1.0
176
     0
 90
        2
176
     1
  1
strokes_ogs.tif
176
     1
290
     0
176
     1
 40
1.0
176
     1
 40
1.0
176
     1
  0
VISUALSTYLE
  5
40
102
{ACAD_REACTORS
330
29
102
}
330
29
100
AcDbVisualStyle
  2
OverhangOff
 70
    21
177
     3
291
     1
 70
    58
 90
        2
176
     0
 90
        2
176
     0
 90
        0
176
     0
 90
        0
176
     0
 40
0.6
176
     0
 40
30.0
176
     0
 62
     7
420
 16777215
176
     0
 90
        1
176
     0
 90
        4
176
     0
 62
     7
176
     0
 62
   257
176
     0
 90
        1
176
     0
 90
        1
176
     0
 40
1.0
176
     0
 90
        9
176
     2
 62
     7
176
     0
 40
1.0
176
     0
 90
        1
176
     0
 90
        6
176
     0
 90
        2
176
     0
 62
     7
176
     0
 90
        5
176
     0
 90
        0
176
     0
 90
        0
176
     0
290
     0
176
     0
 90
        1
176
     0
 40
0.0
176
     0
 90
        0
176
     0
290
     0
176
     0
290
     1
176
     0
290
     1
176
     0
290
     0
176
     0
290
     0
176
     0
290
     0
176
     0
290
     0
176
     0
290
     0
176
     0
290
     0
176
     0
 90
       50
176
     0
 40
0.0
176
     0
 40
1.0
176
     0
 90
        0
176
     0
 62
    18
420
        0
176
     0
 90
       50
176
     0
 90
        3
176
     0
 62
     5
420
      255
176
     0
290
     0
176
     0
 90
       50
176
     0
 90
       50
176
     0
 90
       50
176
     0
290
     0
176
     0
 90
       50
176
     0
 62
   256
176
     0
 40
1.0
176
     0
 90
        2
176
     0
  1
strokes_ogs.tif
176
     0
290
     0
176
     0
 40
1.0
176
     0
 40
1.0
176
     0
  0
VISUALSTYLE
  5
33
102
{ACAD_REACTORS
330
29
102
}
330
29
100
AcDbVisualStyle
  2
Realistic
 70
     8
177
     3
291
     0
 70
    58
 90
        2
176
     1
 90
        3
176
     1
 90
        0
176
     1
 90
        2
176
     1
 40
0.6
176
     1
 40
30.0
176
     1
 62
     7
420
 16777215
176
     1
 90
        0
176
     1
 90
        0
176
     1
 62
     7
176
     1
 62
   257
176
     1
 90
        1
176
     1
 90
        1
176
     1
 40
1.0
176
     1
 90
        8
176
     1
 62
   257
176
     1
 40
1.0
176
     1
 90
        1
176
     1
 90
        6
176
     1
 90
        2
176
     1
 62
     7
176
     1
 90
        3
176
     1
 90
        0
176
     1
 90
        0
176
     1
290
     0
176
     1
 90
       13
176
     1
 40
0.0
176
     1
 90
        0
176
     1
290
     0
176
     1
290
     1
176
     1
290
     1
176
     1
290
     0
176
     1
290
     0
176
     1
290
     0
176
     1
290
     0
176
     1
290
     0
176
     1
290
     0
176
     1
 90
       50
176
     1
 40
0.0
176
     1
 40
1.0
176
     1
 90
        0
176
     1
 62
    18
420
        0
176
     1
 90
       50
176
     1
 90
        3
176
     1
 62
     5
420
      255
176
     1
290
     0
176
     1
 90
       50
176
     1
 90
       50
176
     1
 90
       50
176
     1
290
     0
176
     1
 90
       50
176
     1
 62
   256
176
     0
 40
1.0
176
     0
 90
        2
176
     1
  1
strokes_ogs.tif
176
     1
290
     0
176
     1
 40
1.0
176
     1
 40
1.0
176
     1
  0
VISUALSTYLE
  5
3E
102
{ACAD_REACTORS
330
29
102
}
330
29
100
AcDbVisualStyle
  2
Shaded
 70
    27
177
     3
291
     0
 70
    58
 90
        2
176
     1
 90
        2
176
     1
 90
        1
176
     1
 90
        2
176
     1
 40
0.6
176
     1
 40
30.0
176
     1
 62
     7
420
 16777215
176
     1
 90
        0
176
     1
 90
        4
176
     1
 62
     7
176
     1
 62
   257
176
     1
 90
        1
176
     1
 90
        1
176
     1
 40
1.0
176
     1
 90
        8
176
     1
 62
   257
176
     1
 40
1.0
176
     1
 90
        1
176
     1
 90
        6
176
     1
 90
        2
176
     1
 62
     8
420
  7895160
176
     1
 90
        3
176
     1
 90
        0
176
     1
 90
        0
176
     1
290
     0
176
     1
 90
        5
176
     1
 40
0.0
176
     1
 90
        0
176
     1
290
     0
176
     1
290
     1
176
     1
290
     1
176
     1
290
     0
176
     1
290
     0
176
     1
290
     0
176
     1
290
     0
176
     1
290
     0
176
     1
290
     0
176
     1
 90
       50
176
     1
 40
0.0
176
     1
 40
1.0
176
     1
 90
        0
176
     1
 62
    18
420
        0
176
     1
 90
       50
176
     1
 90
        3
176
     1
 62
     5
420
      255
176
     1
290
     0
176
     1
 90
       50
176
     1
 90
       50
176
     1
 90
       50
176
     1
290
     0
176
     1
 90
       50
176
     1
 62
   256
176
     0
 40
1.0
176
     0
 90
        2
176
     1
  1
strokes_ogs.tif
176
     1
290
     0
176
     1
 40
1.0
176
     1
 40
1.0
176
     1
  0
VISUALSTYLE
  5
3D
102
{ACAD_REACTORS
330
29
102
}
330
29
100
AcDbVisualStyle
  2
Shaded with edges
 70
    26
177
     3
291
     0
 70
    58
 90
        2
176
     1
 90
        2
176
     1
 90
        1
176
     1
 90
        2
176
     1
 40
0.6
176
     1
 40
30.0
176
     1
 62
     7
420
 16777215
176
     1
 90
        1
176
     1
 90
        2
176
     1
 62
     7
176
     1
 62
   257
176
     1
 90
        2
176
     1
 90
        1
176
     1
 40
1.0
176
     1
 90
        8
176
     1
 62
   257
176
     1
 40
1.0
176
     1
 90
        1
176
     1
 90
        6
176
     1
 90
        2
176
     1
 62
     7
176
     1
 90
        3
176
     1
 90
        0
176
     1
 90
        0
176
     1
290
     0
176
     1
 90
        5
176
     1
 40
0.0
176
     1
 90
        0
176
     1
290
     0
176
     1
290
     1
176
     1
290
     1
176
     1
290
     0
176
     1
290
     0
176
     1
290
     0
176
     1
290
     0
176
     1
290
     0
176
     1
290
     0
176
     1
 90
       50
176
     1
 40
0.0
176
     1
 40
1.0
176
     1
 90
        0
176
     1
 62
    18
420
        0
176
     1
 90
       50
176
     1
 90
        3
176
     1
 62
     5
420
      255
176
     1
290
     0
176
     1
 90
       50
176
     1
 90
       50
176
     1
 90
       50
176
     1
290
     0
176
     1
 90
       50
176
     1
 62
   256
176
     0
 40
1.0
176
     0
 90
        2
176
     1
  1
strokes_ogs.tif
176
     1
290
     0
176
     1
 40
1.0
176
     1
 40
1.0
176
     1
  0
VISUALSTYLE
  5
3A
102
{ACAD_REACTORS
330
29
102
}
330
29
100
AcDbVisualStyle
  2
Shades of Gray
 70
    23
177
     3
291
     0
 70
    58
 90
        2
176
     1
 90
        2
176
     1
 90
        3
176
     1
 90
        0
176
     1
 40
0.6
176
     1
 40
30.0
176
     1
 62
     7
420
 16777215
176
     1
 90
        2
176
     1
 90
        2
176
     1
 62
     7
176
     1
 62
     7
176
     1
 90
        1
176
     1
 90
        1
176
     1
 40
40.0
176
     1
 90
        8
176
     1
 62
     7
176
     1
 40
1.0
176
     1
 90
        1
176
     1
 90
        6
176
     1
 90
        2
176
     1
 62
     7
176
     1
 90
        3
176
     1
 90
        0
176
     1
 90
        0
176
     1
290
     0
176
     1
 90
        1
176
     1
 40
0.0
176
     1
 90
        0
176
     1
290
     0
176
     1
290
     1
176
     1
290
     1
176
     1
290
     0
176
     1
290
     0
176
     1
290
     0
176
     1
290
     0
176
     1
290
     0
176
     1
290
     0
176
     1
 90
       50
176
     1
 40
0.0
176
     1
 40
1.0
176
     1
 90
        0
176
     1
 62
    18
420
        0
176
     1
 90
       50
176
     1
 90
        3
176
     1
 62
     5
420
      255
176
     1
290
     0
176
     1
 90
       50
176
     1
 90
       50
176
     1
 90
       50
176
     1
290
     0
176
     1
 90
       50
176
     1
 62
   256
176
     0
 40
1.0
176
     0
 90
        2
176
     1
  1
strokes_ogs.tif
176
     1
290
     0
176
     1
 40
1.0
176
     1
 40
1.0
176
     1
  0
VISUALSTYLE
  5
3B
102
{ACAD_REACTORS
330
29
102
}
330
29
100
AcDbVisualStyle
  2
Sketchy
 70
    24
177
     3
291
     0
 70
    58
 90
        1
176
     1
 90
        2
176
     1
 90
        2
176
     1
 90
        0
176
     1
 40
0.6
176
     1
 40
30.0
176
     1
 62
     7
420
 16777215
176
     1
 90
        2
176
     1
 90
        2
176
     1
 62
     7
176
     1
 62
     7
176
     1
 90
        1
176
     1
 90
        1
176
     1
 40
40.0
176
     1
 90
       11
176
     1
 62
     7
176
     1
 40
1.0
176
     1
 90
        1
176
     1
 90
        6
176
     1
 90
        2
176
     1
 62
     7
176
     1
 90
        6
176
     1
 90
        0
176
     1
 90
        0
176
     1
290
     0
176
     1
 90
        1
176
     1
 40
0.0
176
     1
 90
        0
176
     1
290
     0
176
     1
290
     1
176
     1
290
     1
176
     1
290
     0
176
     1
290
     0
176
     1
290
     0
176
     1
290
     0
176
     1
290
     0
176
     1
290
     0
176
     1
 90
       50
176
     1
 40
0.0
176
     1
 40
1.0
176
     1
 90
        0
176
     1
 62
    18
420
        0
176
     1
 90
       50
176
     1
 90
        3
176
     1
 62
     5
420
      255
176
     1
290
     0
176
     1
 90
       50
176
     1
 90
       50
176
     1
 90
       50
176
     1
290
     0
176
     1
 90
       50
176
     1
 62
   256
176
     0
 40
1.0
176
     0
 90
        2
176
     1
  1
strokes_ogs.tif
176
     1
290
     0
176
     1
 40
1.0
176
     1
 40
1.0
176
     1
  0
VISUALSTYLE
  5
36
102
{ACAD_REACTORS
330
29
102
}
330
29
100
AcDbVisualStyle
  2
Thicken
 70
    13
177
     3
291
     1
 70
    58
 90
        2
176
     1
 90
        2
176
     1
 90
        0
176
     1
 90
        0
176
     1
 40
0.6
176
     1
 40
30.0
176
     1
 62
     7
420
 16777215
176
     1
 90
        1
176
     1
 90
        4
176
     1
 62
     7
176
     1
 62
   257
176
     1
 90
        1
176
     1
 90
        1
176
     1
 40
1.0
176
     1
 90
       12
176
     1
 62
     7
176
     1
 40
1.0
176
     1
 90
        1
176
     1
 90
        6
176
     1
 90
        2
176
     1
 62
     7
176
     1
 90
        5
176
     1
 90
        0
176
     1
 90
        0
176
     1
290
     0
176
     1
 90
        1
176
     1
 40
0.0
176
     1
 90
        0
176
     1
290
     0
176
     1
290
     1
176
     1
290
     1
176
     1
290
     0
176
     1
290
     0
176
     1
290
     0
176
     1
290
     0
176
     1
290
     0
176
     1
290
     0
176
     1
 90
       50
176
     1
 40
0.0
176
     1
 40
1.0
176
     1
 90
        0
176
     1
 62
    18
420
        0
176
     1
 90
       50
176
     1
 90
        3
176
     1
 62
     5
420
      255
176
     1
290
     0
176
     1
 90
       50
176
     1
 90
       50
176
     1
 90
       50
176
     1
290
     0
176
     1
 90
       50
176
     1
 62
   256
176
     0
 40
1.0
176
     0
 90
        2
176
     1
  1
strokes_ogs.tif
176
     1
290
     0
176
     1
 40
1.0
176
     1
 40
1.0
176
     1
  0
VISUALSTYLE
  5
30
102
{ACAD_REACTORS
330
29
102
}
330
29
100
AcDbVisualStyle
  2
Wireframe
 70
     5
177
     3
291
     0
 70
    58
 90
        0
176
     1
 90
        2
176
     1
 90
        0
176
     1
 90
        0
176
     1
 40
0.6
176
     1
 40
30.0
176
     1
 62
     7
420
 16777215
176
     1
 90
        1
176
     1
 90
        4
176
     1
 62
     7
176
     1
 62
   257
176
     1
 90
        1
176
     1
 90
        1
176
     1
 40
1.0
176
     1
 90
        0
176
     1
 62
   257
176
     1
 40
1.0
176
     1
 90
        1
176
     1
 90
        6
176
     1
 90
        2
176
     1
 62
     7
176
     1
 90
        3
176
     1
 90
        0
176
     1
 90
        0
176
     1
290
     0
176
     1
 90
        1
176
     1
 40
0.0
176
     1
 90
        0
176
     1
290
     0
176
     1
290
     1
176
     1
290
     1
176
     1
290
     0
176
     1
290
     0
176
     1
290
     0
176
     1
290
     0
176
     1
290
     0
176
     1
290
     0
176
     1
 90
       50
176
     1
 40
0.0
176
     1
 40
1.0
176
     1
 90
        0
176
     1
 62
    18
420
        0
176
     1
 90
       50
176
     1
 90
        3
176
     1
 62
     5
420
      255
176
     1
290
     0
176
     1
 90
       50
176
     1
 90
       50
176
     1
 90
       50
176
     1
290
     0
176
     1
 90
       50
176
     1
 62
   256
176
     0
 40
1.0
176
     0
 90
        2
176
     1
  1
strokes_ogs.tif
176
     1
290
     0
176
     1
 40
1.0
176
     1
 40
1.0
176
     1
  0
VISUALSTYLE
  5
3C
102
{ACAD_REACTORS
330
29
102
}
330
29
100
AcDbVisualStyle
  2
X-Ray
 70
    25
177
     3
291
     0
 70
    58
 90
        2
176
     1
 90
        2
176
     1
 90
        1
176
     1
 90
        1
176
     1
 40
0.5
176
     1
 40
30.0
176
     1
 62
     7
420
 16777215
176
     1
 90
        1
176
     1
 90
        0
176
     1
 62
     7
176
     1
 62
   257
176
     1
 90
        1
176
     1
 90
        1
176
     1
 40
1.0
176
     1
 90
        8
176
     1
 62
     7
176
     1
 40
1.0
176
     1
 90
        1
176
     1
 90
        6
176
     1
 90
        2
176
     1
 62
     7
176
     1
 90
        3
176
     1
 90
        0
176
     1
 90
        0
176
     1
290
     0
176
     1
 90
       13
176
     1
 40
0.0
176
     1
 90
        0
176
     1
290
     0
176
     1
290
     1
176
     1
290
     1
176
     1
290
     0
176
     1
290
     0
176
     1
290
     0
176
     1
290
     0
176
     1
290
     0
176
     1
290
     0
176
     1
 90
       50
176
     1
 40
0.0
176
     1
 40
1.0
176
     1
 90
        0
176
     1
 62
    18
420
        0
176
     1
 90
       50
176
     1
 90
        3
176
     1
 62
     5
420
      255
176
     1
290
     0
176
     1
 90
       50
176
     1
 90
       50
176
     1
 90
       50
176
     1
290
     0
176
     1
 90
       50
176
     1
 62
   256
176
     0
 40
1.0
176
     0
 90
        2
176
     1
  1
strokes_ogs.tif
176
     1
290
     0
176
     1
 40
1.0
176
     1
 40
1.0
176
     1
  0
DICTIONARYVAR
  5
C4
102
{ACAD_REACTORS
330
BF
102
}
330
BF
100
DictionaryVariables
280
     0
  1
1:1
  0
DICTIONARYVAR
  5
C1
102
{ACAD_REACTORS
330
BF
102
}
330
BF
100
DictionaryVariables
280
     0
  1
STANDARD
  0
DICTIONARYVAR
  5
C0
102
{ACAD_REACTORS
330
BF
102
}
330
BF
100
DictionaryVariables
280
     0
  1
STANDARD
  0
DICTIONARYVAR
  5
C2
102
{ACAD_REACTORS
330
BF
102
}
330
BF
100
DictionaryVariables
280
     0
  1
Imperial24
  0
DICTIONARYVAR
  5
C3
102
{ACAD_REACTORS
330
BF
102
}
330
BF
100
DictionaryVariables
280
     0
  1
Imperial24
  0
DICTIONARY
  5
1A
330
19
100
AcDbDictionary
280
     1
281
     1
  3
BUMPTILE
360
1C
  3
DIFFUSETILE
360
1B
  3
OPACITYTILE
360
1F
  3
REFLECTIONTILE
360
1E
  3
REFRACTIONTILE
360
20
  3
SPECULARTILE
360
1D
  0
DICTIONARY
  5
12
330
11
100
AcDbDictionary
280
     1
281
     1
  3
BUMPTILE
360
14
  3
DIFFUSETILE
360
13
  3
OPACITYTILE
360
17
  3
REFLECTIONTILE
360
16
  3
REFRACTIONTILE
360
18
  3
SPECULARTILE
360
15
  0
DICTIONARY
  5
22
330
21
100
AcDbDictionary
280
     1
281
     1
  3
BUMPTILE
360
24
  3
DIFFUSETILE
360
23
  3
OPACITYTILE
360
27
  3
REFLECTIONTILE
360
26
  3
REFRACTIONTILE
360
28
  3
SPECULARTILE
360
25
  0
DICTIONARY
  5
C5
330
65
100
AcDbDictionary
280
     1
281
     1
  3
ACAD_ROUNDTRIP_2008_TABLESTYLE_CELLSTYLEMAP
360
C6
  0
XRECORD
  5
1C
102
{ACAD_REACTORS
330
1A
102
}
330
1A
100
AcDbXrecord
280
     1
270
     1
271
     1
  0
XRECORD
  5
1B
102
{ACAD_REACTORS
330
1A
102
}
330
1A
100
AcDbXrecord
280
     1
270
     1
271
     1
  0
XRECORD
  5
1F
102
{ACAD_REACTORS
330
1A
102
}
330
1A
100
AcDbXrecord
280
     1
270
     1
271
     1
  0
XRECORD
  5
1E
102
{ACAD_REACTORS
330
1A
102
}
330
1A
100
AcDbXrecord
280
     1
270
     1
271
     1
  0
XRECORD
  5
20
102
{ACAD_REACTORS
330
1A
102
}
330
1A
100
AcDbXrecord
280
     1
270
     1
271
     1
  0
XRECORD
  5
1D
102
{ACAD_REACTORS
330
1A
102
}
330
1A
100
AcDbXrecord
280
     1
270
     1
271
     1
  0
XRECORD
  5
14
102
{ACAD_REACTORS
330
12
102
}
330
12
100
AcDbXrecord
280
     1
270
     1
271
     1
  0
XRECORD
  5
13
102
{ACAD_REACTORS
330
12
102
}
330
12
100
AcDbXrecord
280
     1
270
     1
271
     1
  0
XRECORD
  5
17
102
{ACAD_REACTORS
330
12
102
}
330
12
100
AcDbXrecord
280
     1
270
     1
271
     1
  0
XRECORD
  5
16
102
{ACAD_REACTORS
330
12
102
}
330
12
100
AcDbXrecord
280
     1
270
     1
271
     1
  0
XRECORD
  5
18
102
{ACAD_REACTORS
330
12
102
}
330
12
100
AcDbXrecord
280
     1
270
     1
271
     1
  0
XRECORD
  5
15
102
{ACAD_REACTORS
330
12
102
}
330
12
100
AcDbXrecord
280
     1
270
     1
271
     1
  0
XRECORD
  5
24
102
{ACAD_REACTORS
330
22
102
}
330
22
100
AcDbXrecord
280
     1
270
     1
271
     1
  0
XRECORD
  5
23
102
{ACAD_REACTORS
330
22
102
}
330
22
100
AcDbXrecord
280
     1
270
     1
271
     1
  0
XRECORD
  5
27
102
{ACAD_REACTORS
330
22
102
}
330
22
100
AcDbXrecord
280
     1
270
     1
271
     1
  0
XRECORD
  5
26
102
{ACAD_REACTORS
330
22
102
}
330
22
100
AcDbXrecord
280
     1
270
     1
271
     1
  0
XRECORD
  5
28
102
{ACAD_REACTORS
330
22
102
}
330
22
100
AcDbXrecord
280
     1
270
     1
271
     1
  0
XRECORD
  5
25
102
{ACAD_REACTORS
330
22
102
}
330
22
100
AcDbXrecord
280
     1
270
     1
271
     1
  0
CELLSTYLEMAP
  5
C6
102
{ACAD_REACTORS
330
C5
102
}
330
C5
100
AcDbCellStyleMap
 90
        3
300
CELLSTYLE
  1
TABLEFORMAT_BEGIN
 90
        5
170
     1
 91
        0
 92
    32768
 62
   257
 93
        1
300
CONTENTFORMAT
  1
CONTENTFORMAT_BEGIN
 90
        0
 91
        0
 92
      512
 93
        0
300

 40
0.0
140
1.0
 94
        5
 62
     0
340
55
144
0.25
309
CONTENTFORMAT_END
171
     0
 94
        0
309
TABLEFORMAT_END
  1
CELLSTYLE_BEGIN
 90
        1
 91
        1
300
_TITLE
309
CELLSTYLE_END
300
CELLSTYLE
  1
TABLEFORMAT_BEGIN
 90
        5
170
     1
 91
        0
 92
        0
 62
   257
 93
        1
300
CONTENTFORMAT
  1
CONTENTFORMAT_BEGIN
 90
        0
 91
        0
 92
      512
 93
        0
300

 40
0.0
140
1.0
 94
        5
 62
     0
340
55
144
0.18
309
CONTENTFORMAT_END
171
     0
 94
        0
309
TABLEFORMAT_END
  1
CELLSTYLE_BEGIN
 90
        2
 91
        1
300
_HEADER
309
CELLSTYLE_END
300
CELLSTYLE
  1
TABLEFORMAT_BEGIN
 90
        5
170
     1
 91
        0
 92
        0
 62
   257
 93
        1
300
CONTENTFORMAT
  1
CONTENTFORMAT_BEGIN
 90
        0
 91
        0
 92
      512
 93
        0
300

 40
0.0
140
1.0
 94
        2
 62
     0
340
55
144
0.18
309
CONTENTFORMAT_END
171
     0
 94
        0
309
TABLEFORMAT_END
  1
CELLSTYLE_BEGIN
 90
        3
 91
        2
300
_DATA
309
CELLSTYLE_END
  0
ENDSEC
  0
EOF
