  0
SECTION
  2
HEADER
  9
$ACADVER
  1
AC1032
  9
$ACADMAINTVER
 90
       55
  9
$DWGCODEPAGE
  3
ANSI_1252
  9
$LASTSAVEDBY
  1
001
  9
$REQUIREDVERSIONS
160
                 0
  9
$INSBASE
 10
0.0
 20
0.0
 30
0.0
  9
$EXTMIN
 10
-1129.1406
 20
163.6684
 30
0.0
  9
$EXTMAX
 10
1165.3541
 20
524.9367
 30
0.0
  9
$LIMMIN
 10
0.0
 20
0.0
  9
$LIMMAX
 10
12.0
 20
9.0
  9
$ORTHOMODE
 70
     0
  9
$REGENMODE
 70
     1
  9
$FILLMODE
 70
     1
  9
$QTEXTMODE
 70
     0
  9
$MIRRTEXT
 70
     1
  9
$LTSCALE
 40
1.0
  9
$ATTMODE
 70
     1
  9
$TEXTSIZE
 40
0.2
  9
$TRACEWID
 40
0.05
  9
$TEXTSTYLE
  7
Standard
  9
$CLAYER
  8
0
  9
$CELTYPE
  6
ByLayer
  9
$CECOLOR
 62
   256
  9
$CELTSCALE
 40
1.0
  9
$DISPSILH
 70
     0
  9
$DIMSCALE
 40
1.0
  9
$DIMASZ
 40
0.18
  9
$DIMEXO
 40
0.0625
  9
$DIMDLI
 40
0.38
  9
$DIMRND
 40
0.0
  9
$DIMDLE
 40
0.0
  9
$DIMEXE
 40
0.18
  9
$DIMTP
 40
0.0
  9
$DIMTM
 40
0.0
  9
$DIMTXT
 40
0.18
  9
$DIMCEN
 40
0.09
  9
$DIMTSZ
 40
0.0
  9
$DIMTOL
 70
     0
  9
$DIMLIM
 70
     0
  9
$DIMTIH
 70
     1
  9
$DIMTOH
 70
     1
  9
$DIMSE1
 70
     0
  9
$DIMSE2
 70
     0
  9
$DIMTAD
 70
     0
  9
$DIMZIN
 70
     0
  9
$DIMBLK
  1

  9
$DIMASO
 70
     1
  9
$DIMSHO
 70
     1
  9
$DIMPOST
  1

  9
$DIMAPOST
  1

  9
$DIMALT
 70
     0
  9
$DIMALTD
 70
     2
  9
$DIMALTF
 40
25.4
  9
$DIMLFAC
 40
1.0
  9
$DIMTOFL
 70
     0
  9
$DIMTVP
 40
0.0
  9
$DIMTIX
 70
     0
  9
$DIMSOXD
 70
     0
  9
$DIMSAH
 70
     0
  9
$DIMBLK1
  1

  9
$DIMBLK2
  1

  9
$DIMSTYLE
  2
Standard
  9
$DIMCLRD
 70
     0
  9
$DIMCLRE
 70
     0
  9
$DIMCLRT
 70
     0
  9
$DIMTFAC
 40
1.0
  9
$DIMGAP
 40
0.09
  9
$DIMJUST
 70
     0
  9
$DIMSD1
 70
     0
  9
$DIMSD2
 70
     0
  9
$DIMTOLJ
 70
     1
  9
$DIMTZIN
 70
     0
  9
$DIMALTZ
 70
     0
  9
$DIMALTTZ
 70
     0
  9
$DIMUPT
 70
     0
  9
$DIMDEC
 70
     4
  9
$DIMTDEC
 70
     4
  9
$DIMALTU
 70
     2
  9
$DIMALTTD
 70
     2
  9
$DIMTXSTY
  7
Standard
  9
$DIMAUNIT
 70
     0
  9
$DIMADEC
 70
     0
  9
$DIMALTRND
 40
0.0
  9
$DIMAZIN
 70
     0
  9
$DIMDSEP
 70
    46
  9
$DIMATFIT
 70
     3
  9
$DIMFRAC
 70
     0
  9
$DIMLDRBLK
  1

  9
$DIMLUNIT
 70
     2
  9
$DIMLWD
 70
    -2
  9
$DIMLWE
 70
    -2
  9
$DIMTMOVE
 70
     0
  9
$DIMFXL
 40
1.0
  9
$DIMFXLON
 70
     0
  9
$DIMJOGANG
 40
0.7853981633974483
  9
$DIMTFILL
 70
     0
  9
$DIMTFILLCLR
 70
     0
  9
$DIMARCSYM
 70
     0
  9
$DIMLTYPE
  6

  9
$DIMLTEX1
  6

  9
$DIMLTEX2
  6

  9
$DIMTXTDIRECTION
 70
     0
  9
$LUNITS
 70
     2
  9
$LUPREC
 70
     4
  9
$SKETCHINC
 40
0.1
  9
$FILLETRAD
 40
0.0
  9
$AUNITS
 70
     0
  9
$AUPREC
 70
     0
  9
$MENU
  1
.
  9
$ELEVATION
 40
0.0
  9
$PELEVATION
 40
0.0
  9
$THICKNESS
 40
0.0
  9
$LIMCHECK
 70
     0
  9
$CHAMFERA
 40
0.0
  9
$CHAMFERB
 40
0.0
  9
$CHAMFERC
 40
0.0
  9
$CHAMFERD
 40
0.0
  9
$SKPOLY
 70
     0
  9
$TDCREATE
 40
2461153.438375
  9
$TDUCREATE
 40
2461153.563375
  9
$TDUPDATE
 40
2461153.438375046
  9
$TDUUPDATE
 40
2461153.563375046
  9
$TDINDWG
 40
0.0000000116
  9
$TDUSRTIMER
 40
0.0000000116
  9
$USRTIMER
 70
     1
  9
$ANGBASE
 50
0.0
  9
$ANGDIR
 70
     0
  9
$PDMODE
 70
     0
  9
$PDSIZE
 40
0.0
  9
$PLINEWID
 40
0.0
  9
$SPLFRAME
 70
     0
  9
$SPLINETYPE
 70
     6
  9
$SPLINESEGS
 70
     8
  9
$HANDSEED
  5
6E
  9
$SURFTAB1
 70
     6
  9
$SURFTAB2
 70
     6
  9
$SURFTYPE
 70
     6
  9
$SURFU
 70
     6
  9
$SURFV
 70
     6
  9
$UCSBASE
  2

  9
$UCSNAME
  2

  9
$UCSORG
 10
0.0
 20
0.0
 30
0.0
  9
$UCSXDIR
 10
1.0
 20
0.0
 30
0.0
  9
$UCSYDIR
 10
0.0
 20
1.0
 30
0.0
  9
$UCSORTHOREF
  2

  9
$UCSORTHOVIEW
 70
     0
  9
$UCSORGTOP
 10
0.0
 20
0.0
 30
0.0
  9
$UCSORGBOTTOM
 10
0.0
 20
0.0
 30
0.0
  9
$UCSORGLEFT
 10
0.0
 20
0.0
 30
0.0
  9
$UCSORGRIGHT
 10
0.0
 20
0.0
 30
0.0
  9
$UCSORGFRONT
 10
0.0
 20
0.0
 30
0.0
  9
$UCSORGBACK
 10
0.0
 20
0.0
 30
0.0
  9
$PUCSBASE
  2

  9
$PUCSNAME
  2

  9
$PUCSORG
 10
0.0
 20
0.0
 30
0.0
  9
$PUCSXDIR
 10
1.0
 20
0.0
 30
0.0
  9
$PUCSYDIR
 10
0.0
 20
1.0
 30
0.0
  9
$PUCSORTHOREF
  2

  9
$PUCSORTHOVIEW
 70
     0
  9
$PUCSORGTOP
 10
0.0
 20
0.0
 30
0.0
  9
$PUCSORGBOTTOM
 10
0.0
 20
0.0
 30
0.0
  9
$PUCSORGLEFT
 10
0.0
 20
0.0
 30
0.0
  9
$PUCSORGRIGHT
 10
0.0
 20
0.0
 30
0.0
  9
$PUCSORGFRONT
 10
0.0
 20
0.0
 30
0.0
  9
$PUCSORGBACK
 10
0.0
 20
0.0
 30
0.0
  9
$USERI1
 70
     0
  9
$USERI2
 70
     0
  9
$USERI3
 70
     0
  9
$USERI4
 70
     0
  9
$USERI5
 70
     0
  9
$USERR1
 40
0.0
  9
$USERR2
 40
0.0
  9
$USERR3
 40
0.0
  9
$USERR4
 40
0.0
  9
$USERR5
 40
0.0
  9
$WORLDVIEW
 70
     1
  9
$SHADEDGE
 70
     3
  9
$SHADEDIF
 70
    70
  9
$TILEMODE
 70
     1
  9
$MAXACTVP
 70
    64
  9
$PINSBASE
 10
0.0
 20
0.0
 30
0.0
  9
$PLIMCHECK
 70
     0
  9
$PEXTMIN
 10
1.000000000000000E+20
 20
1.000000000000000E+20
 30
1.000000000000000E+20
  9
$PEXTMAX
 10
-1.000000000000000E+20
 20
-1.000000000000000E+20
 30
-1.000000000000000E+20
  9
$PLIMMIN
 10
0.0
 20
0.0
  9
$PLIMMAX
 10
12.0
 20
9.0
  9
$UNITMODE
 70
     0
  9
$VISRETAIN
 70
     1
  9
$PLINEGEN
 70
     0
  9
$PSLTSCALE
 70
     1
  9
$TREEDEPTH
 70
  3020
  9
$CMLSTYLE
  2
Standard
  9
$CMLJUST
 70
     0
  9
$CMLSCALE
 40
1.0
  9
$PROXYGRAPHICS
 70
     1
  9
$MEASUREMENT
 70
     0
  9
$CELWEIGHT
370
    -1
  9
$ENDCAPS
280
     0
  9
$JOINSTYLE
280
     0
  9
$LWDISPLAY
290
     0
  9
$INSUNITS
 70
     4
  9
$HYPERLINKBASE
  1

  9
$STYLESHEET
  1

  9
$XEDIT
290
     1
  9
$CEPSNTYPE
380
     0
  9
$PSTYLEMODE
290
     1
  9
$FINGERPRINTGUID
  2
{ec69e49b-4784-4a70-8a6a-987ca8eae4a6}
  9
$VERSIONGUID
  2
{FAEB1C32-E019-11D5-929B-00C0DF256EC4}
  9
$EXTNAMES
290
     1
  9
$PSVPSCALE
 40
0.0
  9
$OLESTARTUP
290
     0
  9
$SORTENTS
280
   127
  9
$INDEXCTL
280
     0
  9
$HIDETEXT
280
     1
  9
$XCLIPFRAME
280
     2
  9
$HALOGAP
280
     0
  9
$OBSCOLOR
 70
   257
  9
$OBSLTYPE
280
     0
  9
$INTERSECTIONDISPLAY
280
     0
  9
$INTERSECTIONCOLOR
 70
   257
  9
$DIMASSOC
280
     2
  9
$PROJECTNAME
  1

  9
$CAMERADISPLAY
290
     0
  9
$LENSLENGTH
 40
50.0
  9
$CAMERAHEIGHT
 40
0.0
  9
$STEPSPERSEC
 40
2.0
  9
$STEPSIZE
 40
6.0
  9
$3DDWFPREC
 40
2.0
  9
$PSOLWIDTH
 40
0.25
  9
$PSOLHEIGHT
 40
4.0
  9
$LOFTANG1
 40
1.570796326794897
  9
$LOFTANG2
 40
1.570796326794897
  9
$LOFTMAG1
 40
0.0
  9
$LOFTMAG2
 40
0.0
  9
$LOFTPARAM
 70
     7
  9
$LOFTNORMALS
280
     1
  9
$LATITUDE
 40
37.795
  9
$LONGITUDE
 40
-122.394
  9
$NORTHDIRECTION
 40
0.0
  9
$TIMEZONE
 70
 -8000
  9
$LIGHTGLYPHDISPLAY
280
     1
  9
$TILEMODELIGHTSYNCH
280
     1
  9
$CMATERIAL
347
44
  9
$SOLIDHIST
280
     0
  9
$SHOWHIST
280
     1
  9
$DWFFRAME
280
     2
  9
$DGNFRAME
280
     2
  9
$REALWORLDSCALE
290
     1
  9
$INTERFERECOLOR
 62
   256
  9
$CSHADOW
280
     0
  9
$SHADOWPLANELOCATION
 40
0.0
  0
ENDSEC
  0
SECTION
  2
CLASSES
  0
CLASS
  1
ACDBDICTIONARYWDFLT
  2
AcDbDictionaryWithDefault
  3
ObjectDBX Classes
 90
        0
 91
        3
280
     0
281
     0
  0
CLASS
  1
VISUALSTYLE
  2
AcDbVisualStyle
  3
ObjectDBX Classes
 90
     4095
 91
        3
280
     0
281
     0
  0
CLASS
  1
MATERIAL
  2
AcDbMaterial
  3
ObjectDBX Classes
 90
     1153
 91
        3
280
     0
281
     0
  0
CLASS
  1
SCALE
  2
AcDbScale
  3
ObjectDBX Classes
 90
     1153
 91
        3
280
     0
281
     0
  0
CLASS
  1
TABLESTYLE
  2
AcDbTableStyle
  3
ObjectDBX Classes
 90
     4095
 91
        3
280
     0
281
     0
  0
CLASS
  1
MLEADERSTYLE
  2
AcDbMLeaderStyle
  3
ACDB_MLEADERSTYLE_CLASS
 90
     4095
 91
        3
280
     0
281
     0
  0
CLASS
  1
SUN
  2
AcDbSun
  3
SCENEOE
 90
     1153
 91
        3
280
     0
281
     0
  0
CLASS
  1
DICTIONARYVAR
  2
AcDbDictionaryVar
  3
ObjectDBX Classes
 90
        0
 91
        3
280
     0
281
     0
  0
CLASS
  1
CELLSTYLEMAP
  2
AcDbCellStyleMap
  3
ObjectDBX Classes
 90
     1152
 91
        3
280
     0
281
     0
  0
ENDSEC
  0
SECTION
  2
TABLES
  0
TABLE
  2
VPORT
  5
8
330
0
100
AcDbSymbolTable
 70
     1
  0
VPORT
  5
29
330
8
100
AcDbSymbolTableRecord
100
AcDbViewportTableRecord
  2
*Active
 70
     0
 10
0.0
 20
0.0
 11
1.0
 21
1.0
 12
10.42990654205607
 22
4.5
 13
0.0
 23
0.0
 14
0.5
 24
0.5
 15
0.5
 25
0.5
 16
0.0
 26
0.0
 36
1.0
 17
0.0
 27
0.0
 37
0.0
 40
9.0
 41
1.972972972850329
 42
50.0
 43
0.0
 44
0.0
 50
0.0
 51
0.0
 71
     0
 72
   100
 73
     1
 74
     3
 75
     0
 76
     0
 77
     0
 78
     0
281
     0
 65
     1
110
0.0
120
0.0
130
0.0
111
1.0
121
0.0
131
0.0
112
0.0
122
1.0
132
0.0
 79
     0
146
0.0
348
2F
 60
     3
 61
     5
292
     1
282
     1
141
0.0
142
0.0
 63
   250
361
5D
  0
ENDTAB
  0
TABLE
  2
LTYPE
  5
5
330
0
100
AcDbSymbolTable
 70
     1
  0
LTYPE
  5
14
330
5
100
AcDbSymbolTableRecord
100
AcDbLinetypeTableRecord
  2
ByBlock
 70
     0
  3

 72
    65
 73
     0
 40
0.0
  0
LTYPE
  5
15
330
5
100
AcDbSymbolTableRecord
100
AcDbLinetypeTableRecord
  2
ByLayer
 70
     0
  3

 72
    65
 73
     0
 40
0.0
  0
LTYPE
  5
16
330
5
100
AcDbSymbolTableRecord
100
AcDbLinetypeTableRecord
  2
Continuous
 70
     0
  3
Solid line
 72
    65
 73
     0
 40
0.0
  0
ENDTAB
  0
TABLE
  2
LAYER
  5
2
330
0
100
AcDbSymbolTable
 70
     2
  0
LAYER
  5
10
330
2
100
AcDbSymbolTableRecord
100
AcDbLayerTableRecord
  2
0
 70
     0
 62
     7
  6
Continuous
370
    -3
390
F
347
46
348
0
  0
LAYER
  5
5F
330
2
100
AcDbSymbolTableRecord
100
AcDbLayerTableRecord
  2
Camada 1
 70
     0
 62
     7
  6
Continuous
370
    -3
390
F
347
46
348
0
  0
ENDTAB
  0
TABLE
  2
STYLE
  5
3
330
0
100
AcDbSymbolTable
 70
     1
  0
STYLE
  5
11
330
3
100
AcDbSymbolTableRecord
100
AcDbTextStyleTableRecord
  2
Standard
 70
     0
 40
0.0
 41
1.0
 50
0.0
 71
     0
 42
0.2
  3
txt
  4

  0
ENDTAB
  0
TABLE
  2
VIEW
  5
6
330
0
100
AcDbSymbolTable
 70
     0
  0
ENDTAB
  0
TABLE
  2
UCS
  5
7
330
0
100
AcDbSymbolTable
 70
     0
  0
ENDTAB
  0
TABLE
  2
APPID
  5
9
330
0
100
AcDbSymbolTable
 70
     2
  0
APPID
  5
12
330
9
100
AcDbSymbolTableRecord
100
AcDbRegAppTableRecord
  2
ACAD
 70
     0
  0
APPID
  5
5E
330
9
100
AcDbSymbolTableRecord
100
AcDbRegAppTableRecord
  2
ODA
 70
     0
  0
ENDTAB
  0
TABLE
  2
DIMSTYLE
  5
A
330
0
100
AcDbSymbolTable
 70
     1
100
AcDbDimStyleTable
  0
DIMSTYLE
105
27
330
A
100
AcDbSymbolTableRecord
100
AcDbDimStyleTableRecord
  2
Standard
 70
     0
178
     0
340
11
  0
ENDTAB
  0
TABLE
  2
BLOCK_RECORD
  5
1
330
0
100
AcDbSymbolTable
 70
     1
  0
BLOCK_RECORD
  5
1F
330
1
100
AcDbSymbolTableRecord
100
AcDbBlockTableRecord
  2
*Model_Space
340
22
 70
     0
280
     1
281
     0
  0
BLOCK_RECORD
  5
1B
330
1
100
AcDbSymbolTableRecord
100
AcDbBlockTableRecord
  2
*Paper_Space
340
1E
 70
     0
280
     1
281
     0
  0
BLOCK_RECORD
  5
23
330
1
100
AcDbSymbolTableRecord
100
AcDbBlockTableRecord
  2
*Paper_Space0
340
26
 70
     0
280
     1
281
     0
  0
ENDTAB
  0
ENDSEC
  0
SECTION
  2
BLOCKS
  0
BLOCK
  5
20
330
1F
100
AcDbEntity
  8
0
100
AcDbBlockBegin
  2
*Model_Space
 70
     0
 10
0.0
 20
0.0
 30
0.0
  3
*Model_Space
  1

  0
ENDBLK
  5
21
330
1F
100
AcDbEntity
  8
0
100
AcDbBlockEnd
  0
BLOCK
  5
1C
330
1B
100
AcDbEntity
 67
     1
  8
0
100
AcDbBlockBegin
  2
*Paper_Space
 70
     0
 10
0.0
 20
0.0
 30
0.0
  3
*Paper_Space
  1

  0
ENDBLK
  5
1D
330
1B
100
AcDbEntity
 67
     1
  8
0
100
AcDbBlockEnd
  0
BLOCK
  5
24
330
23
100
AcDbEntity
  8
0
100
AcDbBlockBegin
  2
*Paper_Space0
 70
     0
 10
0.0
 20
0.0
 30
0.0
  3
*Paper_Space0
  1

  0
ENDBLK
  5
25
330
23
100
AcDbEntity
  8
0
100
AcDbBlockEnd
  0
ENDSEC
  0
SECTION
  2
ENTITIES
  0
SPLINE
  5
60
330
1F
100
AcDbEntity
  8
Camada 1
370
     9
100
AcDbSpline
210
0.0
220
0.0
230
1.0
 70
    11
 71
     3
 72
   209
 73
   205
 74
     0
 42
0.0000000001
 43
0.0000000001
 40
0.0
 40
0.0
 40
0.0
 40
0.0
 40
0.0147058823529412
 40
0.0147058823529412
 40
0.0147058823529412
 40
0.0294117647058824
 40
0.0294117647058824
 40
0.0294117647058824
 40
0.0441176470588235
 40
0.0441176470588235
 40
0.0441176470588235
 40
0.0588235294117647
 40
0.0588235294117647
 40
0.0588235294117647
 40
0.0735294117647059
 40
0.0735294117647059
 40
0.0735294117647059
 40
0.0882352941176471
 40
0.0882352941176471
 40
0.0882352941176471
 40
0.1029411764705882
 40
0.1029411764705882
 40
0.1029411764705882
 40
0.1176470588235294
 40
0.1176470588235294
 40
0.1176470588235294
 40
0.1323529411764706
 40
0.1323529411764706
 40
0.1323529411764706
 40
0.1470588235294118
 40
0.1470588235294118
 40
0.1470588235294118
 40
0.1617647058823529
 40
0.1617647058823529
 40
0.1617647058823529
 40
0.1764705882352941
 40
0.1764705882352941
 40
0.1764705882352941
 40
0.1911764705882353
 40
0.1911764705882353
 40
0.1911764705882353
 40
0.2058823529411765
 40
0.2058823529411765
 40
0.2058823529411765
 40
0.2205882352941176
 40
0.2205882352941176
 40
0.2205882352941176
 40
0.2352941176470588
 40
0.2352941176470588
 40
0.2352941176470588
 40
0.25
 40
0.25
 40
0.25
 40
0.2647058823529412
 40
0.2647058823529412
 40
0.2647058823529412
 40
0.2794117647058824
 40
0.2794117647058824
 40
0.2794117647058824
 40
0.2941176470588235
 40
0.2941176470588235
 40
0.2941176470588235
 40
0.3088235294117647
 40
0.3088235294117647
 40
0.3088235294117647
 40
0.3235294117647059
 40
0.3235294117647059
 40
0.3235294117647059
 40
0.3382352941176471
 40
0.3382352941176471
 40
0.3382352941176471
 40
0.3529411764705882
 40
0.3529411764705882
 40
0.3529411764705882
 40
0.3676470588235294
 40
0.3676470588235294
 40
0.3676470588235294
 40
0.3823529411764706
 40
0.3823529411764706
 40
0.3823529411764706
 40
0.3970588235294117
 40
0.3970588235294117
 40
0.3970588235294117
 40
0.4117647058823529
 40
0.4117647058823529
 40
0.4117647058823529
 40
0.4264705882352941
 40
0.4264705882352941
 40
0.4264705882352941
 40
0.4411764705882353
 40
0.4411764705882353
 40
0.4411764705882353
 40
0.4558823529411765
 40
0.4558823529411765
 40
0.4558823529411765
 40
0.4705882352941176
 40
0.4705882352941176
 40
0.4705882352941176
 40
0.4852941176470588
 40
0.4852941176470588
 40
0.4852941176470588
 40
0.5
 40
0.5
 40
0.5
 40
0.5147058823529411
 40
0.5147058823529411
 40
0.5147058823529411
 40
0.5294117647058824
 40
0.5294117647058824
 40
0.5294117647058824
 40
0.5441176470588235
 40
0.5441176470588235
 40
0.5441176470588235
 40
0.5588235294117647
 40
0.5588235294117647
 40
0.5588235294117647
 40
0.5735294117647058
 40
0.5735294117647058
 40
0.5735294117647058
 40
0.5882352941176471
 40
0.5882352941176471
 40
0.5882352941176471
 40
0.6029411764705882
 40
0.6029411764705882
 40
0.6029411764705882
 40
0.6176470588235294
 40
0.6176470588235294
 40
0.6176470588235294
 40
0.6323529411764706
 40
0.6323529411764706
 40
0.6323529411764706
 40
0.6470588235294118
 40
0.6470588235294118
 40
0.6470588235294118
 40
0.6617647058823529
 40
0.6617647058823529
 40
0.6617647058823529
 40
0.6764705882352942
 40
0.6764705882352942
 40
0.6764705882352942
 40
0.6911764705882353
 40
0.6911764705882353
 40
0.6911764705882353
 40
0.7058823529411764
 40
0.7058823529411764
 40
0.7058823529411764
 40
0.7205882352941176
 40
0.7205882352941176
 40
0.7205882352941176
 40
0.7352941176470588
 40
0.7352941176470588
 40
0.7352941176470588
 40
0.75
 40
0.75
 40
0.75
 40
0.7647058823529411
 40
0.7647058823529411
 40
0.7647058823529411
 40
0.7794117647058824
 40
0.7794117647058824
 40
0.7794117647058824
 40
0.7941176470588235
 40
0.7941176470588235
 40
0.7941176470588235
 40
0.8088235294117647
 40
0.8088235294117647
 40
0.8088235294117647
 40
0.8235294117647058
 40
0.8235294117647058
 40
0.8235294117647058
 40
0.8382352941176471
 40
0.8382352941176471
 40
0.8382352941176471
 40
0.8529411764705882
 40
0.8529411764705882
 40
0.8529411764705882
 40
0.8676470588235294
 40
0.8676470588235294
 40
0.8676470588235294
 40
0.8823529411764706
 40
0.8823529411764706
 40
0.8823529411764706
 40
0.8970588235294118
 40
0.8970588235294118
 40
0.8970588235294118
 40
0.9117647058823529
 40
0.9117647058823529
 40
0.9117647058823529
 40
0.9264705882352942
 40
0.9264705882352942
 40
0.9264705882352942
 40
0.9411764705882353
 40
0.9411764705882353
 40
0.9411764705882353
 40
0.9558823529411764
 40
0.9558823529411764
 40
0.9558823529411764
 40
0.9705882352941176
 40
0.9705882352941176
 40
0.9705882352941176
 40
0.9852941176470588
 40
0.9852941176470588
 40
0.9852941176470588
 40
1.0
 40
1.0
 40
1.0
 40
1.0
 10
-882.6811
 20
177.6864
 30
0.0
 10
-896.204
 20
173.6497
 30
0.0
 10
-909.7893
 20
170.3182
 30
0.0
 10
-923.722
 20
168.0366
 30
0.0
 10
-937.6636
 20
165.7536
 30
0.0
 10
-951.6865
 20
164.5428
 30
0.0
 10
-965.7854
 20
163.7842
 30
0.0
 10
-965.9824
 20
163.7736
 30
0.0
 10
-966.1795
 20
163.7684
 30
0.0
 10
-966.3768
 20
163.7684
 30
0.0
 10
-990.0043
 20
163.7684
 30
0.0
 10
-1013.6319
 20
163.7684
 30
0.0
 10
-1037.2594
 20
163.7684
 30
0.0
 10
-1037.4567
 20
163.7684
 30
0.0
 10
-1037.6538
 20
163.7736
 30
0.0
 10
-1037.8508
 20
163.7842
 30
0.0
 10
-1051.9497
 20
164.5427
 30
0.0
 10
-1065.9727
 20
165.7536
 30
0.0
 10
-1079.9143
 20
168.0366
 30
0.0
 10
-1093.8471
 20
170.3182
 30
0.0
 10
-1107.4323
 20
173.6497
 30
0.0
 10
-1120.9552
 20
177.6864
 30
0.0
 10
-1128.1278
 20
179.8275
 30
0.0
 10
-1129.9499
 20
188.013
 30
0.0
 10
-1128.7589
 20
194.6027
 30
0.0
 10
-1125.0836
 20
214.9405
 30
0.0
 10
-1120.7488
 20
234.9345
 30
0.0
 10
-1115.4391
 20
254.9118
 30
0.0
 10
-1111.7308
 20
268.8639
 30
0.0
 10
-1107.8926
 20
282.6734
 30
0.0
 10
-1104.9956
 20
296.8306
 30
0.0
 10
-1103.0709
 20
306.2361
 30
0.0
 10
-1101.7059
 20
315.6889
 30
0.0
 10
-1100.1593
 20
325.157
 30
0.0
 10
-1096.3492
 20
348.4811
 30
0.0
 10
-1090.0594
 20
375.0764
 30
0.0
 10
-1080.2082
 20
396.5612
 30
0.0
 10
-1073.6931
 20
410.7703
 30
0.0
 10
-1064.6337
 20
425.2704
 30
0.0
 10
-1054.6315
 20
437.2846
 30
0.0
 10
-1041.6141
 20
452.9206
 30
0.0
 10
-1025.3991
 20
461.671
 30
0.0
 10
-1005.0021
 20
463.0217
 30
0.0
 10
-1004.9177
 20
463.0273
 30
0.0
 10
-1004.8332
 20
463.0319
 30
0.0
 10
-1004.7487
 20
463.0355
 30
0.0
 10
-1004.7262
 20
463.0366
 30
0.0
 10
-1004.7039
 20
463.0376
 30
0.0
 10
-1004.6818
 20
463.0385
 30
0.0
 10
-1004.6461
 20
463.0401
 30
0.0
 10
-1004.6103
 20
463.0416
 30
0.0
 10
-1004.5746
 20
463.0429
 30
0.0
 10
-1004.5746
 20
463.0429
 30
0.0
 10
-1004.5321
 20
463.0447
 30
0.0
 10
-1004.5321
 20
463.0447
 30
0.0
 10
-1004.5321
 20
463.0447
 30
0.0
 10
-1004.5214
 20
463.0447
 30
0.0
 10
-1004.5214
 20
463.0447
 30
0.0
 10
-1003.0784
 20
463.09
 30
0.0
 10
-1000.5579
 20
463.09
 30
0.0
 10
-999.1149
 20
463.0447
 30
0.0
 10
-999.1149
 20
463.0447
 30
0.0
 10
-999.1072
 20
463.0447
 30
0.0
 10
-999.1072
 20
463.0447
 30
0.0
 10
-999.1072
 20
463.0447
 30
0.0
 10
-999.0777
 20
463.0435
 30
0.0
 10
-999.0777
 20
463.0435
 30
0.0
 10
-999.0366
 20
463.042
 30
0.0
 10
-998.9955
 20
463.0404
 30
0.0
 10
-998.9544
 20
463.0385
 30
0.0
 10
-998.9323
 20
463.0376
 30
0.0
 10
-998.9101
 20
463.0366
 30
0.0
 10
-998.8876
 20
463.0355
 30
0.0
 10
-998.803
 20
463.0319
 30
0.0
 10
-998.7185
 20
463.0273
 30
0.0
 10
-998.634
 20
463.0217
 30
0.0
 10
-978.2371
 20
461.671
 30
0.0
 10
-962.0221
 20
452.9206
 30
0.0
 10
-949.0047
 20
437.2846
 30
0.0
 10
-939.0024
 20
425.2704
 30
0.0
 10
-929.9431
 20
410.7703
 30
0.0
 10
-923.428
 20
396.5612
 30
0.0
 10
-913.5768
 20
375.0764
 30
0.0
 10
-907.287
 20
348.4811
 30
0.0
 10
-903.4769
 20
325.157
 30
0.0
 10
-901.9303
 20
315.6889
 30
0.0
 10
-900.5653
 20
306.2361
 30
0.0
 10
-898.6406
 20
296.8306
 30
0.0
 10
-895.7436
 20
282.6734
 30
0.0
 10
-891.9054
 20
268.8639
 30
0.0
 10
-888.1971
 20
254.9118
 30
0.0
 10
-885.0276
 20
242.9869
 30
0.0
 10
-882.2056
 20
231.0561
 30
0.0
 10
-879.6638
 20
219.0498
 30
0.0
 10
-879.5868
 20
218.6862
 30
0.0
 10
-879.7036
 20
218.3355
 30
0.0
 10
-879.9831
 20
218.0906
 30
0.0
 10
-879.9831
 20
218.0906
 30
0.0
 10
-880.6624
 20
217.4953
 30
0.0
 10
-880.6624
 20
217.4953
 30
0.0
 10
-880.6624
 20
217.4953
 30
0.0
 10
-880.6624
 20
217.4953
 30
0.0
 10
-880.6624
 20
217.4953
 30
0.0
 10
-880.9386
 20
217.2533
 30
0.0
 10
-881.0557
 20
216.9086
 30
0.0
 10
-880.9841
 20
216.5484
 30
0.0
 10
-880.9126
 20
216.1883
 30
0.0
 10
-880.6727
 20
215.9145
 30
0.0
 10
-880.325
 20
215.7964
 30
0.0
 10
-880.325
 20
215.7964
 30
0.0
 10
-880.325
 20
215.7964
 30
0.0
 10
-880.325
 20
215.7964
 30
0.0
 10
-880.325
 20
215.7964
 30
0.0
 10
-879.4225
 20
215.4896
 30
0.0
 10
-879.4225
 20
215.4896
 30
0.0
 10
-879.0772
 20
215.3722
 30
0.0
 10
-878.8384
 20
215.1017
 30
0.0
 10
-878.7649
 20
214.7445
 30
0.0
 10
-878.5965
 20
213.9265
 30
0.0
 10
-878.4292
 20
213.1079
 30
0.0
 10
-878.2633
 20
212.289
 30
0.0
 10
-878.1901
 20
211.9278
 30
0.0
 10
-878.3071
 20
211.5812
 30
0.0
 10
-878.5843
 20
211.3383
 30
0.0
 10
-878.5843
 20
211.3383
 30
0.0
 10
-879.313
 20
210.6997
 30
0.0
 10
-879.313
 20
210.6997
 30
0.0
 10
-879.313
 20
210.6997
 30
0.0
 10
-879.3131
 20
210.6996
 30
0.0
 10
-879.3131
 20
210.6996
 30
0.0
 10
-879.5892
 20
210.4576
 30
0.0
 10
-879.7063
 20
210.1129
 30
0.0
 10
-879.6348
 20
209.7528
 30
0.0
 10
-879.5633
 20
209.3927
 30
0.0
 10
-879.3234
 20
209.1189
 30
0.0
 10
-878.9757
 20
209.0008
 30
0.0
 10
-878.9757
 20
209.0008
 30
0.0
 10
-878.9755
 20
209.0007
 30
0.0
 10
-878.9755
 20
209.0007
 30
0.0
 10
-878.9755
 20
209.0007
 30
0.0
 10
-878.0526
 20
208.687
 30
0.0
 10
-878.0526
 20
208.687
 30
0.0
 10
-877.7043
 20
208.5686
 30
0.0
 10
-877.464
 20
208.294
 30
0.0
 10
-877.3931
 20
207.933
 30
0.0
 10
-877.3916
 20
207.9249
 30
0.0
 10
-877.3899
 20
207.9167
 30
0.0
 10
-877.3883
 20
207.9085
 30
0.0
 10
-877.3175
 20
207.5488
 30
0.0
 10
-877.4348
 20
207.2049
 30
0.0
 10
-877.7105
 20
206.9633
 30
0.0
 10
-877.7105
 20
206.9633
 30
0.0
 10
-878.4435
 20
206.321
 30
0.0
 10
-878.4435
 20
206.321
 30
0.0
 10
-878.7194
 20
206.0792
 30
0.0
 10
-878.8366
 20
205.735
 30
0.0
 10
-878.7655
 20
205.3751
 30
0.0
 10
-878.7655
 20
205.3747
 30
0.0
 10
-878.7653
 20
205.3744
 30
0.0
 10
-878.7653
 20
205.3741
 30
0.0
 10
-878.6938
 20
205.0141
 30
0.0
 10
-878.4539
 20
204.7402
 30
0.0
 10
-878.1062
 20
204.6221
 30
0.0
 10
-878.1062
 20
204.6221
 30
0.0
 10
-878.1061
 20
204.622
 30
0.0
 10
-878.1061
 20
204.622
 30
0.0
 10
-878.1061
 20
204.622
 30
0.0
 10
-877.2037
 20
204.3153
 30
0.0
 10
-877.2037
 20
204.3153
 30
0.0
 10
-876.8538
 20
204.1964
 30
0.0
 10
-876.6128
 20
203.9196
 30
0.0
 10
-876.5433
 20
203.5566
 30
0.0
 10
-876.5433
 20
203.5566
 30
0.0
 10
-876.5344
 20
203.5102
 30
0.0
 10
-876.5344
 20
203.5102
 30
0.0
 10
-876.4658
 20
203.1519
 30
0.0
 10
-876.5831
 20
202.8105
 30
0.0
 10
-876.8575
 20
202.5701
 30
0.0
 10
-876.8575
 20
202.5701
 30
0.0
 10
-877.5739
 20
201.9423
 30
0.0
 10
-877.5739
 20
201.9423
 30
0.0
 10
-877.5739
 20
201.9423
 30
0.0
 10
-877.574
 20
201.9422
 30
0.0
 10
-877.574
 20
201.9422
 30
0.0
 10
-877.8502
 20
201.7002
 30
0.0
 10
-877.9673
 20
201.3555
 30
0.0
 10
-877.8958
 20
200.9954
 30
0.0
 10
-877.8242
 20
200.6352
 30
0.0
 10
-877.5843
 20
200.3614
 30
0.0
 10
-877.2367
 20
200.2433
 30
0.0
 10
-877.2367
 20
200.2433
 30
0.0
 10
-877.2366
 20
200.2433
 30
0.0
 10
-877.2366
 20
200.2433
 30
0.0
 10
-877.2366
 20
200.2433
 30
0.0
 10
-876.3798
 20
199.9522
 30
0.0
 10
-876.3798
 20
199.9522
 30
0.0
 10
-876.0281
 20
199.8327
 30
0.0
 10
-875.7865
 20
199.5534
 30
0.0
 10
-875.7185
 20
199.1883
 30
0.0
 10
-875.4344
 20
197.6616
 30
0.0
 10
-875.1538
 20
196.1332
 30
0.0
 10
-874.8773
 20
194.6027
 30
0.0
 10
-873.6833
 20
187.9951
 30
0.0
 10
-875.5123
 20
179.8264
 30
0.0
 10
-882.6811
 20
177.6864
 30
0.0
  0
SPLINE
  5
61
330
1F
100
AcDbEntity
  8
Camada 1
370
     9
100
AcDbSpline
210
0.0
220
0.0
230
1.0
 70
    11
 71
     3
 72
   167
 73
   163
 74
     0
 42
0.0000000001
 43
0.0000000001
 40
0.0
 40
0.0
 40
0.0
 40
0.0
 40
0.0185185185185185
 40
0.0185185185185185
 40
0.0185185185185185
 40
0.037037037037037
 40
0.037037037037037
 40
0.037037037037037
 40
0.0555555555555556
 40
0.0555555555555556
 40
0.0555555555555556
 40
0.0740740740740741
 40
0.0740740740740741
 40
0.0740740740740741
 40
0.0925925925925926
 40
0.0925925925925926
 40
0.0925925925925926
 40
0.1111111111111111
 40
0.1111111111111111
 40
0.1111111111111111
 40
0.1296296296296296
 40
0.1296296296296296
 40
0.1296296296296296
 40
0.1481481481481481
 40
0.1481481481481481
 40
0.1481481481481481
 40
0.1666666666666667
 40
0.1666666666666667
 40
0.1666666666666667
 40
0.1851851851851852
 40
0.1851851851851852
 40
0.1851851851851852
 40
0.2037037037037037
 40
0.2037037037037037
 40
0.2037037037037037
 40
0.2222222222222222
 40
0.2222222222222222
 40
0.2222222222222222
 40
0.2407407407407407
 40
0.2407407407407407
 40
0.2407407407407407
 40
0.2592592592592592
 40
0.2592592592592592
 40
0.2592592592592592
 40
0.2777777777777778
 40
0.2777777777777778
 40
0.2777777777777778
 40
0.2962962962962963
 40
0.2962962962962963
 40
0.2962962962962963
 40
0.3148148148148148
 40
0.3148148148148148
 40
0.3148148148148148
 40
0.3333333333333333
 40
0.3333333333333333
 40
0.3333333333333333
 40
0.3518518518518519
 40
0.3518518518518519
 40
0.3518518518518519
 40
0.3703703703703703
 40
0.3703703703703703
 40
0.3703703703703703
 40
0.3888888888888888
 40
0.3888888888888888
 40
0.3888888888888888
 40
0.4074074074074074
 40
0.4074074074074074
 40
0.4074074074074074
 40
0.4259259259259259
 40
0.4259259259259259
 40
0.4259259259259259
 40
0.4444444444444444
 40
0.4444444444444444
 40
0.4444444444444444
 40
0.4629629629629629
 40
0.4629629629629629
 40
0.4629629629629629
 40
0.4814814814814815
 40
0.4814814814814815
 40
0.4814814814814815
 40
0.5
 40
0.5
 40
0.5
 40
0.5185185185185185
 40
0.5185185185185185
 40
0.5185185185185185
 40
0.537037037037037
 40
0.537037037037037
 40
0.537037037037037
 40
0.5555555555555556
 40
0.5555555555555556
 40
0.5555555555555556
 40
0.5740740740740741
 40
0.5740740740740741
 40
0.5740740740740741
 40
0.5925925925925926
 40
0.5925925925925926
 40
0.5925925925925926
 40
0.611111111111111
 40
0.611111111111111
 40
0.611111111111111
 40
0.6296296296296295
 40
0.6296296296296295
 40
0.6296296296296295
 40
0.6481481481481481
 40
0.6481481481481481
 40
0.6481481481481481
 40
0.6666666666666666
 40
0.6666666666666666
 40
0.6666666666666666
 40
0.6851851851851851
 40
0.6851851851851851
 40
0.6851851851851851
 40
0.7037037037037037
 40
0.7037037037037037
 40
0.7037037037037037
 40
0.7222222222222222
 40
0.7222222222222222
 40
0.7222222222222222
 40
0.7407407407407407
 40
0.7407407407407407
 40
0.7407407407407407
 40
0.7592592592592592
 40
0.7592592592592592
 40
0.7592592592592592
 40
0.7777777777777777
 40
0.7777777777777777
 40
0.7777777777777777
 40
0.7962962962962963
 40
0.7962962962962963
 40
0.7962962962962963
 40
0.8148148148148148
 40
0.8148148148148148
 40
0.8148148148148148
 40
0.8333333333333333
 40
0.8333333333333333
 40
0.8333333333333333
 40
0.8518518518518519
 40
0.8518518518518519
 40
0.8518518518518519
 40
0.8703703703703703
 40
0.8703703703703703
 40
0.8703703703703703
 40
0.8888888888888888
 40
0.8888888888888888
 40
0.8888888888888888
 40
0.9074074074074073
 40
0.9074074074074073
 40
0.9074074074074073
 40
0.9259259259259258
 40
0.9259259259259258
 40
0.9259259259259258
 40
0.9444444444444444
 40
0.9444444444444444
 40
0.9444444444444444
 40
0.9629629629629629
 40
0.9629629629629629
 40
0.9629629629629629
 40
0.9814814814814814
 40
0.9814814814814814
 40
0.9814814814814814
 40
1.0
 40
1.0
 40
1.0
 40
1.0
 10
-376.352
 20
178.5158
 30
0.0
 10
-390.5506
 20
174.2391
 30
0.0
 10
-404.8157
 20
170.7064
 30
0.0
 10
-419.4522
 20
168.2875
 30
0.0
 10
-434.0883
 20
165.8685
 30
0.0
 10
-448.811
 20
164.5868
 30
0.0
 10
-463.6154
 20
163.7845
 30
0.0
 10
-463.8139
 20
163.7737
 30
0.0
 10
-464.0126
 20
163.7684
 30
0.0
 10
-464.2114
 20
163.7684
 30
0.0
 10
-489.0
 20
163.7684
 30
0.0
 10
-513.7886
 20
163.7684
 30
0.0
 10
-538.5772
 20
163.7684
 30
0.0
 10
-538.776
 20
163.7684
 30
0.0
 10
-538.9747
 20
163.7737
 30
0.0
 10
-539.1732
 20
163.7845
 30
0.0
 10
-553.9776
 20
164.5868
 30
0.0
 10
-568.7003
 20
165.8685
 30
0.0
 10
-583.3365
 20
168.2875
 30
0.0
 10
-597.9731
 20
170.7065
 30
0.0
 10
-612.2382
 20
174.2392
 30
0.0
 10
-626.4369
 20
178.5159
 30
0.0
 10
-633.653
 20
180.6896
 30
0.0
 10
-635.2733
 20
189.0683
 30
0.0
 10
-634.0937
 20
195.6472
 30
0.0
 10
-630.2404
 20
217.1366
 30
0.0
 10
-625.6945
 20
238.2672
 30
0.0
 10
-620.1253
 20
259.3811
 30
0.0
 10
-616.2317
 20
274.1425
 30
0.0
 10
-612.2019
 20
288.7544
 30
0.0
 10
-609.1607
 20
303.7298
 30
0.0
 10
-607.1396
 20
313.6817
 30
0.0
 10
-605.7062
 20
323.6823
 30
0.0
 10
-604.0822
 20
333.6993
 30
0.0
 10
-600.1204
 20
358.1369
 30
0.0
 10
-593.4551
 20
386.4844
 30
0.0
 10
-583.1996
 20
409.0215
 30
0.0
 10
-576.3908
 20
423.9844
 30
0.0
 10
-566.9192
 20
439.2672
 30
0.0
 10
-556.4479
 20
451.9408
 30
0.0
 10
-542.9063
 20
468.3304
 30
0.0
 10
-526.0254
 20
477.5497
 30
0.0
 10
-504.7067
 20
478.972
 30
0.0
 10
-504.6206
 20
478.9778
 30
0.0
 10
-504.5343
 20
478.9825
 30
0.0
 10
-504.4481
 20
478.9862
 30
0.0
 10
-504.4177
 20
478.9876
 30
0.0
 10
-504.3878
 20
478.9889
 30
0.0
 10
-504.358
 20
478.9901
 30
0.0
 10
-502.983
 20
479.054
 30
0.0
 10
-499.8056
 20
479.054
 30
0.0
 10
-498.4306
 20
478.9901
 30
0.0
 10
-498.401
 20
478.9889
 30
0.0
 10
-498.3712
 20
478.9876
 30
0.0
 10
-498.341
 20
478.9862
 30
0.0
 10
-498.2545
 20
478.9825
 30
0.0
 10
-498.1681
 20
478.9778
 30
0.0
 10
-498.0817
 20
478.972
 30
0.0
 10
-476.7631
 20
477.5494
 30
0.0
 10
-459.8823
 20
468.3304
 30
0.0
 10
-446.3407
 20
451.9408
 30
0.0
 10
-435.8694
 20
439.2672
 30
0.0
 10
-426.3978
 20
423.9844
 30
0.0
 10
-419.589
 20
409.0215
 30
0.0
 10
-409.3335
 20
386.4844
 30
0.0
 10
-402.6682
 20
358.1369
 30
0.0
 10
-398.7064
 20
333.6993
 30
0.0
 10
-397.0824
 20
323.6823
 30
0.0
 10
-395.649
 20
313.6817
 30
0.0
 10
-393.6279
 20
303.7298
 30
0.0
 10
-390.5867
 20
288.7544
 30
0.0
 10
-386.5569
 20
274.1425
 30
0.0
 10
-382.6633
 20
259.381
 30
0.0
 10
-379.5085
 20
247.4203
 30
0.0
 10
-376.6819
 20
235.4543
 30
0.0
 10
-374.1238
 20
223.4206
 30
0.0
 10
-374.0466
 20
223.0572
 30
0.0
 10
-374.1629
 20
222.7065
 30
0.0
 10
-374.4421
 20
222.4613
 30
0.0
 10
-374.4421
 20
222.4613
 30
0.0
 10
-375.1109
 20
221.874
 30
0.0
 10
-375.1109
 20
221.874
 30
0.0
 10
-375.3868
 20
221.6317
 30
0.0
 10
-375.5035
 20
221.2869
 30
0.0
 10
-375.4317
 20
220.9269
 30
0.0
 10
-375.3598
 20
220.5668
 30
0.0
 10
-375.1196
 20
220.2933
 30
0.0
 10
-374.7719
 20
220.1755
 30
0.0
 10
-374.7719
 20
220.1755
 30
0.0
 10
-373.8818
 20
219.874
 30
0.0
 10
-373.8818
 20
219.874
 30
0.0
 10
-373.5364
 20
219.757
 30
0.0
 10
-373.2974
 20
219.4868
 30
0.0
 10
-373.2234
 20
219.1297
 30
0.0
 10
-373.0532
 20
218.3074
 30
0.0
 10
-372.8841
 20
217.4848
 30
0.0
 10
-372.7163
 20
216.6617
 30
0.0
 10
-372.6427
 20
216.3005
 30
0.0
 10
-372.7593
 20
215.9538
 30
0.0
 10
-373.0363
 20
215.7106
 30
0.0
 10
-373.0363
 20
215.7106
 30
0.0
 10
-373.7548
 20
215.0796
 30
0.0
 10
-373.7548
 20
215.0796
 30
0.0
 10
-374.0307
 20
214.8373
 30
0.0
 10
-374.1475
 20
214.4926
 30
0.0
 10
-374.0756
 20
214.1325
 30
0.0
 10
-374.0037
 20
213.7724
 30
0.0
 10
-373.7636
 20
213.4989
 30
0.0
 10
-373.4158
 20
213.3811
 30
0.0
 10
-373.4158
 20
213.3811
 30
0.0
 10
-372.5025
 20
213.0717
 30
0.0
 10
-372.5025
 20
213.0717
 30
0.0
 10
-372.1545
 20
212.9538
 30
0.0
 10
-371.9141
 20
212.6799
 30
0.0
 10
-371.8425
 20
212.3195
 30
0.0
 10
-371.8425
 20
212.3195
 30
0.0
 10
-371.8355
 20
212.2843
 30
0.0
 10
-371.8355
 20
212.2843
 30
0.0
 10
-371.764
 20
211.9244
 30
0.0
 10
-371.8808
 20
211.5801
 30
0.0
 10
-372.1565
 20
211.338
 30
0.0
 10
-372.1565
 20
211.338
 30
0.0
 10
-372.8811
 20
210.7017
 30
0.0
 10
-372.8811
 20
210.7017
 30
0.0
 10
-373.157
 20
210.4594
 30
0.0
 10
-373.2738
 20
210.1147
 30
0.0
 10
-373.2019
 20
209.7546
 30
0.0
 10
-373.13
 20
209.3945
 30
0.0
 10
-372.8899
 20
209.121
 30
0.0
 10
-372.5421
 20
209.0032
 30
0.0
 10
-372.5421
 20
209.0032
 30
0.0
 10
-371.6456
 20
208.6995
 30
0.0
 10
-371.6456
 20
208.6995
 30
0.0
 10
-371.2959
 20
208.581
 30
0.0
 10
-371.0547
 20
208.3048
 30
0.0
 10
-370.9846
 20
207.9423
 30
0.0
 10
-370.8245
 20
207.1139
 30
0.0
 10
-370.6654
 20
206.2852
 30
0.0
 10
-370.5076
 20
205.456
 30
0.0
 10
-370.4395
 20
205.0984
 30
0.0
 10
-370.5565
 20
204.7578
 30
0.0
 10
-370.8301
 20
204.5176
 30
0.0
 10
-370.8301
 20
204.5176
 30
0.0
 10
-371.525
 20
203.9074
 30
0.0
 10
-371.525
 20
203.9074
 30
0.0
 10
-371.8009
 20
203.6651
 30
0.0
 10
-371.9177
 20
203.3203
 30
0.0
 10
-371.8458
 20
202.9602
 30
0.0
 10
-371.7739
 20
202.6002
 30
0.0
 10
-371.5338
 20
202.3266
 30
0.0
 10
-371.186
 20
202.2088
 30
0.0
 10
-371.186
 20
202.2088
 30
0.0
 10
-370.3637
 20
201.9303
 30
0.0
 10
-370.3637
 20
201.9303
 30
0.0
 10
-370.0114
 20
201.811
 30
0.0
 10
-369.7692
 20
201.5312
 30
0.0
 10
-369.7014
 20
201.1655
 30
0.0
 10
-369.3607
 20
199.3285
 30
0.0
 10
-369.0252
 20
197.4892
 30
0.0
 10
-368.6949
 20
195.6472
 30
0.0
 10
-367.4958
 20
188.959
 30
0.0
 10
-368.9912
 20
180.7329
 30
0.0
 10
-376.352
 20
178.5158
 30
0.0
  0
SPLINE
  5
62
330
1F
100
AcDbEntity
  8
Camada 1
370
     9
100
AcDbSpline
210
0.0
220
0.0
230
1.0
 70
    11
 71
     3
 72
   164
 73
   160
 74
     0
 42
0.0000000001
 43
0.0000000001
 40
0.0
 40
0.0
 40
0.0
 40
0.0
 40
0.0188679245283019
 40
0.0188679245283019
 40
0.0188679245283019
 40
0.0377358490566038
 40
0.0377358490566038
 40
0.0377358490566038
 40
0.0566037735849057
 40
0.0566037735849057
 40
0.0566037735849057
 40
0.0754716981132075
 40
0.0754716981132075
 40
0.0754716981132075
 40
0.0943396226415094
 40
0.0943396226415094
 40
0.0943396226415094
 40
0.1132075471698113
 40
0.1132075471698113
 40
0.1132075471698113
 40
0.1320754716981132
 40
0.1320754716981132
 40
0.1320754716981132
 40
0.1509433962264151
 40
0.1509433962264151
 40
0.1509433962264151
 40
0.169811320754717
 40
0.169811320754717
 40
0.169811320754717
 40
0.1886792452830189
 40
0.1886792452830189
 40
0.1886792452830189
 40
0.2075471698113207
 40
0.2075471698113207
 40
0.2075471698113207
 40
0.2264150943396226
 40
0.2264150943396226
 40
0.2264150943396226
 40
0.2452830188679245
 40
0.2452830188679245
 40
0.2452830188679245
 40
0.2641509433962264
 40
0.2641509433962264
 40
0.2641509433962264
 40
0.2830188679245283
 40
0.2830188679245283
 40
0.2830188679245283
 40
0.3018867924528302
 40
0.3018867924528302
 40
0.3018867924528302
 40
0.3207547169811321
 40
0.3207547169811321
 40
0.3207547169811321
 40
0.3396226415094339
 40
0.3396226415094339
 40
0.3396226415094339
 40
0.3584905660377358
 40
0.3584905660377358
 40
0.3584905660377358
 40
0.3773584905660377
 40
0.3773584905660377
 40
0.3773584905660377
 40
0.3962264150943396
 40
0.3962264150943396
 40
0.3962264150943396
 40
0.4150943396226415
 40
0.4150943396226415
 40
0.4150943396226415
 40
0.4339622641509434
 40
0.4339622641509434
 40
0.4339622641509434
 40
0.4528301886792453
 40
0.4528301886792453
 40
0.4528301886792453
 40
0.4716981132075472
 40
0.4716981132075472
 40
0.4716981132075472
 40
0.4905660377358491
 40
0.4905660377358491
 40
0.4905660377358491
 40
0.5094339622641509
 40
0.5094339622641509
 40
0.5094339622641509
 40
0.5283018867924528
 40
0.5283018867924528
 40
0.5283018867924528
 40
0.5471698113207547
 40
0.5471698113207547
 40
0.5471698113207547
 40
0.5660377358490566
 40
0.5660377358490566
 40
0.5660377358490566
 40
0.5849056603773585
 40
0.5849056603773585
 40
0.5849056603773585
 40
0.6037735849056604
 40
0.6037735849056604
 40
0.6037735849056604
 40
0.6226415094339622
 40
0.6226415094339622
 40
0.6226415094339622
 40
0.6415094339622641
 40
0.6415094339622641
 40
0.6415094339622641
 40
0.660377358490566
 40
0.660377358490566
 40
0.660377358490566
 40
0.6792452830188679
 40
0.6792452830188679
 40
0.6792452830188679
 40
0.6981132075471698
 40
0.6981132075471698
 40
0.6981132075471698
 40
0.7169811320754716
 40
0.7169811320754716
 40
0.7169811320754716
 40
0.7358490566037735
 40
0.7358490566037735
 40
0.7358490566037735
 40
0.7547169811320754
 40
0.7547169811320754
 40
0.7547169811320754
 40
0.7735849056603773
 40
0.7735849056603773
 40
0.7735849056603773
 40
0.7924528301886792
 40
0.7924528301886792
 40
0.7924528301886792
 40
0.8113207547169811
 40
0.8113207547169811
 40
0.8113207547169811
 40
0.830188679245283
 40
0.830188679245283
 40
0.830188679245283
 40
0.8490566037735848
 40
0.8490566037735848
 40
0.8490566037735848
 40
0.8679245283018867
 40
0.8679245283018867
 40
0.8679245283018867
 40
0.8867924528301886
 40
0.8867924528301886
 40
0.8867924528301886
 40
0.9056603773584906
 40
0.9056603773584906
 40
0.9056603773584906
 40
0.9245283018867925
 40
0.9245283018867925
 40
0.9245283018867925
 40
0.9433962264150944
 40
0.9433962264150944
 40
0.9433962264150944
 40
0.9622641509433962
 40
0.9622641509433962
 40
0.9622641509433962
 40
0.9811320754716981
 40
0.9811320754716981
 40
0.9811320754716981
 40
1.0
 40
1.0
 40
1.0
 40
1.0
 10
652.285
 20
180.077
 30
0.0
 10
636.8487
 20
175.3491
 30
0.0
 10
621.3378
 20
171.4376
 30
0.0
 10
605.4098
 20
168.7597
 30
0.0
 10
589.5018
 20
166.0852
 30
0.0
 10
573.4975
 20
164.6701
 30
0.0
 10
557.4002
 20
163.785
 30
0.0
 10
557.1989
 20
163.7739
 30
0.0
 10
556.9974
 20
163.7684
 30
0.0
 10
556.7957
 20
163.7684
 30
0.0
 10
529.8852
 20
163.7684
 30
0.0
 10
502.9748
 20
163.7684
 30
0.0
 10
476.0643
 20
163.7684
 30
0.0
 10
475.8627
 20
163.7684
 30
0.0
 10
475.6611
 20
163.7739
 30
0.0
 10
475.4598
 20
163.785
 30
0.0
 10
459.3625
 20
164.6701
 30
0.0
 10
443.3583
 20
166.0852
 30
0.0
 10
427.4503
 20
168.7597
 30
0.0
 10
411.5224
 20
171.4375
 30
0.0
 10
396.0115
 20
175.349
 30
0.0
 10
380.5752
 20
180.0769
 30
0.0
 10
372.9427
 20
182.4147
 30
0.0
 10
372.019
 20
190.8822
 30
0.0
 10
373.2066
 20
197.6029
 30
0.0
 10
377.3852
 20
221.2504
 30
0.0
 10
382.3165
 20
244.5126
 30
0.0
 10
388.3604
 20
267.7577
 30
0.0
 10
392.5929
 20
284.0362
 30
0.0
 10
396.9731
 20
300.1526
 30
0.0
 10
400.2777
 20
316.6607
 30
0.0
 10
402.4749
 20
327.6366
 30
0.0
 10
404.0333
 20
338.6639
 30
0.0
 10
405.7985
 20
349.7095
 30
0.0
 10
410.0815
 20
376.5104
 30
0.0
 10
417.2745
 20
407.609
 30
0.0
 10
428.383
 20
432.3745
 30
0.0
 10
435.6993
 20
448.6853
 30
0.0
 10
445.993
 20
465.5481
 30
0.0
 10
457.2817
 20
479.4088
 30
0.0
 10
471.7714
 20
497.1997
 30
0.0
 10
489.8592
 20
507.3075
 30
0.0
 10
512.8823
 20
508.8655
 30
0.0
 10
512.9689
 20
508.8713
 30
0.0
 10
513.0556
 20
508.8762
 30
0.0
 10
513.1423
 20
508.88
 30
0.0
 10
513.1916
 20
508.8823
 30
0.0
 10
513.24
 20
508.8845
 30
0.0
 10
513.2883
 20
508.8866
 30
0.0
 10
514.6878
 20
508.9527
 30
0.0
 10
518.172
 20
508.9527
 30
0.0
 10
519.5717
 20
508.8866
 30
0.0
 10
519.6199
 20
508.8845
 30
0.0
 10
519.6684
 20
508.8823
 30
0.0
 10
519.7176
 20
508.88
 30
0.0
 10
519.8044
 20
508.8762
 30
0.0
 10
519.891
 20
508.8713
 30
0.0
 10
519.9777
 20
508.8655
 30
0.0
 10
543.0009
 20
507.3075
 30
0.0
 10
561.0885
 20
497.1998
 30
0.0
 10
575.5783
 20
479.4088
 30
0.0
 10
586.867
 20
465.5481
 30
0.0
 10
597.1607
 20
448.6853
 30
0.0
 10
604.477
 20
432.3745
 30
0.0
 10
615.5855
 20
407.609
 30
0.0
 10
622.7785
 20
376.5104
 30
0.0
 10
627.0615
 20
349.7095
 30
0.0
 10
628.8267
 20
338.6639
 30
0.0
 10
630.3851
 20
327.6366
 30
0.0
 10
632.5823
 20
316.6607
 30
0.0
 10
635.8869
 20
300.1526
 30
0.0
 10
640.2671
 20
284.0362
 30
0.0
 10
644.4996
 20
267.7577
 30
0.0
 10
648.7391
 20
251.4525
 30
0.0
 10
652.4312
 20
235.1388
 30
0.0
 10
655.6999
 20
218.6896
 30
0.0
 10
655.7717
 20
218.3282
 30
0.0
 10
655.6534
 20
217.9823
 30
0.0
 10
655.3755
 20
217.7404
 30
0.0
 10
655.3755
 20
217.7404
 30
0.0
 10
654.7112
 20
217.1622
 30
0.0
 10
654.7112
 20
217.1622
 30
0.0
 10
654.7112
 20
217.1622
 30
0.0
 10
654.711
 20
217.162
 30
0.0
 10
654.711
 20
217.162
 30
0.0
 10
654.4341
 20
216.9209
 30
0.0
 10
654.3158
 20
216.5767
 30
0.0
 10
654.3861
 20
216.2163
 30
0.0
 10
654.4564
 20
215.856
 30
0.0
 10
654.6954
 20
215.5814
 30
0.0
 10
655.0426
 20
215.4621
 30
0.0
 10
655.0426
 20
215.4621
 30
0.0
 10
655.0428
 20
215.462
 30
0.0
 10
655.0428
 20
215.462
 30
0.0
 10
655.0428
 20
215.462
 30
0.0
 10
655.8816
 20
215.1738
 30
0.0
 10
655.8816
 20
215.1738
 30
0.0
 10
656.2292
 20
215.0544
 30
0.0
 10
656.4684
 20
214.7793
 30
0.0
 10
656.5384
 20
214.4185
 30
0.0
 10
656.5384
 20
214.4185
 30
0.0
 10
656.5599
 20
214.3074
 30
0.0
 10
656.5599
 20
214.3074
 30
0.0
 10
656.6297
 20
213.9473
 30
0.0
 10
656.5114
 20
213.6035
 30
0.0
 10
656.2347
 20
213.3627
 30
0.0
 10
656.2347
 20
213.3627
 30
0.0
 10
655.5658
 20
212.7805
 30
0.0
 10
655.5658
 20
212.7805
 30
0.0
 10
655.5658
 20
212.7805
 30
0.0
 10
655.5657
 20
212.7804
 30
0.0
 10
655.5657
 20
212.7804
 30
0.0
 10
655.2888
 20
212.5393
 30
0.0
 10
655.1705
 20
212.195
 30
0.0
 10
655.2408
 20
211.8347
 30
0.0
 10
655.3111
 20
211.4743
 30
0.0
 10
655.5501
 20
211.1997
 30
0.0
 10
655.8973
 20
211.0804
 30
0.0
 10
655.8973
 20
211.0804
 30
0.0
 10
655.8974
 20
211.0804
 30
0.0
 10
655.8974
 20
211.0804
 30
0.0
 10
655.8974
 20
211.0804
 30
0.0
 10
656.7205
 20
210.7975
 30
0.0
 10
656.7205
 20
210.7975
 30
0.0
 10
657.0696
 20
210.6775
 30
0.0
 10
657.3095
 20
210.4004
 30
0.0
 10
657.3781
 20
210.0377
 30
0.0
 10
657.3781
 20
210.0377
 30
0.0
 10
657.4023
 20
209.91
 30
0.0
 10
657.4023
 20
209.91
 30
0.0
 10
657.4702
 20
209.5512
 30
0.0
 10
657.3518
 20
209.2096
 30
0.0
 10
657.0763
 20
208.9698
 30
0.0
 10
657.0763
 20
208.9698
 30
0.0
 10
656.4204
 20
208.3989
 30
0.0
 10
656.4204
 20
208.3989
 30
0.0
 10
656.4204
 20
208.3989
 30
0.0
 10
656.4203
 20
208.3988
 30
0.0
 10
656.4203
 20
208.3988
 30
0.0
 10
656.1433
 20
208.1577
 30
0.0
 10
656.025
 20
207.8135
 30
0.0
 10
656.0953
 20
207.4531
 30
0.0
 10
656.1655
 20
207.0927
 30
0.0
 10
656.4045
 20
206.8181
 30
0.0
 10
656.7518
 20
206.6988
 30
0.0
 10
656.7518
 20
206.6988
 30
0.0
 10
656.752
 20
206.6987
 30
0.0
 10
656.752
 20
206.6987
 30
0.0
 10
656.752
 20
206.6987
 30
0.0
 10
657.538
 20
206.4286
 30
0.0
 10
657.538
 20
206.4286
 30
0.0
 10
657.8885
 20
206.3082
 30
0.0
 10
658.129
 20
206.0291
 30
0.0
 10
658.1964
 20
205.6646
 30
0.0
 10
658.6922
 20
202.9821
 30
0.0
 10
659.1777
 20
200.295
 30
0.0
 10
659.6534
 20
197.6029
 30
0.0
 10
660.8791
 20
190.6687
 30
0.0
 10
660.2163
 20
182.5063
 30
0.0
 10
652.285
 20
180.077
 30
0.0
  0
SPLINE
  5
63
330
1F
100
AcDbEntity
  8
Camada 1
370
     9
100
AcDbSpline
210
0.0
220
0.0
230
1.0
 70
    11
 71
     3
 72
   125
 73
   121
 74
     0
 42
0.0000000001
 43
0.0000000001
 40
0.0
 40
0.0
 40
0.0
 40
0.0
 40
0.025
 40
0.025
 40
0.025
 40
0.05
 40
0.05
 40
0.05
 40
0.075
 40
0.075
 40
0.075
 40
0.1
 40
0.1
 40
0.1
 40
0.125
 40
0.125
 40
0.125
 40
0.15
 40
0.15
 40
0.15
 40
0.175
 40
0.175
 40
0.175
 40
0.2
 40
0.2
 40
0.2
 40
0.225
 40
0.225
 40
0.225
 40
0.25
 40
0.25
 40
0.25
 40
0.275
 40
0.275
 40
0.275
 40
0.3
 40
0.3
 40
0.3
 40
0.325
 40
0.325
 40
0.325
 40
0.35
 40
0.35
 40
0.35
 40
0.375
 40
0.375
 40
0.375
 40
0.4
 40
0.4
 40
0.4
 40
0.425
 40
0.425
 40
0.425
 40
0.45
 40
0.45
 40
0.45
 40
0.475
 40
0.475
 40
0.475
 40
0.5
 40
0.5
 40
0.5
 40
0.525
 40
0.525
 40
0.525
 40
0.55
 40
0.55
 40
0.55
 40
0.5750000000000001
 40
0.5750000000000001
 40
0.5750000000000001
 40
0.6000000000000001
 40
0.6000000000000001
 40
0.6000000000000001
 40
0.625
 40
0.625
 40
0.625
 40
0.65
 40
0.65
 40
0.65
 40
0.675
 40
0.675
 40
0.675
 40
0.7000000000000001
 40
0.7000000000000001
 40
0.7000000000000001
 40
0.7250000000000001
 40
0.7250000000000001
 40
0.7250000000000001
 40
0.75
 40
0.75
 40
0.75
 40
0.775
 40
0.775
 40
0.775
 40
0.8
 40
0.8
 40
0.8
 40
0.8250000000000001
 40
0.8250000000000001
 40
0.8250000000000001
 40
0.8500000000000001
 40
0.8500000000000001
 40
0.8500000000000001
 40
0.875
 40
0.875
 40
0.875
 40
0.9
 40
0.9
 40
0.9
 40
0.925
 40
0.925
 40
0.925
 40
0.9500000000000001
 40
0.9500000000000001
 40
0.9500000000000001
 40
0.9750000000000001
 40
0.9750000000000001
 40
0.9750000000000001
 40
1.0
 40
1.0
 40
1.0
 40
1.0
 10
1157.6241
 20
180.9114
 30
0.0
 10
1141.6271
 20
175.9431
 30
0.0
 10
1125.5502
 20
171.8292
 30
0.0
 10
1109.03
 20
169.0123
 30
0.0
 10
1092.5445
 20
166.2014
 30
0.0
 10
1075.9574
 20
164.7148
 30
0.0
 10
1059.2703
 20
163.7854
 30
0.0
 10
1059.0665
 20
163.774
 30
0.0
 10
1058.8626
 20
163.7684
 30
0.0
 10
1058.6585
 20
163.7684
 30
0.0
 10
1030.7887
 20
163.7684
 30
0.0
 10
1002.9189
 20
163.7684
 30
0.0
 10
975.0491
 20
163.7684
 30
0.0
 10
974.845
 20
163.7684
 30
0.0
 10
974.6411
 20
163.774
 30
0.0
 10
974.4373
 20
163.7854
 30
0.0
 10
957.7502
 20
164.7147
 30
0.0
 10
941.1631
 20
166.2013
 30
0.0
 10
924.6777
 20
169.0123
 30
0.0
 10
908.1575
 20
171.8292
 30
0.0
 10
892.0806
 20
175.9431
 30
0.0
 10
876.0836
 20
180.9114
 30
0.0
 10
868.2626
 20
183.3404
 30
0.0
 10
867.6875
 20
191.8586
 30
0.0
 10
868.8703
 20
198.64
 30
0.0
 10
873.1951
 20
223.4342
 30
0.0
 10
878.3001
 20
247.8337
 30
0.0
 10
884.5585
 20
272.2161
 30
0.0
 10
888.9449
 20
289.3053
 30
0.0
 10
893.4843
 20
306.2274
 30
0.0
 10
896.9078
 20
323.5519
 30
0.0
 10
899.185
 20
335.0753
 30
0.0
 10
900.8004
 20
346.6509
 30
0.0
 10
902.6296
 20
358.2456
 30
0.0
 10
907.0556
 20
386.3012
 30
0.0
 10
914.4761
 20
418.8498
 30
0.0
 10
925.9756
 20
444.8195
 30
0.0
 10
933.5252
 20
461.8689
 30
0.0
 10
944.1522
 20
479.5172
 30
0.0
 10
955.8348
 20
494.0475
 30
0.0
 10
970.7203
 20
512.5616
 30
0.0
 10
989.3471
 20
523.1838
 30
0.0
 10
1013.1955
 20
524.8185
 30
0.0
 10
1013.2826
 20
524.8245
 30
0.0
 10
1013.3697
 20
524.8293
 30
0.0
 10
1013.4569
 20
524.8332
 30
0.0
 10
1013.5158
 20
524.836
 30
0.0
 10
1013.5738
 20
524.8387
 30
0.0
 10
1013.6315
 20
524.8412
 30
0.0
 10
1015.0372
 20
524.9085
 30
0.0
 10
1018.6705
 20
524.9085
 30
0.0
 10
1020.0762
 20
524.8412
 30
0.0
 10
1020.1339
 20
524.8387
 30
0.0
 10
1020.1918
 20
524.836
 30
0.0
 10
1020.2507
 20
524.8332
 30
0.0
 10
1020.3379
 20
524.8293
 30
0.0
 10
1020.425
 20
524.8245
 30
0.0
 10
1020.512
 20
524.8185
 30
0.0
 10
1044.3605
 20
523.1838
 30
0.0
 10
1062.9873
 20
512.5616
 30
0.0
 10
1077.8728
 20
494.0475
 30
0.0
 10
1089.5554
 20
479.5171
 30
0.0
 10
1100.1824
 20
461.8689
 30
0.0
 10
1107.732
 20
444.8195
 30
0.0
 10
1119.2315
 20
418.8498
 30
0.0
 10
1126.652
 20
386.3012
 30
0.0
 10
1131.078
 20
358.2456
 30
0.0
 10
1132.9072
 20
346.6509
 30
0.0
 10
1134.5226
 20
335.0753
 30
0.0
 10
1136.7998
 20
323.5519
 30
0.0
 10
1140.2233
 20
306.2274
 30
0.0
 10
1144.7628
 20
289.3053
 30
0.0
 10
1149.1491
 20
272.216
 30
0.0
 10
1153.454
 20
255.4441
 30
0.0
 10
1157.2133
 20
238.664
 30
0.0
 10
1160.5481
 20
221.753
 30
0.0
 10
1160.6194
 20
221.3915
 30
0.0
 10
1160.5007
 20
221.0456
 30
0.0
 10
1160.2223
 20
220.8041
 30
0.0
 10
1160.2223
 20
220.8041
 30
0.0
 10
1159.5366
 20
220.2093
 30
0.0
 10
1159.5366
 20
220.2093
 30
0.0
 10
1159.2593
 20
219.9687
 30
0.0
 10
1159.1404
 20
219.6246
 30
0.0
 10
1159.2101
 20
219.2641
 30
0.0
 10
1159.2798
 20
218.9037
 30
0.0
 10
1159.5183
 20
218.6287
 30
0.0
 10
1159.8653
 20
218.5088
 30
0.0
 10
1159.8653
 20
218.5088
 30
0.0
 10
1160.731
 20
218.2097
 30
0.0
 10
1160.731
 20
218.2097
 30
0.0
 10
1161.0782
 20
218.0897
 30
0.0
 10
1161.3168
 20
217.8145
 30
0.0
 10
1161.3863
 20
217.4538
 30
0.0
 10
1161.5473
 20
216.6181
 30
0.0
 10
1161.7074
 20
215.7821
 30
0.0
 10
1161.8664
 20
214.9458
 30
0.0
 10
1161.9348
 20
214.5861
 30
0.0
 10
1161.8159
 20
214.2435
 30
0.0
 10
1161.5393
 20
214.0036
 30
0.0
 10
1161.5393
 20
214.0036
 30
0.0
 10
1160.8515
 20
213.4069
 30
0.0
 10
1160.8515
 20
213.4069
 30
0.0
 10
1160.5741
 20
213.1663
 30
0.0
 10
1160.4553
 20
212.8222
 30
0.0
 10
1160.525
 20
212.4617
 30
0.0
 10
1160.5947
 20
212.1012
 30
0.0
 10
1160.8332
 20
211.8262
 30
0.0
 10
1161.1803
 20
211.7063
 30
0.0
 10
1161.1803
 20
211.7063
 30
0.0
 10
1162.0168
 20
211.4173
 30
0.0
 10
1162.0168
 20
211.4173
 30
0.0
 10
1162.3662
 20
211.2966
 30
0.0
 10
1162.6058
 20
211.0184
 30
0.0
 10
1162.6734
 20
210.6549
 30
0.0
 10
1163.4163
 20
206.6594
 30
0.0
 10
1164.137
 20
202.6548
 30
0.0
 10
1164.8373
 20
198.64
 30
0.0
 10
1166.0202
 20
191.8586
 30
0.0
 10
1165.4451
 20
183.3404
 30
0.0
 10
1157.6241
 20
180.9114
 30
0.0
  0
SPLINE
  5
64
330
1F
100
AcDbEntity
  8
Camada 1
370
    20
100
AcDbSpline
210
0.0
220
0.0
230
1.0
 70
    11
 71
     3
 72
   110
 73
   106
 74
     0
 42
0.0000000001
 43
0.0000000001
 40
0.0
 40
0.0
 40
0.0
 40
0.0
 40
0.0285714285714286
 40
0.0285714285714286
 40
0.0285714285714286
 40
0.0571428571428571
 40
0.0571428571428571
 40
0.0571428571428571
 40
0.0857142857142857
 40
0.0857142857142857
 40
0.0857142857142857
 40
0.1142857142857143
 40
0.1142857142857143
 40
0.1142857142857143
 40
0.1428571428571428
 40
0.1428571428571428
 40
0.1428571428571428
 40
0.1714285714285714
 40
0.1714285714285714
 40
0.1714285714285714
 40
0.2
 40
0.2
 40
0.2
 40
0.2285714285714286
 40
0.2285714285714286
 40
0.2285714285714286
 40
0.2571428571428571
 40
0.2571428571428571
 40
0.2571428571428571
 40
0.2857142857142857
 40
0.2857142857142857
 40
0.2857142857142857
 40
0.3142857142857143
 40
0.3142857142857143
 40
0.3142857142857143
 40
0.3428571428571429
 40
0.3428571428571429
 40
0.3428571428571429
 40
0.3714285714285714
 40
0.3714285714285714
 40
0.3714285714285714
 40
0.4
 40
0.4
 40
0.4
 40
0.4285714285714285
 40
0.4285714285714285
 40
0.4285714285714285
 40
0.4571428571428571
 40
0.4571428571428571
 40
0.4571428571428571
 40
0.4857142857142857
 40
0.4857142857142857
 40
0.4857142857142857
 40
0.5142857142857142
 40
0.5142857142857142
 40
0.5142857142857142
 40
0.5428571428571428
 40
0.5428571428571428
 40
0.5428571428571428
 40
0.5714285714285714
 40
0.5714285714285714
 40
0.5714285714285714
 40
0.6
 40
0.6
 40
0.6
 40
0.6285714285714286
 40
0.6285714285714286
 40
0.6285714285714286
 40
0.6571428571428571
 40
0.6571428571428571
 40
0.6571428571428571
 40
0.6857142857142857
 40
0.6857142857142857
 40
0.6857142857142857
 40
0.7142857142857143
 40
0.7142857142857143
 40
0.7142857142857143
 40
0.7428571428571429
 40
0.7428571428571429
 40
0.7428571428571429
 40
0.7714285714285714
 40
0.7714285714285714
 40
0.7714285714285714
 40
0.7999999999999999
 40
0.7999999999999999
 40
0.7999999999999999
 40
0.8285714285714285
 40
0.8285714285714285
 40
0.8285714285714285
 40
0.8571428571428571
 40
0.8571428571428571
 40
0.8571428571428571
 40
0.8857142857142857
 40
0.8857142857142857
 40
0.8857142857142857
 40
0.9142857142857143
 40
0.9142857142857143
 40
0.9142857142857143
 40
0.9428571428571428
 40
0.9428571428571428
 40
0.9428571428571428
 40
0.9714285714285714
 40
0.9714285714285714
 40
0.9714285714285714
 40
1.0
 40
1.0
 40
1.0
 40
1.0
 10
129.9169
 20
179.2455
 30
0.0
 10
115.099
 20
174.7576
 30
0.0
 10
100.2111
 20
171.0477
 30
0.0
 10
84.9313
 20
168.508
 30
0.0
 10
69.6595
 20
165.9695
 30
0.0
 10
54.2967
 20
164.6256
 30
0.0
 10
38.8472
 20
163.7847
 30
0.0
 10
38.6478
 20
163.7738
 30
0.0
 10
38.4483
 20
163.7684
 30
0.0
 10
38.2486
 20
163.7684
 30
0.0
 10
12.3991
 20
163.7684
 30
0.0
 10
-13.4505
 20
163.7684
 30
0.0
 10
-39.3
 20
163.7684
 30
0.0
 10
-39.4997
 20
163.7684
 30
0.0
 10
-39.6992
 20
163.7738
 30
0.0
 10
-39.8986
 20
163.7847
 30
0.0
 10
-55.348
 20
164.6256
 30
0.0
 10
-70.7108
 20
165.9695
 30
0.0
 10
-85.9826
 20
168.5079
 30
0.0
 10
-101.2623
 20
171.0477
 30
0.0
 10
-116.1501
 20
174.7575
 30
0.0
 10
-130.968
 20
179.2454
 30
0.0
 10
-138.3962
 20
181.4953
 30
0.0
 10
-139.6737
 20
189.9101
 30
0.0
 10
-138.4863
 20
196.5615
 30
0.0
 10
-134.4698
 20
219.0602
 30
0.0
 10
-129.7309
 20
241.1857
 30
0.0
 10
-123.9242
 20
263.2942
 30
0.0
 10
-119.8614
 20
278.7628
 30
0.0
 10
-115.6569
 20
294.0753
 30
0.0
 10
-112.4839
 20
309.7662
 30
0.0
 10
-110.375
 20
320.1953
 30
0.0
 10
-108.8791
 20
330.6745
 30
0.0
 10
-107.1846
 20
341.1712
 30
0.0
 10
-103.0612
 20
366.7143
 30
0.0
 10
-96.1273
 20
396.3525
 30
0.0
 10
-85.4473
 20
419.9231
 30
0.0
 10
-78.3676
 20
435.5479
 30
0.0
 10
-68.5162
 20
451.5157
 30
0.0
 10
-57.6176
 20
464.7628
 30
0.0
 10
-43.5881
 20
481.8154
 30
0.0
 10
-26.1033
 20
491.4324
 30
0.0
 10
-3.9538
 20
492.9163
 30
0.0
 10
-3.8672
 20
492.9221
 30
0.0
 10
-3.7806
 20
492.9269
 30
0.0
 10
-3.694
 20
492.9306
 30
0.0
 10
-3.6551
 20
492.9324
 30
0.0
 10
-3.6167
 20
492.9341
 30
0.0
 10
-3.5786
 20
492.9357
 30
0.0
 10
-2.1917
 20
493.0007
 30
0.0
 10
1.1401
 20
493.0007
 30
0.0
 10
2.5272
 20
492.9358
 30
0.0
 10
2.5668
 20
492.9341
 30
0.0
 10
2.6066
 20
492.9323
 30
0.0
 10
2.647
 20
492.9304
 30
0.0
 10
2.7321
 20
492.9267
 30
0.0
 10
2.8172
 20
492.922
 30
0.0
 10
2.9022
 20
492.9163
 30
0.0
 10
25.0517
 20
491.4324
 30
0.0
 10
42.5367
 20
481.8155
 30
0.0
 10
56.5662
 20
464.7628
 30
0.0
 10
67.4648
 20
451.5157
 30
0.0
 10
77.3161
 20
435.5479
 30
0.0
 10
84.3959
 20
419.9231
 30
0.0
 10
95.0759
 20
396.3525
 30
0.0
 10
102.0098
 20
366.7143
 30
0.0
 10
106.1332
 20
341.1712
 30
0.0
 10
107.8277
 20
330.6745
 30
0.0
 10
109.3235
 20
320.1953
 30
0.0
 10
111.4324
 20
309.7662
 30
0.0
 10
114.6054
 20
294.0753
 30
0.0
 10
118.81
 20
278.7628
 30
0.0
 10
122.8728
 20
263.2942
 30
0.0
 10
127.174
 20
246.9175
 30
0.0
 10
130.8895
 20
230.5314
 30
0.0
 10
134.1593
 20
213.9912
 30
0.0
 10
134.2309
 20
213.629
 30
0.0
 10
134.1116
 20
213.2825
 30
0.0
 10
133.8324
 20
213.041
 30
0.0
 10
133.8324
 20
213.041
 30
0.0
 10
133.2989
 20
212.5795
 30
0.0
 10
133.2989
 20
212.5795
 30
0.0
 10
133.2989
 20
212.5795
 30
0.0
 10
133.2987
 20
212.5794
 30
0.0
 10
133.2987
 20
212.5794
 30
0.0
 10
133.021
 20
212.3392
 30
0.0
 10
132.9017
 20
211.9953
 30
0.0
 10
132.9708
 20
211.6347
 30
0.0
 10
133.04
 20
211.2741
 30
0.0
 10
133.2781
 20
210.9987
 30
0.0
 10
133.625
 20
210.8783
 30
0.0
 10
133.625
 20
210.8783
 30
0.0
 10
133.6251
 20
210.8783
 30
0.0
 10
133.6251
 20
210.8783
 30
0.0
 10
133.6251
 20
210.8783
 30
0.0
 10
134.3071
 20
210.6415
 30
0.0
 10
134.3071
 20
210.6415
 30
0.0
 10
134.6536
 20
210.5212
 30
0.0
 10
134.8915
 20
210.2464
 30
0.0
 10
134.961
 20
209.8863
 30
0.0
 10
135.8157
 20
205.4575
 30
0.0
 10
136.6395
 20
201.0168
 30
0.0
 10
137.4349
 20
196.5615
 30
0.0
 10
138.622
 20
189.9102
 30
0.0
 10
137.3453
 20
181.4954
 30
0.0
 10
129.9169
 20
179.2455
 30
0.0
  0
ENDSEC
  0
SECTION
  2
OBJECTS
  0
DICTIONARY
  5
C
330
0
100
AcDbDictionary
281
     1
  3
ACAD_DETAILVIEWSTYLE
350
6C
  3
ACAD_GROUP
350
D
  3
ACAD_LAYOUT
350
1A
  3
ACAD_MATERIAL
350
43
  3
ACAD_MLEADERSTYLE
350
5B
  3
ACAD_MLINESTYLE
350
17
  3
ACAD_PLOTSETTINGS
350
19
  3
ACAD_PLOTSTYLENAME
350
E
  3
ACAD_SCALELIST
350
47
  3
ACAD_SECTIONVIEWSTYLE
350
6D
  3
ACAD_TABLESTYLE
350
59
  3
ACAD_VISUALSTYLE
350
2A
  3
ACDB_RECOMPOSE_DATA
350
69
  3
AcDbVariableDictionary
350
65
  0
SUN
  5
5D
330
29
100
AcDbSun
 90
        1
290
     0
 63
     7
421
 16777215
 40
1.0
291
     1
 91
  2455826
 92
 54000000
292
     0
 70
     2
 71
   256
280
     1
  0
DICTIONARY
  5
6C
102
{ACAD_REACTORS
330
C
102
}
330
C
100
AcDbDictionary
281
     1
  0
DICTIONARY
  5
D
102
{ACAD_REACTORS
330
C
102
}
330
C
100
AcDbDictionary
281
     1
  0
DICTIONARY
  5
1A
102
{ACAD_REACTORS
330
C
102
}
330
C
100
AcDbDictionary
281
     1
  3
Layout1
350
1E
  3
Layout2
350
26
  3
Model
350
22
  0
DICTIONARY
  5
43
102
{ACAD_REACTORS
330
C
102
}
330
C
100
AcDbDictionary
281
     1
  3
ByBlock
350
45
  3
ByLayer
350
44
  3
Global
350
46
  0
DICTIONARY
  5
5B
102
{ACAD_REACTORS
330
C
102
}
330
C
100
AcDbDictionary
281
     1
  3
Standard
350
5C
  0
DICTIONARY
  5
17
102
{ACAD_REACTORS
330
C
102
}
330
C
100
AcDbDictionary
281
     1
  3
Standard
350
18
  0
DICTIONARY
  5
19
102
{ACAD_REACTORS
330
C
102
}
330
C
100
AcDbDictionary
281
     1
  0
ACDBDICTIONARYWDFLT
  5
E
102
{ACAD_REACTORS
330
C
102
}
330
C
100
AcDbDictionary
281
     1
  3
Normal
350
F
100
AcDbDictionaryWithDefault
340
F
  0
DICTIONARY
  5
47
102
{ACAD_REACTORS
330
C
102
}
330
C
100
AcDbDictionary
281
     1
  3
A0
350
48
  3
A1
350
49
  3
A2
350
4A
  3
A3
350
4B
  3
A4
350
4C
  3
A5
350
4D
  3
A6
350
4E
  3
A7
350
4F
  3
A8
350
50
  3
A9
350
51
  3
B1
350
52
  3
B2
350
53
  3
B3
350
54
  3
B4
350
55
  3
B5
350
56
  3
B6
350
57
  3
B7
350
58
  0
DICTIONARY
  5
6D
102
{ACAD_REACTORS
330
C
102
}
330
C
100
AcDbDictionary
281
     1
  0
DICTIONARY
  5
59
102
{ACAD_REACTORS
330
C
102
}
330
C
100
AcDbDictionary
281
     1
  3
Standard
350
5A
  0
DICTIONARY
  5
2A
102
{ACAD_REACTORS
330
C
102
}
330
C
100
AcDbDictionary
281
     1
  3
2dWireframe
350
2F
  3
Basic
350
32
  3
Brighten
350
36
  3
ColorChange
350
3A
  3
Conceptual
350
34
  3
Dim
350
35
  3
EdgeColorOff
350
3D
  3
Facepattern
350
39
  3
Flat
350
2B
  3
FlatWithEdges
350
2C
  3
Gouraud
350
2D
  3
GouraudWithEdges
350
2E
  3
Hidden
350
31
  3
JitterOff
350
3B
  3
Linepattern
350
38
  3
OverhangOff
350
3C
  3
Realistic
350
33
  3
Shaded
350
42
  3
Shaded with edges
350
41
  3
Shades of Gray
350
3E
  3
Sketchy
350
3F
  3
Thicken
350
37
  3
Wireframe
350
30
  3
X-Ray
350
40
  0
XRECORD
  5
69
102
{ACAD_REACTORS
330
C
102
}
330
C
100
AcDbXrecord
280
     1
 90
        1
330
5A
  0
DICTIONARY
  5
65
102
{ACAD_REACTORS
330
C
102
}
330
C
100
AcDbDictionary
281
     1
  3
CANNOSCALE
350
66
  3
CMLEADERSTYLE
350
6B
  3
CTABLESTYLE
350
6A
  0
LAYOUT
  5
1E
102
{ACAD_REACTORS
330
1A
102
}
330
1A
100
AcDbPlotSettings
  1

  2
none_device
  4

  6

 40
0.0
 41
0.0
 42
0.0
 43
0.0
 44
0.0
 45
0.0
 46
0.0
 47
0.0
 48
0.0
 49
0.0
140
0.0
141
0.0
142
1.0
143
1.0
 70
   688
 72
     0
 73
     0
 74
     5
  7

 75
    16
 76
     0
 77
     2
 78
   300
147
1.0
148
0.0
149
0.0
100
AcDbLayout
  1
Layout1
 70
     1
 71
     1
 10
0.0
 20
0.0
 11
12.0
 21
9.0
 12
0.0
 22
0.0
 32
0.0
 14
1.000000000000000E+20
 24
1.000000000000000E+20
 34
1.000000000000000E+20
 15
-1.000000000000000E+20
 25
-1.000000000000000E+20
 35
-1.000000000000000E+20
146
0.0
 13
0.0
 23
0.0
 33
0.0
 16
1.0
 26
0.0
 36
0.0
 17
0.0
 27
1.0
 37
0.0
 76
     0
330
1B
  0
LAYOUT
  5
26
102
{ACAD_REACTORS
330
1A
102
}
330
1A
100
AcDbPlotSettings
  1

  2
none_device
  4

  6

 40
0.0
 41
0.0
 42
0.0
 43
0.0
 44
0.0
 45
0.0
 46
0.0
 47
0.0
 48
0.0
 49
0.0
140
0.0
141
0.0
142
1.0
143
1.0
 70
   688
 72
     0
 73
     0
 74
     5
  7

 75
    16
 76
     0
 77
     2
 78
   300
147
1.0
148
0.0
149
0.0
100
AcDbLayout
  1
Layout2
 70
     1
 71
     2
 10
0.0
 20
0.0
 11
0.0
 21
0.0
 12
0.0
 22
0.0
 32
0.0
 14
0.0
 24
0.0
 34
0.0
 15
0.0
 25
0.0
 35
0.0
146
0.0
 13
0.0
 23
0.0
 33
0.0
 16
1.0
 26
0.0
 36
0.0
 17
0.0
 27
1.0
 37
0.0
 76
     0
330
23
  0
LAYOUT
  5
22
102
{ACAD_REACTORS
330
1A
102
}
330
1A
100
AcDbPlotSettings
  1

  2
none_device
  4
Letter_(8.50_x_11.00_Inches)
  6

 40
6.35
 41
6.35
 42
6.35000508
 43
6.35000508
 44
215.9
 45
279.4
 46
0.0
 47
0.0
 48
0.0
 49
0.0
140
0.0
141
0.0
142
1.0
143
1.0
 70
  1712
 72
     0
 73
     0
 74
     0
  7

 75
     0
 76
     0
 77
     2
 78
   300
147
1.0
148
0.0
149
0.0
100
AcDbLayout
  1
Model
 70
     1
 71
     0
 10
0.0
 20
0.0
 11
12.0
 21
9.0
 12
0.0
 22
0.0
 32
0.0
 14
-1129.1406
 24
163.6684
 34
0.0
 15
1165.3541
 25
524.9367
 35
0.0
146
0.0
 13
0.0
 23
0.0
 33
0.0
 16
1.0
 26
0.0
 36
0.0
 17
0.0
 27
1.0
 37
0.0
 76
     0
330
1F
331
29
  0
MATERIAL
  5
45
102
{ACAD_REACTORS
330
43
102
}
330
43
100
AcDbMaterial
  1
ByBlock
 72
     1
 94
      127
  0
MATERIAL
  5
44
102
{ACAD_REACTORS
330
43
102
}
330
43
100
AcDbMaterial
  1
ByLayer
 72
     1
 94
      127
  0
MATERIAL
  5
46
102
{ACAD_REACTORS
330
43
102
}
330
43
100
AcDbMaterial
  1
Global
 72
     1
 94
      127
  0
MLEADERSTYLE
  5
5C
102
{ACAD_REACTORS
330
5B
102
}
330
5B
100
AcDbMLeaderStyle
179
     2
170
     2
171
     1
172
     0
 90
        2
 40
0.0
 41
0.0
173
     1
 91
-1056964608
340
14
 92
       -2
290
     1
 42
0.09
291
     1
 43
0.36
  3
Standard
341
0
 44
0.18
300

342
11
174
     1
178
     6
175
     1
176
     0
 93
-1056964608
 45
0.18
292
     0
297
     0
 46
0.18
343
0
 94
-1056964608
 47
1.0
 49
1.0
140
1.0
293
     1
141
0.0
294
     1
177
     0
142
1.0
295
     0
296
     0
143
0.125
271
     0
272
     9
273
     9
298
     0
  0
MLINESTYLE
  5
18
102
{ACAD_REACTORS
330
17
102
}
330
17
100
AcDbMlineStyle
  2
Standard
 70
     0
  3

 62
   256
 51
90.0
 52
90.0
 71
     2
 49
0.5
 62
   256
  6
BYLAYER
 49
-0.5
 62
   256
  6
BYLAYER
  0
ACDBPLACEHOLDER
  5
F
102
{ACAD_REACTORS
330
E
102
}
330
E
  0
SCALE
  5
48
102
{ACAD_REACTORS
330
47
102
}
330
47
100
AcDbScale
 70
     0
300
1:1
140
1.0
141
1.0
290
     1
  0
SCALE
  5
49
102
{ACAD_REACTORS
330
47
102
}
330
47
100
AcDbScale
 70
     0
300
1/128" = 1'-0"
140
0.0078125
141
12.0
290
     0
  0
SCALE
  5
4A
102
{ACAD_REACTORS
330
47
102
}
330
47
100
AcDbScale
 70
     0
300
1/64" = 1'-0"
140
0.015625
141
12.0
290
     0
  0
SCALE
  5
4B
102
{ACAD_REACTORS
330
47
102
}
330
47
100
AcDbScale
 70
     0
300
1/32" = 1'-0"
140
0.03125
141
12.0
290
     0
  0
SCALE
  5
4C
102
{ACAD_REACTORS
330
47
102
}
330
47
100
AcDbScale
 70
     0
300
1/16" = 1'-0"
140
0.0625
141
12.0
290
     0
  0
SCALE
  5
4D
102
{ACAD_REACTORS
330
47
102
}
330
47
100
AcDbScale
 70
     0
300
3/32" = 1'-0"
140
0.09375
141
12.0
290
     0
  0
SCALE
  5
4E
102
{ACAD_REACTORS
330
47
102
}
330
47
100
AcDbScale
 70
     0
300
1/8" = 1'-0"
140
0.125
141
12.0
290
     0
  0
SCALE
  5
4F
102
{ACAD_REACTORS
330
47
102
}
330
47
100
AcDbScale
 70
     0
300
3/16" = 1'-0"
140
0.1875
141
12.0
290
     0
  0
SCALE
  5
50
102
{ACAD_REACTORS
330
47
102
}
330
47
100
AcDbScale
 70
     0
300
1/4" = 1'-0"
140
0.25
141
12.0
290
     0
  0
SCALE
  5
51
102
{ACAD_REACTORS
330
47
102
}
330
47
100
AcDbScale
 70
     0
300
3/8" = 1'-0"
140
0.375
141
12.0
290
     0
  0
SCALE
  5
52
102
{ACAD_REACTORS
330
47
102
}
330
47
100
AcDbScale
 70
     0
300
1/2" = 1'-0"
140
0.5
141
12.0
290
     0
  0
SCALE
  5
53
102
{ACAD_REACTORS
330
47
102
}
330
47
100
AcDbScale
 70
     0
300
3/4" = 1'-0"
140
0.75
141
12.0
290
     0
  0
SCALE
  5
54
102
{ACAD_REACTORS
330
47
102
}
330
47
100
AcDbScale
 70
     0
300
1" = 1'-0"
140
1.0
141
12.0
290
     0
  0
SCALE
  5
55
102
{ACAD_REACTORS
330
47
102
}
330
47
100
AcDbScale
 70
     0
300
1-1/2" = 1'-0"
140
1.5
141
12.0
290
     0
  0
SCALE
  5
56
102
{ACAD_REACTORS
330
47
102
}
330
47
100
AcDbScale
 70
     0
300
3" = 1'-0"
140
3.0
141
12.0
290
     0
  0
SCALE
  5
57
102
{ACAD_REACTORS
330
47
102
}
330
47
100
AcDbScale
 70
     0
300
6" = 1'-0"
140
6.0
141
12.0
290
     0
  0
SCALE
  5
58
102
{ACAD_REACTORS
330
47
102
}
330
47
100
AcDbScale
 70
     0
300
1'-0" = 1'-0"
140
12.0
141
12.0
290
     0
  0
TABLESTYLE
  5
5A
102
{ACAD_REACTORS
330
59
102
}
102
{ACAD_XDICTIONARY
360
67
102
}
330
59
100
AcDbTableStyle
  3
Standard
 70
     0
 71
     0
 40
0.06
 41
0.06
280
     0
281
     0
  7
Standard
140
0.18
170
     2
 62
     0
 63
   257
283
     0
 90
        4
 91
        0
  1

274
    -2
284
     1
 64
     0
275
    -2
285
     1
 65
     0
276
    -2
286
     1
 66
     0
277
    -2
287
     1
 67
     0
278
    -2
288
     1
 68
     0
279
    -2
289
     1
 69
     0
  7
Standard
140
0.25
170
     5
 62
     0
 63
   257
283
     0
 90
        4
 91
        0
  1

274
    -2
284
     1
 64
     0
275
    -2
285
     1
 65
     0
276
    -2
286
     1
 66
     0
277
    -2
287
     1
 67
     0
278
    -2
288
     1
 68
     0
279
    -2
289
     1
 69
     0
  7
Standard
140
0.18
170
     5
 62
     0
 63
   257
283
     0
 90
        4
 91
        0
  1

274
    -2
284
     1
 64
     0
275
    -2
285
     1
 65
     0
276
    -2
286
     1
 66
     0
277
    -2
287
     1
 67
     0
278
    -2
288
     1
 68
     0
279
    -2
289
     1
 69
     0
  0
VISUALSTYLE
  5
2F
102
{ACAD_REACTORS
330
2A
102
}
330
2A
100
AcDbVisualStyle
  2
2dWireframe
 70
     4
177
     3
291
     0
 70
    58
 90
        0
176
     1
 90
        2
176
     1
 90
        0
176
     1
 90
        0
176
     1
 40
0.6
176
     1
 40
30.0
176
     1
 62
     7
420
 16777215
176
     1
 90
        1
176
     1
 90
        4
176
     1
 62
     7
176
     1
 62
   257
176
     1
 90
        1
176
     1
 90
        1
176
     1
 40
1.0
176
     1
 90
        0
176
     1
 62
   257
176
     1
 40
1.0
176
     1
 90
        1
176
     1
 90
        6
176
     1
 90
        2
176
     1
 62
     7
176
     1
 90
        5
176
     1
 90
        0
176
     1
 90
        0
176
     1
290
     0
176
     1
 90
        1
176
     1
 40
0.0
176
     1
 90
        0
176
     1
290
     1
176
     1
290
     1
176
     1
290
     0
176
     1
290
     0
176
     1
290
     0
176
     1
290
     0
176
     1
290
     0
176
     1
290
     0
176
     1
290
     0
176
     1
 90
       50
176
     1
 40
0.0
176
     1
 40
1.0
176
     1
 90
        0
176
     1
 62
    18
420
        0
176
     1
 90
       50
176
     1
 90
        3
176
     1
 62
     5
420
      255
176
     1
290
     0
176
     1
 90
       50
176
     1
 90
       50
176
     1
 90
       50
176
     1
290
     0
176
     1
 90
       50
176
     1
 62
   256
176
     0
 40
1.0
176
     0
 90
        2
176
     1
  1
strokes_ogs.tif
176
     1
290
     0
176
     1
 40
1.0
176
     1
 40
1.0
176
     1
  0
VISUALSTYLE
  5
32
102
{ACAD_REACTORS
330
2A
102
}
330
2A
100
AcDbVisualStyle
  2
Basic
 70
     7
177
     3
291
     1
 70
    58
 90
        1
176
     1
 90
        0
176
     1
 90
        1
176
     1
 90
        0
176
     1
 40
0.6
176
     1
 40
30.0
176
     1
 62
     7
420
 16777215
176
     1
 90
        0
176
     1
 90
        4
176
     1
 62
     7
176
     1
 62
   257
176
     1
 90
        1
176
     1
 90
        1
176
     1
 40
1.0
176
     1
 90
        8
176
     1
 62
     7
176
     1
 40
1.0
176
     1
 90
        1
176
     1
 90
        6
176
     1
 90
        2
176
     1
 62
     7
176
     1
 90
        5
176
     1
 90
        0
176
     1
 90
        0
176
     1
290
     0
176
     1
 90
        1
176
     1
 40
0.0
176
     1
 90
        0
176
     1
290
     0
176
     1
290
     1
176
     1
290
     1
176
     1
290
     0
176
     1
290
     0
176
     1
290
     0
176
     1
290
     0
176
     1
290
     0
176
     1
290
     0
176
     1
 90
       50
176
     1
 40
0.0
176
     1
 40
1.0
176
     1
 90
        0
176
     1
 62
    18
420
        0
176
     1
 90
       50
176
     1
 90
        3
176
     1
 62
     5
420
      255
176
     1
290
     0
176
     1
 90
       50
176
     1
 90
       50
176
     1
 90
       50
176
     1
290
     0
176
     1
 90
       50
176
     1
 62
   256
176
     0
 40
1.0
176
     0
 90
        2
176
     1
  1
strokes_ogs.tif
176
     1
290
     0
176
     1
 40
1.0
176
     1
 40
1.0
176
     1
  0
VISUALSTYLE
  5
36
102
{ACAD_REACTORS
330
2A
102
}
330
2A
100
AcDbVisualStyle
  2
Brighten
 70
    12
177
     3
291
     1
 70
    58
 90
        2
176
     1
 90
        2
176
     1
 90
        0
176
     1
 90
        0
176
     1
 40
0.6
176
     1
 40
30.0
176
     1
 62
     7
420
 16777215
176
     1
 90
        1
176
     1
 90
        4
176
     1
 62
     7
176
     1
 62
   257
176
     1
 90
        1
176
     1
 90
        1
176
     1
 40
1.0
176
     1
 90
        8
176
     1
 62
     7
176
     1
 40
1.0
176
     1
 90
        1
176
     1
 90
        6
176
     1
 90
        2
176
     1
 62
     7
176
     1
 90
        5
176
     1
 90
        0
176
     1
 90
        0
176
     1
290
     0
176
     1
 90
        1
176
     1
 40
50.0
176
     1
 90
        0
176
     1
290
     0
176
     1
290
     1
176
     1
290
     1
176
     1
290
     0
176
     1
290
     0
176
     1
290
     0
176
     1
290
     0
176
     1
290
     0
176
     1
290
     0
176
     1
 90
       50
176
     1
 40
0.0
176
     1
 40
1.0
176
     1
 90
        0
176
     1
 62
    18
420
        0
176
     1
 90
       50
176
     1
 90
        3
176
     1
 62
     5
420
      255
176
     1
290
     0
176
     1
 90
       50
176
     1
 90
       50
176
     1
 90
       50
176
     1
290
     0
176
     1
 90
       50
176
     1
 62
   256
176
     0
 40
1.0
176
     0
 90
        2
176
     1
  1
strokes_ogs.tif
176
     1
290
     0
176
     1
 40
1.0
176
     1
 40
1.0
176
     1
  0
VISUALSTYLE
  5
3A
102
{ACAD_REACTORS
330
2A
102
}
330
2A
100
AcDbVisualStyle
  2
ColorChange
 70
    16
177
     3
291
     1
 70
    58
 90
        2
176
     1
 90
        2
176
     1
 90
        3
176
     1
 90
        0
176
     1
 40
0.6
176
     1
 40
30.0
176
     1
 62
     8
420
  8421504
176
     1
 90
        1
176
     1
 90
        4
176
     1
 62
     7
176
     1
 62
   257
176
     1
 90
        1
176
     1
 90
        1
176
     1
 40
1.0
176
     1
 90
        8
176
     1
 62
     8
420
  8421504
176
     1
 40
1.0
176
     1
 90
        1
176
     1
 90
        6
176
     1
 90
        2
176
     1
 62
     7
176
     1
 90
        5
176
     1
 90
        0
176
     1
 90
        0
176
     1
290
     0
176
     1
 90
        1
176
     1
 40
0.0
176
     1
 90
        0
176
     1
290
     0
176
     1
290
     1
176
     1
290
     1
176
     1
290
     0
176
     1
290
     0
176
     1
290
     0
176
     1
290
     0
176
     1
290
     0
176
     1
290
     0
176
     1
 90
       50
176
     1
 40
0.0
176
     1
 40
1.0
176
     1
 90
        0
176
     1
 62
    18
420
        0
176
     1
 90
       50
176
     1
 90
        3
176
     1
 62
     5
420
      255
176
     1
290
     0
176
     1
 90
       50
176
     1
 90
       50
176
     1
 90
       50
176
     1
290
     0
176
     1
 90
       50
176
     1
 62
   256
176
     0
 40
1.0
176
     0
 90
        2
176
     1
  1
strokes_ogs.tif
176
     1
290
     0
176
     1
 40
1.0
176
     1
 40
1.0
176
     1
  0
VISUALSTYLE
  5
34
102
{ACAD_REACTORS
330
2A
102
}
330
2A
100
AcDbVisualStyle
  2
Conceptual
 70
     9
177
     3
291
     0
 70
    58
 90
        3
176
     1
 90
        2
176
     1
 90
        0
176
     1
 90
        0
176
     1
 40
0.6
176
     1
 40
30.0
176
     1
 62
     7
420
 16777215
176
     1
 90
        2
176
     1
 90
        2
176
     1
 62
     7
176
     1
 62
   257
176
     1
 90
        1
176
     1
 90
        1
176
     1
 40
179.0
176
     1
 90
        8
176
     1
 62
     7
176
     1
 40
1.0
176
     1
 90
        1
176
     1
 90
        6
176
     1
 90
        2
176
     1
 62
     7
176
     1
 90
        3
176
     1
 90
        0
176
     1
 90
        0
176
     1
290
     0
176
     1
 90
        1
176
     1
 40
0.0
176
     1
 90
        0
176
     1
290
     0
176
     1
290
     1
176
     1
290
     1
176
     1
290
     0
176
     1
290
     0
176
     1
290
     0
176
     1
290
     0
176
     1
290
     0
176
     1
290
     0
176
     1
 90
       50
176
     1
 40
0.0
176
     1
 40
1.0
176
     1
 90
        0
176
     1
 62
    18
420
        0
176
     1
 90
       50
176
     1
 90
        3
176
     1
 62
     5
420
      255
176
     1
290
     0
176
     1
 90
       50
176
     1
 90
       50
176
     1
 90
       50
176
     1
290
     0
176
     1
 90
       50
176
     1
 62
   256
176
     0
 40
1.0
176
     0
 90
        2
176
     1
  1
strokes_ogs.tif
176
     1
290
     0
176
     1
 40
1.0
176
     1
 40
1.0
176
     1
  0
VISUALSTYLE
  5
35
102
{ACAD_REACTORS
330
2A
102
}
330
2A
100
AcDbVisualStyle
  2
Dim
 70
    11
177
     3
291
     1
 70
    58
 90
        2
176
     1
 90
        2
176
     1
 90
        0
176
     1
 90
        0
176
     1
 40
0.6
176
     1
 40
30.0
176
     1
 62
     7
420
 16777215
176
     1
 90
        1
176
     1
 90
        4
176
     1
 62
     7
176
     1
 62
   257
176
     1
 90
        1
176
     1
 90
        1
176
     1
 40
1.0
176
     1
 90
        8
176
     1
 62
     7
176
     1
 40
1.0
176
     1
 90
        1
176
     1
 90
        6
176
     1
 90
        2
176
     1
 62
     7
176
     1
 90
        5
176
     1
 90
        0
176
     1
 90
        0
176
     1
290
     0
176
     1
 90
        1
176
     1
 40
-50.0
176
     1
 90
        0
176
     1
290
     0
176
     1
290
     1
176
     1
290
     1
176
     1
290
     0
176
     1
290
     0
176
     1
290
     0
176
     1
290
     0
176
     1
290
     0
176
     1
290
     0
176
     1
 90
       50
176
     1
 40
0.0
176
     1
 40
1.0
176
     1
 90
        0
176
     1
 62
    18
420
        0
176
     1
 90
       50
176
     1
 90
        3
176
     1
 62
     5
420
      255
176
     1
290
     0
176
     1
 90
       50
176
     1
 90
       50
176
     1
 90
       50
176
     1
290
     0
176
     1
 90
       50
176
     1
 62
   256
176
     0
 40
1.0
176
     0
 90
        2
176
     1
  1
strokes_ogs.tif
176
     1
290
     0
176
     1
 40
1.0
176
     1
 40
1.0
176
     1
  0
VISUALSTYLE
  5
3D
102
{ACAD_REACTORS
330
2A
102
}
330
2A
100
AcDbVisualStyle
  2
EdgeColorOff
 70
    22
177
     3
291
     1
 70
    58
 90
        2
176
     0
 90
        2
176
     0
 90
        0
176
     0
 90
        0
176
     0
 40
0.6
176
     0
 40
30.0
176
     0
 62
     7
420
 16777215
176
     0
 90
        1
176
     0
 90
        4
176
     0
 62
     7
176
     0
 62
   257
176
     0
 90
        1
176
     0
 90
        1
176
     0
 40
1.0
176
     0
 90
        8
176
     2
 62
     7
176
     0
 40
1.0
176
     0
 90
        1
176
     0
 90
        6
176
     0
 90
        2
176
     0
 62
     7
176
     0
 90
        5
176
     0
 90
        0
176
     0
 90
        0
176
     0
290
     0
176
     0
 90
        1
176
     0
 40
0.0
176
     0
 90
        0
176
     0
290
     0
176
     0
290
     1
176
     0
290
     1
176
     0
290
     0
176
     0
290
     0
176
     0
290
     0
176
     0
290
     0
176
     0
290
     0
176
     0
290
     0
176
     0
 90
       50
176
     0
 40
0.0
176
     0
 40
1.0
176
     0
 90
        0
176
     0
 62
    18
420
        0
176
     0
 90
       50
176
     0
 90
        3
176
     0
 62
     5
420
      255
176
     0
290
     0
176
     0
 90
       50
176
     0
 90
       50
176
     0
 90
       50
176
     0
290
     0
176
     0
 90
       50
176
     0
 62
   256
176
     0
 40
1.0
176
     0
 90
        2
176
     0
  1
strokes_ogs.tif
176
     0
290
     0
176
     0
 40
1.0
176
     0
 40
1.0
176
     0
  0
VISUALSTYLE
  5
39
102
{ACAD_REACTORS
330
2A
102
}
330
2A
100
AcDbVisualStyle
  2
Facepattern
 70
    15
177
     3
291
     1
 70
    58
 90
        2
176
     1
 90
        2
176
     1
 90
        0
176
     1
 90
        0
176
     1
 40
0.6
176
     1
 40
30.0
176
     1
 62
     7
420
 16777215
176
     1
 90
        1
176
     1
 90
        4
176
     1
 62
     7
176
     1
 62
   257
176
     1
 90
        1
176
     1
 90
        1
176
     1
 40
1.0
176
     1
 90
        8
176
     1
 62
     7
176
     1
 40
1.0
176
     1
 90
        1
176
     1
 90
        6
176
     1
 90
        2
176
     1
 62
     7
176
     1
 90
        5
176
     1
 90
        0
176
     1
 90
        0
176
     1
290
     0
176
     1
 90
        1
176
     1
 40
0.0
176
     1
 90
        0
176
     1
290
     0
176
     1
290
     1
176
     1
290
     1
176
     1
290
     0
176
     1
290
     0
176
     1
290
     0
176
     1
290
     0
176
     1
290
     0
176
     1
290
     0
176
     1
 90
       50
176
     1
 40
0.0
176
     1
 40
1.0
176
     1
 90
        0
176
     1
 62
    18
420
        0
176
     1
 90
       50
176
     1
 90
        3
176
     1
 62
     5
420
      255
176
     1
290
     0
176
     1
 90
       50
176
     1
 90
       50
176
     1
 90
       50
176
     1
290
     0
176
     1
 90
       50
176
     1
 62
   256
176
     0
 40
1.0
176
     0
 90
        2
176
     1
  1
strokes_ogs.tif
176
     1
290
     0
176
     1
 40
1.0
176
     1
 40
1.0
176
     1
  0
VISUALSTYLE
  5
2B
102
{ACAD_REACTORS
330
2A
102
}
330
2A
100
AcDbVisualStyle
  2
Flat
 70
     0
177
     3
291
     1
 70
    58
 90
        2
176
     1
 90
        1
176
     1
 90
        1
176
     1
 90
        2
176
     1
 40
0.6
176
     1
 40
30.0
176
     1
 62
     7
420
 16777215
176
     1
 90
        0
176
     1
 90
        0
176
     1
 62
     7
176
     1
 62
   257
176
     1
 90
        1
176
     1
 90
        1
176
     1
 40
1.0
176
     1
 90
        8
176
     1
 62
     7
176
     1
 40
1.0
176
     1
 90
        1
176
     1
 90
        6
176
     1
 90
        2
176
     1
 62
     7
176
     1
 90
        5
176
     1
 90
        0
176
     1
 90
        0
176
     1
290
     0
176
     1
 90
       13
176
     1
 40
0.0
176
     1
 90
        0
176
     1
290
     0
176
     1
290
     1
176
     1
290
     1
176
     1
290
     0
176
     1
290
     0
176
     1
290
     0
176
     1
290
     0
176
     1
290
     0
176
     1
290
     0
176
     1
 90
       50
176
     1
 40
0.0
176
     1
 40
1.0
176
     1
 90
        0
176
     1
 62
    18
420
        0
176
     1
 90
       50
176
     1
 90
        3
176
     1
 62
     5
420
      255
176
     1
290
     0
176
     1
 90
       50
176
     1
 90
       50
176
     1
 90
       50
176
     1
290
     0
176
     1
 90
       50
176
     1
 62
   256
176
     0
 40
1.0
176
     0
 90
        2
176
     1
  1
strokes_ogs.tif
176
     1
290
     0
176
     1
 40
1.0
176
     1
 40
1.0
176
     1
  0
VISUALSTYLE
  5
2C
102
{ACAD_REACTORS
330
2A
102
}
330
2A
100
AcDbVisualStyle
  2
FlatWithEdges
 70
     1
177
     3
291
     1
 70
    58
 90
        2
176
     1
 90
        1
176
     1
 90
        1
176
     1
 90
        2
176
     1
 40
0.6
176
     1
 40
30.0
176
     1
 62
     7
420
 16777215
176
     1
 90
        1
176
     1
 90
        0
176
     1
 62
     7
176
     1
 62
   257
176
     1
 90
        1
176
     1
 90
        1
176
     1
 40
1.0
176
     1
 90
        0
176
     1
 62
   257
176
     1
 40
1.0
176
     1
 90
        1
176
     1
 90
        6
176
     1
 90
        2
176
     1
 62
     7
176
     1
 90
        5
176
     1
 90
        0
176
     1
 90
        0
176
     1
290
     0
176
     1
 90
       13
176
     1
 40
0.0
176
     1
 90
        0
176
     1
290
     0
176
     1
290
     1
176
     1
290
     1
176
     1
290
     0
176
     1
290
     0
176
     1
290
     0
176
     1
290
     0
176
     1
290
     0
176
     1
290
     0
176
     1
 90
       50
176
     1
 40
0.0
176
     1
 40
1.0
176
     1
 90
        0
176
     1
 62
    18
420
        0
176
     1
 90
       50
176
     1
 90
        3
176
     1
 62
     5
420
      255
176
     1
290
     0
176
     1
 90
       50
176
     1
 90
       50
176
     1
 90
       50
176
     1
290
     0
176
     1
 90
       50
176
     1
 62
   256
176
     0
 40
1.0
176
     0
 90
        2
176
     1
  1
strokes_ogs.tif
176
     1
290
     0
176
     1
 40
1.0
176
     1
 40
1.0
176
     1
  0
VISUALSTYLE
  5
2D
102
{ACAD_REACTORS
330
2A
102
}
330
2A
100
AcDbVisualStyle
  2
Gouraud
 70
     2
177
     3
291
     1
 70
    58
 90
        2
176
     1
 90
        2
176
     1
 90
        1
176
     1
 90
        2
176
     1
 40
0.6
176
     1
 40
30.0
176
     1
 62
     7
420
 16777215
176
     1
 90
        0
176
     1
 90
        0
176
     1
 62
     7
176
     1
 62
   257
176
     1
 90
        1
176
     1
 90
        1
176
     1
 40
1.0
176
     1
 90
        0
176
     1
 62
     7
176
     1
 40
1.0
176
     1
 90
        1
176
     1
 90
        6
176
     1
 90
        2
176
     1
 62
     7
176
     1
 90
        5
176
     1
 90
        0
176
     1
 90
        0
176
     1
290
     0
176
     1
 90
       13
176
     1
 40
0.0
176
     1
 90
        0
176
     1
290
     0
176
     1
290
     1
176
     1
290
     1
176
     1
290
     0
176
     1
290
     0
176
     1
290
     0
176
     1
290
     0
176
     1
290
     0
176
     1
290
     0
176
     1
 90
       50
176
     1
 40
0.0
176
     1
 40
1.0
176
     1
 90
        0
176
     1
 62
    18
420
        0
176
     1
 90
       50
176
     1
 90
        3
176
     1
 62
     5
420
      255
176
     1
290
     0
176
     1
 90
       50
176
     1
 90
       50
176
     1
 90
       50
176
     1
290
     0
176
     1
 90
       50
176
     1
 62
   256
176
     0
 40
1.0
176
     0
 90
        2
176
     1
  1
strokes_ogs.tif
176
     1
290
     0
176
     1
 40
1.0
176
     1
 40
1.0
176
     1
  0
VISUALSTYLE
  5
2E
102
{ACAD_REACTORS
330
2A
102
}
330
2A
100
AcDbVisualStyle
  2
GouraudWithEdges
 70
     3
177
     3
291
     1
 70
    58
 90
        2
176
     1
 90
        2
176
     1
 90
        1
176
     1
 90
        2
176
     1
 40
0.6
176
     1
 40
30.0
176
     1
 62
     7
420
 16777215
176
     1
 90
        1
176
     1
 90
        0
176
     1
 62
     7
176
     1
 62
   257
176
     1
 90
        1
176
     1
 90
        1
176
     1
 40
1.0
176
     1
 90
        0
176
     1
 62
   257
176
     1
 40
1.0
176
     1
 90
        1
176
     1
 90
        6
176
     1
 90
        2
176
     1
 62
     7
176
     1
 90
        5
176
     1
 90
        0
176
     1
 90
        0
176
     1
290
     0
176
     1
 90
       13
176
     1
 40
0.0
176
     1
 90
        0
176
     1
290
     0
176
     1
290
     1
176
     1
290
     1
176
     1
290
     0
176
     1
290
     0
176
     1
290
     0
176
     1
290
     0
176
     1
290
     0
176
     1
290
     0
176
     1
 90
       50
176
     1
 40
0.0
176
     1
 40
1.0
176
     1
 90
        0
176
     1
 62
    18
420
        0
176
     1
 90
       50
176
     1
 90
        3
176
     1
 62
     5
420
      255
176
     1
290
     0
176
     1
 90
       50
176
     1
 90
       50
176
     1
 90
       50
176
     1
290
     0
176
     1
 90
       50
176
     1
 62
   256
176
     0
 40
1.0
176
     0
 90
        2
176
     1
  1
strokes_ogs.tif
176
     1
290
     0
176
     1
 40
1.0
176
     1
 40
1.0
176
     1
  0
VISUALSTYLE
  5
31
102
{ACAD_REACTORS
330
2A
102
}
330
2A
100
AcDbVisualStyle
  2
Hidden
 70
     6
177
     3
291
     0
 70
    58
 90
        1
176
     1
 90
        2
176
     1
 90
        2
176
     1
 90
        0
176
     1
 40
0.6
176
     1
 40
30.0
176
     1
 62
     7
420
 16777215
176
     1
 90
        2
176
     1
 90
        2
176
     1
 62
     7
176
     1
 62
   257
176
     1
 90
        2
176
     1
 90
        1
176
     1
 40
40.0
176
     1
 90
        0
176
     1
 62
   257
176
     1
 40
1.0
176
     1
 90
        1
176
     1
 90
        6
176
     1
 90
        2
176
     1
 62
     7
176
     1
 90
        3
176
     1
 90
        0
176
     1
 90
        0
176
     1
290
     0
176
     1
 90
        1
176
     1
 40
0.0
176
     1
 90
        0
176
     1
290
     0
176
     1
290
     1
176
     1
290
     1
176
     1
290
     0
176
     1
290
     0
176
     1
290
     0
176
     1
290
     0
176
     1
290
     0
176
     1
290
     0
176
     1
 90
       50
176
     1
 40
0.0
176
     1
 40
1.0
176
     1
 90
        0
176
     1
 62
    18
420
        0
176
     1
 90
       50
176
     1
 90
        3
176
     1
 62
     5
420
      255
176
     1
290
     0
176
     1
 90
       50
176
     1
 90
       50
176
     1
 90
       50
176
     1
290
     0
176
     1
 90
       50
176
     1
 62
   256
176
     0
 40
1.0
176
     0
 90
        2
176
     1
  1
strokes_ogs.tif
176
     1
290
     0
176
     1
 40
1.0
176
     1
 40
1.0
176
     1
  0
VISUALSTYLE
  5
3B
102
{ACAD_REACTORS
330
2A
102
}
330
2A
100
AcDbVisualStyle
  2
JitterOff
 70
    20
177
     3
291
     1
 70
    58
 90
        2
176
     0
 90
        2
176
     0
 90
        0
176
     0
 90
        0
176
     0
 40
0.6
176
     0
 40
30.0
176
     0
 62
     7
420
 16777215
176
     0
 90
        1
176
     0
 90
        4
176
     0
 62
     7
176
     0
 62
   257
176
     0
 90
        1
176
     0
 90
        1
176
     0
 40
1.0
176
     0
 90
       10
176
     2
 62
     7
176
     0
 40
1.0
176
     0
 90
        1
176
     0
 90
        6
176
     0
 90
        2
176
     0
 62
     7
176
     0
 90
        5
176
     0
 90
        0
176
     0
 90
        0
176
     0
290
     0
176
     0
 90
        1
176
     0
 40
0.0
176
     0
 90
        0
176
     0
290
     0
176
     0
290
     1
176
     0
290
     1
176
     0
290
     0
176
     0
290
     0
176
     0
290
     0
176
     0
290
     0
176
     0
290
     0
176
     0
290
     0
176
     0
 90
       50
176
     0
 40
0.0
176
     0
 40
1.0
176
     0
 90
        0
176
     0
 62
    18
420
        0
176
     0
 90
       50
176
     0
 90
        3
176
     0
 62
     5
420
      255
176
     0
290
     0
176
     0
 90
       50
176
     0
 90
       50
176
     0
 90
       50
176
     0
290
     0
176
     0
 90
       50
176
     0
 62
   256
176
     0
 40
1.0
176
     0
 90
        2
176
     0
  1
strokes_ogs.tif
176
     0
290
     0
176
     0
 40
1.0
176
     0
 40
1.0
176
     0
  0
VISUALSTYLE
  5
38
102
{ACAD_REACTORS
330
2A
102
}
330
2A
100
AcDbVisualStyle
  2
Linepattern
 70
    14
177
     3
291
     1
 70
    58
 90
        2
176
     1
 90
        2
176
     1
 90
        0
176
     1
 90
        0
176
     1
 40
0.6
176
     1
 40
30.0
176
     1
 62
     7
420
 16777215
176
     1
 90
        1
176
     1
 90
        4
176
     1
 62
     7
176
     1
 62
   257
176
     1
 90
        7
176
     1
 90
        7
176
     1
 40
1.0
176
     1
 90
        8
176
     1
 62
     7
176
     1
 40
1.0
176
     1
 90
        1
176
     1
 90
        6
176
     1
 90
        2
176
     1
 62
     7
176
     1
 90
        5
176
     1
 90
        0
176
     1
 90
        0
176
     1
290
     0
176
     1
 90
        1
176
     1
 40
0.0
176
     1
 90
        0
176
     1
290
     0
176
     1
290
     1
176
     1
290
     1
176
     1
290
     0
176
     1
290
     0
176
     1
290
     0
176
     1
290
     0
176
     1
290
     0
176
     1
290
     0
176
     1
 90
       50
176
     1
 40
0.0
176
     1
 40
1.0
176
     1
 90
        0
176
     1
 62
    18
420
        0
176
     1
 90
       50
176
     1
 90
        3
176
     1
 62
     5
420
      255
176
     1
290
     0
176
     1
 90
       50
176
     1
 90
       50
176
     1
 90
       50
176
     1
290
     0
176
     1
 90
       50
176
     1
 62
   256
176
     0
 40
1.0
176
     0
 90
        2
176
     1
  1
strokes_ogs.tif
176
     1
290
     0
176
     1
 40
1.0
176
     1
 40
1.0
176
     1
  0
VISUALSTYLE
  5
3C
102
{ACAD_REACTORS
330
2A
102
}
330
2A
100
AcDbVisualStyle
  2
OverhangOff
 70
    21
177
     3
291
     1
 70
    58
 90
        2
176
     0
 90
        2
176
     0
 90
        0
176
     0
 90
        0
176
     0
 40
0.6
176
     0
 40
30.0
176
     0
 62
     7
420
 16777215
176
     0
 90
        1
176
     0
 90
        4
176
     0
 62
     7
176
     0
 62
   257
176
     0
 90
        1
176
     0
 90
        1
176
     0
 40
1.0
176
     0
 90
        9
176
     2
 62
     7
176
     0
 40
1.0
176
     0
 90
        1
176
     0
 90
        6
176
     0
 90
        2
176
     0
 62
     7
176
     0
 90
        5
176
     0
 90
        0
176
     0
 90
        0
176
     0
290
     0
176
     0
 90
        1
176
     0
 40
0.0
176
     0
 90
        0
176
     0
290
     0
176
     0
290
     1
176
     0
290
     1
176
     0
290
     0
176
     0
290
     0
176
     0
290
     0
176
     0
290
     0
176
     0
290
     0
176
     0
290
     0
176
     0
 90
       50
176
     0
 40
0.0
176
     0
 40
1.0
176
     0
 90
        0
176
     0
 62
    18
420
        0
176
     0
 90
       50
176
     0
 90
        3
176
     0
 62
     5
420
      255
176
     0
290
     0
176
     0
 90
       50
176
     0
 90
       50
176
     0
 90
       50
176
     0
290
     0
176
     0
 90
       50
176
     0
 62
   256
176
     0
 40
1.0
176
     0
 90
        2
176
     0
  1
strokes_ogs.tif
176
     0
290
     0
176
     0
 40
1.0
176
     0
 40
1.0
176
     0
  0
VISUALSTYLE
  5
33
102
{ACAD_REACTORS
330
2A
102
}
330
2A
100
AcDbVisualStyle
  2
Realistic
 70
     8
177
     3
291
     0
 70
    58
 90
        2
176
     1
 90
        3
176
     1
 90
        0
176
     1
 90
        2
176
     1
 40
0.6
176
     1
 40
30.0
176
     1
 62
     7
420
 16777215
176
     1
 90
        0
176
     1
 90
        0
176
     1
 62
     7
176
     1
 62
   257
176
     1
 90
        1
176
     1
 90
        1
176
     1
 40
1.0
176
     1
 90
        8
176
     1
 62
   257
176
     1
 40
1.0
176
     1
 90
        1
176
     1
 90
        6
176
     1
 90
        2
176
     1
 62
     7
176
     1
 90
        3
176
     1
 90
        0
176
     1
 90
        0
176
     1
290
     0
176
     1
 90
       13
176
     1
 40
0.0
176
     1
 90
        0
176
     1
290
     0
176
     1
290
     1
176
     1
290
     1
176
     1
290
     0
176
     1
290
     0
176
     1
290
     0
176
     1
290
     0
176
     1
290
     0
176
     1
290
     0
176
     1
 90
       50
176
     1
 40
0.0
176
     1
 40
1.0
176
     1
 90
        0
176
     1
 62
    18
420
        0
176
     1
 90
       50
176
     1
 90
        3
176
     1
 62
     5
420
      255
176
     1
290
     0
176
     1
 90
       50
176
     1
 90
       50
176
     1
 90
       50
176
     1
290
     0
176
     1
 90
       50
176
     1
 62
   256
176
     0
 40
1.0
176
     0
 90
        2
176
     1
  1
strokes_ogs.tif
176
     1
290
     0
176
     1
 40
1.0
176
     1
 40
1.0
176
     1
  0
VISUALSTYLE
  5
42
102
{ACAD_REACTORS
330
2A
102
}
330
2A
100
AcDbVisualStyle
  2
Shaded
 70
    27
177
     3
291
     0
 70
    58
 90
        2
176
     1
 90
        2
176
     1
 90
        1
176
     1
 90
        2
176
     1
 40
0.6
176
     1
 40
30.0
176
     1
 62
     7
420
 16777215
176
     1
 90
        0
176
     1
 90
        4
176
     1
 62
     7
176
     1
 62
   257
176
     1
 90
        1
176
     1
 90
        1
176
     1
 40
1.0
176
     1
 90
        8
176
     1
 62
   257
176
     1
 40
1.0
176
     1
 90
        1
176
     1
 90
        6
176
     1
 90
        2
176
     1
 62
     8
420
  7895160
176
     1
 90
        3
176
     1
 90
        0
176
     1
 90
        0
176
     1
290
     0
176
     1
 90
        5
176
     1
 40
0.0
176
     1
 90
        0
176
     1
290
     0
176
     1
290
     1
176
     1
290
     1
176
     1
290
     0
176
     1
290
     0
176
     1
290
     0
176
     1
290
     0
176
     1
290
     0
176
     1
290
     0
176
     1
 90
       50
176
     1
 40
0.0
176
     1
 40
1.0
176
     1
 90
        0
176
     1
 62
    18
420
        0
176
     1
 90
       50
176
     1
 90
        3
176
     1
 62
     5
420
      255
176
     1
290
     0
176
     1
 90
       50
176
     1
 90
       50
176
     1
 90
       50
176
     1
290
     0
176
     1
 90
       50
176
     1
 62
   256
176
     0
 40
1.0
176
     0
 90
        2
176
     1
  1
strokes_ogs.tif
176
     1
290
     0
176
     1
 40
1.0
176
     1
 40
1.0
176
     1
  0
VISUALSTYLE
  5
41
102
{ACAD_REACTORS
330
2A
102
}
330
2A
100
AcDbVisualStyle
  2
Shaded with edges
 70
    26
177
     3
291
     0
 70
    58
 90
        2
176
     1
 90
        2
176
     1
 90
        1
176
     1
 90
        2
176
     1
 40
0.6
176
     1
 40
30.0
176
     1
 62
     7
420
 16777215
176
     1
 90
        1
176
     1
 90
       10
176
     1
 62
     7
176
     1
 62
   257
176
     1
 90
        2
176
     1
 90
        1
176
     1
 40
1.0
176
     1
 90
        8
176
     1
 62
   257
176
     1
 40
1.0
176
     1
 90
        1
176
     1
 90
        6
176
     1
 90
        2
176
     1
 62
     7
176
     1
 90
        3
176
     1
 90
        0
176
     1
 90
        0
176
     1
290
     0
176
     1
 90
        5
176
     1
 40
0.0
176
     1
 90
        0
176
     1
290
     0
176
     1
290
     1
176
     1
290
     1
176
     1
290
     0
176
     1
290
     0
176
     1
290
     0
176
     1
290
     0
176
     1
290
     0
176
     1
290
     0
176
     1
 90
       50
176
     1
 40
0.0
176
     1
 40
1.0
176
     1
 90
        0
176
     1
 62
    18
420
        0
176
     1
 90
       50
176
     1
 90
        3
176
     1
 62
     5
420
      255
176
     1
290
     0
176
     1
 90
       50
176
     1
 90
       50
176
     1
 90
       50
176
     1
290
     0
176
     1
 90
       50
176
     1
 62
   256
176
     0
 40
1.0
176
     0
 90
        2
176
     1
  1
strokes_ogs.tif
176
     1
290
     0
176
     1
 40
1.0
176
     1
 40
1.0
176
     1
  0
VISUALSTYLE
  5
3E
102
{ACAD_REACTORS
330
2A
102
}
330
2A
100
AcDbVisualStyle
  2
Shades of Gray
 70
    23
177
     3
291
     0
 70
    58
 90
        2
176
     1
 90
        2
176
     1
 90
        3
176
     1
 90
        0
176
     1
 40
0.6
176
     1
 40
30.0
176
     1
 62
     7
420
 16777215
176
     1
 90
        2
176
     1
 90
        2
176
     1
 62
     7
176
     1
 62
     7
176
     1
 90
        1
176
     1
 90
        1
176
     1
 40
40.0
176
     1
 90
        8
176
     1
 62
     7
176
     1
 40
1.0
176
     1
 90
        1
176
     1
 90
        6
176
     1
 90
        2
176
     1
 62
     7
176
     1
 90
        3
176
     1
 90
        0
176
     1
 90
        0
176
     1
290
     0
176
     1
 90
        1
176
     1
 40
0.0
176
     1
 90
        0
176
     1
290
     0
176
     1
290
     1
176
     1
290
     1
176
     1
290
     0
176
     1
290
     0
176
     1
290
     0
176
     1
290
     0
176
     1
290
     0
176
     1
290
     0
176
     1
 90
       50
176
     1
 40
0.0
176
     1
 40
1.0
176
     1
 90
        0
176
     1
 62
    18
420
        0
176
     1
 90
       50
176
     1
 90
        3
176
     1
 62
     5
420
      255
176
     1
290
     0
176
     1
 90
       50
176
     1
 90
       50
176
     1
 90
       50
176
     1
290
     0
176
     1
 90
       50
176
     1
 62
   256
176
     0
 40
1.0
176
     0
 90
        2
176
     1
  1
strokes_ogs.tif
176
     1
290
     0
176
     1
 40
1.0
176
     1
 40
1.0
176
     1
  0
VISUALSTYLE
  5
3F
102
{ACAD_REACTORS
330
2A
102
}
330
2A
100
AcDbVisualStyle
  2
Sketchy
 70
    24
177
     3
291
     0
 70
    58
 90
        1
176
     1
 90
        2
176
     1
 90
        2
176
     1
 90
        0
176
     1
 40
0.6
176
     1
 40
30.0
176
     1
 62
     7
420
 16777215
176
     1
 90
        2
176
     1
 90
        2
176
     1
 62
     7
176
     1
 62
     7
176
     1
 90
        1
176
     1
 90
        1
176
     1
 40
40.0
176
     1
 90
       11
176
     1
 62
     7
176
     1
 40
1.0
176
     1
 90
        1
176
     1
 90
        6
176
     1
 90
        2
176
     1
 62
     7
176
     1
 90
        6
176
     1
 90
        0
176
     1
 90
        0
176
     1
290
     0
176
     1
 90
        1
176
     1
 40
0.0
176
     1
 90
        0
176
     1
290
     0
176
     1
290
     1
176
     1
290
     1
176
     1
290
     0
176
     1
290
     0
176
     1
290
     0
176
     1
290
     0
176
     1
290
     0
176
     1
290
     0
176
     1
 90
       50
176
     1
 40
0.0
176
     1
 40
1.0
176
     1
 90
        0
176
     1
 62
    18
420
        0
176
     1
 90
       50
176
     1
 90
        3
176
     1
 62
     5
420
      255
176
     1
290
     0
176
     1
 90
       50
176
     1
 90
       50
176
     1
 90
       50
176
     1
290
     0
176
     1
 90
       50
176
     1
 62
   256
176
     0
 40
1.0
176
     0
 90
        2
176
     1
  1
strokes_ogs.tif
176
     1
290
     0
176
     1
 40
1.0
176
     1
 40
1.0
176
     1
  0
VISUALSTYLE
  5
37
102
{ACAD_REACTORS
330
2A
102
}
330
2A
100
AcDbVisualStyle
  2
Thicken
 70
    13
177
     3
291
     1
 70
    58
 90
        2
176
     1
 90
        2
176
     1
 90
        0
176
     1
 90
        0
176
     1
 40
0.6
176
     1
 40
30.0
176
     1
 62
     7
420
 16777215
176
     1
 90
        1
176
     1
 90
        4
176
     1
 62
     7
176
     1
 62
   257
176
     1
 90
        1
176
     1
 90
        1
176
     1
 40
1.0
176
     1
 90
       12
176
     1
 62
     7
176
     1
 40
1.0
176
     1
 90
        1
176
     1
 90
        6
176
     1
 90
        2
176
     1
 62
     7
176
     1
 90
        5
176
     1
 90
        0
176
     1
 90
        0
176
     1
290
     0
176
     1
 90
        1
176
     1
 40
0.0
176
     1
 90
        0
176
     1
290
     0
176
     1
290
     1
176
     1
290
     1
176
     1
290
     0
176
     1
290
     0
176
     1
290
     0
176
     1
290
     0
176
     1
290
     0
176
     1
290
     0
176
     1
 90
       50
176
     1
 40
0.0
176
     1
 40
1.0
176
     1
 90
        0
176
     1
 62
    18
420
        0
176
     1
 90
       50
176
     1
 90
        3
176
     1
 62
     5
420
      255
176
     1
290
     0
176
     1
 90
       50
176
     1
 90
       50
176
     1
 90
       50
176
     1
290
     0
176
     1
 90
       50
176
     1
 62
   256
176
     0
 40
1.0
176
     0
 90
        2
176
     1
  1
strokes_ogs.tif
176
     1
290
     0
176
     1
 40
1.0
176
     1
 40
1.0
176
     1
  0
VISUALSTYLE
  5
30
102
{ACAD_REACTORS
330
2A
102
}
330
2A
100
AcDbVisualStyle
  2
Wireframe
 70
     5
177
     3
291
     0
 70
    58
 90
        0
176
     1
 90
        2
176
     1
 90
        0
176
     1
 90
        0
176
     1
 40
0.6
176
     1
 40
30.0
176
     1
 62
     7
420
 16777215
176
     1
 90
        1
176
     1
 90
        4
176
     1
 62
     7
176
     1
 62
   257
176
     1
 90
        1
176
     1
 90
        1
176
     1
 40
1.0
176
     1
 90
        0
176
     1
 62
   257
176
     1
 40
1.0
176
     1
 90
        1
176
     1
 90
        6
176
     1
 90
        2
176
     1
 62
     7
176
     1
 90
        3
176
     1
 90
        0
176
     1
 90
        0
176
     1
290
     0
176
     1
 90
        1
176
     1
 40
0.0
176
     1
 90
        0
176
     1
290
     0
176
     1
290
     1
176
     1
290
     1
176
     1
290
     0
176
     1
290
     0
176
     1
290
     0
176
     1
290
     0
176
     1
290
     0
176
     1
290
     0
176
     1
 90
       50
176
     1
 40
0.0
176
     1
 40
1.0
176
     1
 90
        0
176
     1
 62
    18
420
        0
176
     1
 90
       50
176
     1
 90
        3
176
     1
 62
     5
420
      255
176
     1
290
     0
176
     1
 90
       50
176
     1
 90
       50
176
     1
 90
       50
176
     1
290
     0
176
     1
 90
       50
176
     1
 62
   256
176
     0
 40
1.0
176
     0
 90
        2
176
     1
  1
strokes_ogs.tif
176
     1
290
     0
176
     1
 40
1.0
176
     1
 40
1.0
176
     1
  0
VISUALSTYLE
  5
40
102
{ACAD_REACTORS
330
2A
102
}
330
2A
100
AcDbVisualStyle
  2
X-Ray
 70
    25
177
     3
291
     0
 70
    58
 90
        2
176
     1
 90
        2
176
     1
 90
        1
176
     1
 90
        1
176
     1
 40
0.5
176
     1
 40
30.0
176
     1
 62
     7
420
 16777215
176
     1
 90
        1
176
     1
 90
        0
176
     1
 62
     7
176
     1
 62
   257
176
     1
 90
        1
176
     1
 90
        1
176
     1
 40
1.0
176
     1
 90
        8
176
     1
 62
     7
176
     1
 40
1.0
176
     1
 90
        1
176
     1
 90
        6
176
     1
 90
        2
176
     1
 62
     7
176
     1
 90
        3
176
     1
 90
        0
176
     1
 90
        0
176
     1
290
     0
176
     1
 90
       13
176
     1
 40
0.0
176
     1
 90
        0
176
     1
290
     0
176
     1
290
     1
176
     1
290
     1
176
     1
290
     0
176
     1
290
     0
176
     1
290
     0
176
     1
290
     0
176
     1
290
     0
176
     1
290
     0
176
     1
 90
       50
176
     1
 40
0.0
176
     1
 40
1.0
176
     1
 90
        0
176
     1
 62
    18
420
        0
176
     1
 90
       50
176
     1
 90
        3
176
     1
 62
     5
420
      255
176
     1
290
     0
176
     1
 90
       50
176
     1
 90
       50
176
     1
 90
       50
176
     1
290
     0
176
     1
 90
       50
176
     1
 62
   256
176
     0
 40
1.0
176
     0
 90
        2
176
     1
  1
strokes_ogs.tif
176
     1
290
     0
176
     1
 40
1.0
176
     1
 40
1.0
176
     1
  0
DICTIONARYVAR
  5
66
102
{ACAD_REACTORS
330
65
102
}
330
65
100
DictionaryVariables
280
     0
  1
1:1
  0
DICTIONARYVAR
  5
6B
102
{ACAD_REACTORS
330
65
102
}
330
65
100
DictionaryVariables
280
     0
  1
Standard
  0
DICTIONARYVAR
  5
6A
102
{ACAD_REACTORS
330
65
102
}
330
65
100
DictionaryVariables
280
     0
  1
Standard
  0
DICTIONARY
  5
67
330
5A
100
AcDbDictionary
280
     1
281
     1
  3
ACAD_ROUNDTRIP_2008_TABLESTYLE_CELLSTYLEMAP
360
68
  0
CELLSTYLEMAP
  5
68
102
{ACAD_REACTORS
330
67
102
}
330
67
100
AcDbCellStyleMap
 90
        3
300
CELLSTYLE
  1
TABLEFORMAT_BEGIN
 90
        5
170
     1
 91
        0
 92
    32768
 62
   257
 93
        1
300
CONTENTFORMAT
  1
CONTENTFORMAT_BEGIN
 90
        0
 91
        0
 92
        4
 93
        0
300

 40
0.0
140
1.0
 94
        5
 62
     0
340
11
144
0.25
309
CONTENTFORMAT_END
171
     1
301
MARGIN
  1
CELLMARGIN_BEGIN
 40
0.06
 40
0.06
 40
0.06
 40
0.06
 40
0.06
 40
0.06
309
CELLMARGIN_END
 94
        6
 95
        1
302
GRIDFORMAT
  1
GRIDFORMAT_BEGIN
 90
        0
 91
        1
 62
     0
 92
       -2
340
14
 93
        0
 40
0.045
309
GRIDFORMAT_END
 95
        2
302
GRIDFORMAT
  1
GRIDFORMAT_BEGIN
 90
        0
 91
        1
 62
     0
 92
       -2
340
14
 93
        0
 40
0.045
309
GRIDFORMAT_END
 95
        4
302
GRIDFORMAT
  1
GRIDFORMAT_BEGIN
 90
        0
 91
        1
 62
     0
 92
       -2
340
14
 93
        0
 40
0.045
309
GRIDFORMAT_END
 95
        8
302
GRIDFORMAT
  1
GRIDFORMAT_BEGIN
 90
        0
 91
        1
 62
     0
 92
       -2
340
14
 93
        0
 40
0.045
309
GRIDFORMAT_END
 95
       16
302
GRIDFORMAT
  1
GRIDFORMAT_BEGIN
 90
        0
 91
        1
 62
     0
 92
       -2
340
14
 93
        0
 40
0.045
309
GRIDFORMAT_END
 95
       32
302
GRIDFORMAT
  1
GRIDFORMAT_BEGIN
 90
        0
 91
        1
 62
     0
 92
       -2
340
14
 93
        0
 40
0.045
309
GRIDFORMAT_END
309
TABLEFORMAT_END
  1
CELLSTYLE_BEGIN
 90
        1
 91
        1
300
_TITLE
309
CELLSTYLE_END
300
CELLSTYLE
  1
TABLEFORMAT_BEGIN
 90
        5
170
     1
 91
        0
 92
        0
 62
   257
 93
        1
300
CONTENTFORMAT
  1
CONTENTFORMAT_BEGIN
 90
        0
 91
        0
 92
        4
 93
        0
300

 40
0.0
140
1.0
 94
        5
 62
     0
340
11
144
0.18
309
CONTENTFORMAT_END
171
     1
301
MARGIN
  1
CELLMARGIN_BEGIN
 40
0.06
 40
0.06
 40
0.06
 40
0.06
 40
0.06
 40
0.06
309
CELLMARGIN_END
 94
        6
 95
        1
302
GRIDFORMAT
  1
GRIDFORMAT_BEGIN
 90
        0
 91
        1
 62
     0
 92
       -2
340
14
 93
        0
 40
0.045
309
GRIDFORMAT_END
 95
        2
302
GRIDFORMAT
  1
GRIDFORMAT_BEGIN
 90
        0
 91
        1
 62
     0
 92
       -2
340
14
 93
        0
 40
0.045
309
GRIDFORMAT_END
 95
        4
302
GRIDFORMAT
  1
GRIDFORMAT_BEGIN
 90
        0
 91
        1
 62
     0
 92
       -2
340
14
 93
        0
 40
0.045
309
GRIDFORMAT_END
 95
        8
302
GRIDFORMAT
  1
GRIDFORMAT_BEGIN
 90
        0
 91
        1
 62
     0
 92
       -2
340
14
 93
        0
 40
0.045
309
GRIDFORMAT_END
 95
       16
302
GRIDFORMAT
  1
GRIDFORMAT_BEGIN
 90
        0
 91
        1
 62
     0
 92
       -2
340
14
 93
        0
 40
0.045
309
GRIDFORMAT_END
 95
       32
302
GRIDFORMAT
  1
GRIDFORMAT_BEGIN
 90
        0
 91
        1
 62
     0
 92
       -2
340
14
 93
        0
 40
0.045
309
GRIDFORMAT_END
309
TABLEFORMAT_END
  1
CELLSTYLE_BEGIN
 90
        2
 91
        1
300
_HEADER
309
CELLSTYLE_END
300
CELLSTYLE
  1
TABLEFORMAT_BEGIN
 90
        5
170
     1
 91
        0
 92
        0
 62
   257
 93
        1
300
CONTENTFORMAT
  1
CONTENTFORMAT_BEGIN
 90
        0
 91
        0
 92
        4
 93
        0
300

 40
0.0
140
1.0
 94
        2
 62
     0
340
11
144
0.18
309
CONTENTFORMAT_END
171
     1
301
MARGIN
  1
CELLMARGIN_BEGIN
 40
0.06
 40
0.06
 40
0.06
 40
0.06
 40
0.06
 40
0.06
309
CELLMARGIN_END
 94
        6
 95
        1
302
GRIDFORMAT
  1
GRIDFORMAT_BEGIN
 90
        0
 91
        1
 62
     0
 92
       -2
340
14
 93
        0
 40
0.045
309
GRIDFORMAT_END
 95
        2
302
GRIDFORMAT
  1
GRIDFORMAT_BEGIN
 90
        0
 91
        1
 62
     0
 92
       -2
340
14
 93
        0
 40
0.045
309
GRIDFORMAT_END
 95
        4
302
GRIDFORMAT
  1
GRIDFORMAT_BEGIN
 90
        0
 91
        1
 62
     0
 92
       -2
340
14
 93
        0
 40
0.045
309
GRIDFORMAT_END
 95
        8
302
GRIDFORMAT
  1
GRIDFORMAT_BEGIN
 90
        0
 91
        1
 62
     0
 92
       -2
340
14
 93
        0
 40
0.045
309
GRIDFORMAT_END
 95
       16
302
GRIDFORMAT
  1
GRIDFORMAT_BEGIN
 90
        0
 91
        1
 62
     0
 92
       -2
340
14
 93
        0
 40
0.045
309
GRIDFORMAT_END
 95
       32
302
GRIDFORMAT
  1
GRIDFORMAT_BEGIN
 90
        0
 91
        1
 62
     0
 92
       -2
340
14
 93
        0
 40
0.045
309
GRIDFORMAT_END
309
TABLEFORMAT_END
  1
CELLSTYLE_BEGIN
 90
        3
 91
        2
300
_DATA
309
CELLSTYLE_END
  0
ENDSEC
  0
EOF
